<svg width="80" height="80" viewBox="0 0 80 80" fill="none" xmlns="http://www.w3.org/2000/svg">
<g clip-path="url(#clip0_303_8661)">
<path d="M9.27192 71.5016L39.6764 40.3356C39.7703 40.2429 39.8285 40.1201 39.8409 39.9887C39.8533 39.8574 39.8192 39.7259 39.7444 39.6172C37.8955 37.0359 34.4839 36.5883 33.2194 34.8538C29.4742 29.7163 28.5239 26.8078 26.9144 26.9883C26.8021 27.0045 26.6988 27.0589 26.6221 27.1425L15.6391 38.4015C9.32005 44.8735 8.41205 59.139 8.24805 71.085C8.24751 71.2039 8.28256 71.3202 8.34869 71.419C8.41482 71.5178 8.50901 71.5945 8.61912 71.6393C8.72923 71.6841 8.85023 71.6949 8.96653 71.6703C9.08283 71.6457 9.18934 71.5871 9.27192 71.5016Z" fill="#017CEE"/>
<path d="M71.4949 70.7311L40.3289 40.3246C40.2361 40.2305 40.1132 40.1721 39.9816 40.1596C39.85 40.1472 39.7183 40.1815 39.6095 40.2566C37.0282 42.1065 36.5806 45.5171 34.8461 46.7816C29.7086 50.5268 26.8001 51.4771 26.9806 53.0866C26.997 53.1985 27.0515 53.3014 27.1348 53.3779L38.3938 64.3609C44.8658 70.6799 59.1313 71.5879 71.0773 71.7519C71.1956 71.7519 71.3112 71.7168 71.4095 71.6509C71.5077 71.585 71.5841 71.4914 71.6289 71.3819C71.6737 71.2724 71.6848 71.1521 71.6609 71.0362C71.6371 70.9204 71.5794 70.8139 71.4949 70.7311Z" fill="#00AD46"/>
<path d="M38.3957 64.3595C34.8577 60.9078 33.2182 54.08 39.9986 40C28.9756 44.9263 25.1131 51.4015 27.0126 53.2555L38.3957 64.3595Z" fill="#04D659"/>
<path d="M70.7251 8.5043L40.3216 39.6703C40.2276 39.7629 40.1692 39.8857 40.1568 40.0171C40.1444 40.1485 40.1787 40.2801 40.2537 40.3887C42.1036 42.97 45.5132 43.4176 46.7787 45.1521C50.5238 50.2896 51.4752 53.1981 53.0837 53.0176C53.196 53.0016 53.2994 52.9471 53.376 52.8634L64.359 41.6044C70.678 35.1324 71.586 20.8669 71.75 8.92085C71.7502 8.80199 71.7149 8.68578 71.6487 8.58711C71.5824 8.48844 71.4881 8.41183 71.378 8.36709C71.2679 8.32234 71.1469 8.31152 71.0306 8.336C70.9143 8.36048 70.8079 8.41897 70.7251 8.5043Z" fill="#00C7D4"/>
<path d="M64.3651 41.6029C60.9134 45.1409 54.0856 46.7804 40.0046 40C44.9309 51.023 51.4061 54.8855 53.2601 52.986L64.3651 41.6029Z" fill="#11E1EE"/>
<path d="M8.50084 9.27488L39.6668 39.6784C39.7596 39.7722 39.8824 39.8305 40.0137 39.8429C40.145 39.8553 40.2766 39.8211 40.3852 39.7463C42.9665 37.8964 43.4141 34.4858 45.1486 33.2213C50.2861 29.4762 53.1946 28.5259 53.0141 26.9163C52.9977 26.8041 52.9433 26.7009 52.8599 26.624L41.6009 15.641C35.1289 9.32201 20.8634 8.41401 8.91739 8.25001C8.79829 8.24924 8.68169 8.2842 8.58266 8.35039C8.48364 8.41657 8.40674 8.51093 8.36191 8.62128C8.31707 8.73162 8.30637 8.85288 8.33117 8.96937C8.35596 9.08587 8.41495 9.19236 8.50084 9.27488Z" fill="#E43921"/>
<path d="M41.6058 15.6411C45.1438 19.0928 46.7833 25.9206 40.0029 40.0016C51.0259 35.0753 54.8884 28.5991 52.9889 26.7461L41.6058 15.6411Z" fill="#FF7557"/>
<path d="M15.6396 38.3984C19.0914 34.8604 25.9191 33.2209 40.0001 40.0013C35.0739 28.9783 28.5986 25.1158 26.7446 27.0153L15.6396 38.3984Z" fill="#0CB6FF"/>
<path d="M40.0046 41.3593C40.7552 41.3593 41.3637 40.7508 41.3637 40.0002C41.3637 39.2496 40.7552 38.6411 40.0046 38.6411C39.254 38.6411 38.6455 39.2496 38.6455 40.0002C38.6455 40.7508 39.254 41.3593 40.0046 41.3593Z" fill="#4A4848"/>
</g>
<defs>
<clipPath id="clip0_303_8661">
<rect width="64" height="64" fill="white" transform="translate(8 8)"/>
</clipPath>
</defs>
</svg>
