<svg width="80" height="80" viewBox="0 0 80 80" fill="none" xmlns="http://www.w3.org/2000/svg">
<path d="M53.3334 65.6C68.0609 65.6 80 54.1386 80 40.0001C80 25.8616 68.0609 14.4001 53.3334 14.4001C38.6058 14.4001 26.6667 25.8616 26.6667 40.0001C26.6667 54.1386 38.6058 65.6 53.3334 65.6Z" fill="#FFDE2D"/>
<path d="M26.6666 65.5999C41.3942 65.5999 53.3333 54.1384 53.3333 40C53.3333 25.8615 41.3942 14.4 26.6666 14.4C11.9391 14.4 0 25.8615 0 40C0 54.1384 11.9391 65.5999 26.6666 65.5999Z" fill="#327EFF"/>
<path d="M53.3335 40.0001C53.3335 54.1387 41.3944 65.5999 26.6667 65.5999V40.0001H53.3335ZM26.6667 40.0001C26.6667 25.8617 38.6058 14.4001 53.3335 14.4001V40.0001H26.6667Z" fill="#FF6446"/>
</svg>
