<svg width="80" height="80" viewBox="0 0 80 80" fill="none" xmlns="http://www.w3.org/2000/svg">
<path fill-rule="evenodd" clip-rule="evenodd" d="M23.0865 21.5809C9.80447 21.5809 0.144775 28.7494 0.144775 39.9999C0.144775 51.2007 10.2069 58.419 23.0865 58.419C35.9661 58.419 43.8649 52.0967 44.1667 42.7877L32.6958 42.5388C32.1928 47.6165 27.7403 50.8024 23.0865 50.8024C16.697 50.8024 11.9678 46.6706 11.9678 39.9999C11.9678 33.3292 16.697 29.1228 23.0865 28.9983C27.7403 28.8987 32.2934 32.234 32.5952 37.3118L44.0661 36.9633C43.8145 27.8035 36.3686 21.5809 23.0865 21.5809ZM49.6686 22.6693H79.8552V57.5162H49.6686V22.6693Z" fill="black"/>
</svg>
