<svg width="80" height="80" viewBox="0 0 80 80" fill="none" xmlns="http://www.w3.org/2000/svg">
<path d="M12.0067 41.6349C12.0067 43.8606 11.8287 44.5856 11.3708 45.1198C10.8612 45.5786 10.1997 45.8324 9.51392 45.832L9.69198 47.1038C10.7551 47.1182 11.7867 46.7427 12.5918 46.0482C13.025 45.5199 13.3473 44.9099 13.5396 44.2543C13.7319 43.5988 13.7902 42.9112 13.711 42.2327V33.813H12.0067V41.584V41.6349Z" fill="#4E4E4E"/>
<path d="M24.717 40.6279C24.717 41.5818 24.717 42.4339 24.7933 43.1716H23.2798L23.178 41.6581C22.8615 42.1936 22.4087 42.6357 21.8659 42.9396C21.323 43.2434 20.7094 43.398 20.0874 43.3878C18.6121 43.3878 16.8569 42.5866 16.8569 39.3179V33.8871H18.5612V38.9745C18.5612 40.7424 19.1081 41.9252 20.6471 41.9252C20.9637 41.9286 21.2778 41.8687 21.571 41.7491C21.8641 41.6295 22.1305 41.4526 22.3544 41.2287C22.5783 41.0048 22.7552 40.7385 22.8748 40.4453C22.9944 40.1521 23.0543 39.838 23.0509 39.5214V33.8235H24.7551V40.577L24.717 40.6279Z" fill="#4E4E4E"/>
<path d="M27.9474 36.9139C27.9474 35.731 27.9474 34.7644 27.8711 33.8869H29.3973L29.4736 35.4767C29.8137 34.9023 30.3032 34.4309 30.89 34.1129C31.4769 33.7948 32.139 33.642 32.8059 33.6706C35.0698 33.6706 36.7741 35.5657 36.7741 38.3892C36.7741 41.7215 34.7264 43.3749 32.5134 43.3749C31.9469 43.4002 31.3836 43.2788 30.8778 43.0226C30.372 42.7663 29.9409 42.3839 29.6263 41.9123V46.9997H27.9474V36.952V36.9139ZM29.6263 39.394C29.6309 39.6248 29.6564 39.8546 29.7026 40.0808C29.8469 40.6455 30.1754 41.146 30.6361 41.503C31.0968 41.8601 31.6634 42.0533 32.2463 42.0522C34.0396 42.0522 35.0952 40.5895 35.0952 38.4655C35.0952 36.6086 34.1032 35.0188 32.3099 35.0188C31.6002 35.0769 30.9361 35.3919 30.442 35.9047C29.948 36.4174 29.6579 37.0928 29.6263 37.8042V39.394Z" fill="#4E4E4E"/>
<path d="M39.8106 33.8779L41.8583 39.3596C42.0745 39.9701 42.3034 40.7078 42.456 41.2547C42.6341 40.695 42.8249 39.9828 43.0538 39.3214L44.9107 33.8779H46.704L44.1603 40.4915C42.8885 43.6712 42.1126 45.3119 40.9425 46.3039C40.3532 46.8422 39.6346 47.219 38.8567 47.3977L38.437 45.9732C38.9809 45.7945 39.4859 45.514 39.925 45.1465C40.5455 44.6409 41.0379 43.996 41.3622 43.2642C41.4316 43.1375 41.479 42.9998 41.5021 42.8572C41.4877 42.7037 41.449 42.5535 41.3877 42.412L37.9282 33.8525H39.7851L39.8106 33.8779Z" fill="#4E4E4E"/>
<path d="M51.2284 31.2108V33.8817H53.6703V35.1536H51.2284V40.1647C51.2284 41.3093 51.5591 41.9707 52.5002 41.9707C52.8345 41.9762 53.168 41.9377 53.4923 41.8562L53.5686 43.1281C53.0824 43.2965 52.5693 43.3741 52.0551 43.357C51.7145 43.3783 51.3733 43.3257 51.055 43.2028C50.7367 43.0798 50.4487 42.8895 50.2109 42.6448C49.6928 41.9519 49.4565 41.0884 49.5495 40.2283V35.1408H48.0996V33.869H49.575V31.6051L51.2284 31.2108Z" fill="#4E4E4E"/>
<path d="M56.8098 38.8237C56.7753 39.255 56.8349 39.6887 56.9844 40.0948C57.1339 40.5008 57.3697 40.8696 57.6757 41.1756C57.9817 41.4815 58.3505 41.7174 58.7565 41.8669C59.1626 42.0164 59.5963 42.076 60.0276 42.0415C60.9001 42.061 61.7668 41.8963 62.5713 41.5581L62.8639 42.83C61.8766 43.2367 60.8151 43.4316 59.7478 43.4023C59.1256 43.4449 58.5016 43.3524 57.9185 43.1312C57.3354 42.91 56.8071 42.5652 56.3697 42.1206C55.9324 41.676 55.5963 41.1421 55.3847 40.5555C55.1731 39.9688 55.0909 39.3433 55.1437 38.7219C55.1437 35.9238 56.8098 33.7108 59.5316 33.7108C62.584 33.7108 63.3472 36.3817 63.3472 38.086C63.3635 38.3486 63.3635 38.6119 63.3472 38.8745H56.7717L56.8098 38.8237ZM61.7955 37.5518C61.8446 37.2118 61.8202 36.8652 61.724 36.5354C61.6278 36.2055 61.4621 35.9002 61.2379 35.6398C61.0137 35.3795 60.7363 35.1702 60.4244 35.0262C60.1126 34.8821 59.7734 34.8065 59.4299 34.8046C58.731 34.8552 58.0763 35.1649 57.594 35.6731C57.1117 36.1813 56.8366 36.8513 56.8226 37.5518H61.7955Z" fill="#4E4E4E"/>
<path d="M65.933 36.7695C65.933 35.6757 65.933 34.7345 65.8567 33.8696H67.3829V35.6884H67.4592C67.6194 35.127 67.9504 34.6295 68.4062 34.2648C68.8621 33.9002 69.4201 33.6865 70.0029 33.6534C70.1633 33.6324 70.3258 33.6324 70.4862 33.6534V35.2432C70.2919 35.2207 70.0955 35.2207 69.9012 35.2432C69.3238 35.2656 68.7744 35.4974 68.3554 35.8953C67.9364 36.2932 67.6767 36.8299 67.6246 37.4054C67.577 37.6656 67.5515 37.9294 67.5483 38.1939V43.1414H65.8694V36.7822L65.933 36.7695Z" fill="#4E4E4E"/>
<path d="M65.1862 8.33279C65.2384 9.18723 65.0351 10.0379 64.6022 10.7764C64.1693 11.5149 63.5263 12.1078 62.7552 12.4796C61.9841 12.8513 61.1198 12.9852 60.2724 12.864C59.425 12.7429 58.6328 12.3722 57.9968 11.7993C57.3608 11.2263 56.9097 10.477 56.7011 9.6468C56.4924 8.81659 56.5356 7.94305 56.8252 7.13747C57.1147 6.3319 57.6375 5.63075 58.327 5.12334C59.0164 4.61594 59.8413 4.32524 60.6965 4.2883C61.2573 4.25744 61.8186 4.33774 62.3481 4.52457C62.8777 4.7114 63.3651 5.00108 63.7824 5.37695C64.1996 5.75282 64.5384 6.20746 64.7794 6.71473C65.0203 7.222 65.1585 7.7719 65.1862 8.33279Z" fill="#767677"/>
<path d="M40.037 58.1432C28.5904 58.1432 18.53 54.0351 13.3281 47.9683C15.3465 53.4261 18.9883 58.1345 23.7635 61.4598C28.5387 64.7852 34.2181 66.5678 40.037 66.5678C45.856 66.5678 51.5353 64.7852 56.3106 61.4598C61.0857 58.1345 64.7276 53.4261 66.746 47.9683C61.5568 54.0351 51.5346 58.1432 40.037 58.1432Z" fill="#F37726"/>
<path d="M40.037 18.6927C51.4837 18.6927 61.5441 22.8008 66.746 28.8675C64.7276 23.4098 61.0857 18.7014 56.3106 15.3761C51.5353 12.0507 45.856 10.2681 40.037 10.2681C34.2181 10.2681 28.5387 12.0507 23.7635 15.3761C18.9883 18.7014 15.3465 23.4098 13.3281 28.8675C18.53 22.7881 28.5396 18.6927 40.037 18.6927Z" fill="#F37726"/>
<path d="M24.2793 69.9485C24.3465 71.0247 24.0917 72.0966 23.5475 73.0275C23.0032 73.9584 22.1942 74.7062 21.2235 75.1757C20.2527 75.6452 19.1642 75.815 18.0965 75.6636C17.0289 75.5122 16.0305 75.0464 15.2285 74.3255C14.4266 73.6047 13.8574 72.6614 13.5934 71.6159C13.3295 70.5704 13.3828 69.47 13.7465 68.4548C14.1102 67.4397 14.7679 66.5558 15.6357 65.9158C16.5036 65.2758 17.5423 64.9086 18.6196 64.8611C19.3253 64.8233 20.0315 64.925 20.6979 65.1603C21.3643 65.3955 21.9778 65.7598 22.5034 66.2322C23.029 66.7047 23.4564 67.276 23.7611 67.9137C24.0658 68.5513 24.2419 69.2428 24.2793 69.9485Z" fill="#9E9E9E"/>
<path d="M14.629 17.3106C14.0122 17.3276 13.4041 17.1619 12.8813 16.8343C12.3584 16.5067 11.9441 16.0317 11.6904 15.4693C11.4368 14.9068 11.3551 14.2819 11.4556 13.6731C11.5562 13.0644 11.8345 12.4989 12.2556 12.0479C12.6766 11.5969 13.2217 11.2804 13.8221 11.1383C14.4225 10.9963 15.0516 11.0349 15.6301 11.2494C16.2087 11.4638 16.7109 11.8446 17.0736 12.3437C17.4363 12.8429 17.6434 13.4381 17.6687 14.0546C17.6928 14.8883 17.3871 15.6977 16.818 16.3073C16.2489 16.9169 15.4623 17.2774 14.629 17.3106Z" fill="#616262"/>
</svg>
