<svg width="80" height="80" viewBox="0 0 80 80" fill="none" xmlns="http://www.w3.org/2000/svg">
<path d="M32.5174 5.06531C31.4841 5.06531 30.4908 5.47863 29.7575 6.20862L13.4577 22.505C12.7268 23.2365 11.7352 23.6478 10.7011 23.6483H3.90122C3.38055 23.6482 2.86511 23.7523 2.38531 23.9545C1.90551 24.1567 1.47106 24.4529 1.10758 24.8257C0.744101 25.1985 0.45895 25.6403 0.268946 26.1251C0.0789422 26.6099 -0.0120682 27.1278 0.00128233 27.6483L0.174613 34.2615C0.200696 35.2784 0.623067 36.2449 1.35164 36.9548C2.08021 37.6646 3.05732 38.0618 4.07455 38.0614H11.9744C13.0077 38.0614 13.9977 37.6481 14.731 36.9148L31.1641 20.4817C31.8974 19.7484 32.8874 19.3384 33.9207 19.3384H43.5006C44.0127 19.3384 44.5199 19.2375 44.993 19.0415C45.4662 18.8456 45.8961 18.5583 46.2583 18.1961C46.6204 17.834 46.9077 17.4041 47.1037 16.9309C47.2996 16.4578 47.4005 15.9506 47.4005 15.4385V8.96525C47.4005 7.93092 46.9896 6.93895 46.2583 6.20757C45.5269 5.47619 44.5349 5.06531 43.5006 5.06531H32.5174ZM65.1169 13.4085C64.0836 13.4085 63.0903 13.8185 62.357 14.5518L46.0605 30.8482C45.329 31.5785 44.3376 31.9885 43.3039 31.9882H34.1174C33.0841 31.9882 32.0908 32.4015 31.3608 33.1349L13.8344 50.6546C13.1034 51.3861 12.1119 51.7973 11.0778 51.7979H4.40121C3.36688 51.7979 2.37492 52.2088 1.64354 52.9402C0.912159 53.6715 0.501274 54.6635 0.501274 55.6978V62.3511C0.501274 64.5044 2.24791 66.251 4.40121 66.251H11.1244C12.1311 66.251 13.0977 65.8643 13.8244 65.1677L32.2741 47.488C33.0001 46.7909 33.9676 46.4016 34.9741 46.4013H44.5739C45.6072 46.4013 46.5972 45.9913 47.3305 45.2613L63.7636 28.8283C64.4969 28.0949 65.4869 27.6816 66.5202 27.6816H76.0967C76.6092 27.6821 77.1166 27.5815 77.5902 27.3857C78.0637 27.1899 78.4941 26.9027 78.8566 26.5405C79.2191 26.1783 79.5066 25.7483 79.7028 25.2749C79.899 24.8015 80 24.2941 80 23.7817V17.3084C80 16.2741 79.5891 15.2822 78.8577 14.5508C78.1264 13.8194 77.1344 13.4085 76.1001 13.4085H65.1169ZM65.1169 41.9381C64.0836 41.9381 63.0903 42.348 62.357 43.0814L46.0605 59.3778C45.3296 60.1093 44.338 60.5205 43.3039 60.5211H36.504C35.9834 60.5209 35.4679 60.625 34.9881 60.8272C34.5083 61.0294 34.0739 61.3257 33.7104 61.6985C33.3469 62.0713 33.0618 62.5131 32.8718 62.9978C32.6818 63.4826 32.5907 64.0005 32.6041 64.521L32.7774 71.1342C32.8035 72.1511 33.2259 73.1176 33.9544 73.8275C34.683 74.5374 35.6601 74.9345 36.6774 74.9342H44.5772C45.6105 74.9342 46.6005 74.5209 47.3339 73.7909L63.7669 57.3578C64.5002 56.6245 65.4902 56.2145 66.5236 56.2145H76.1001C77.1344 56.2145 78.1264 55.8036 78.8577 55.0722C79.5891 54.3408 80 53.3489 80 52.3145V45.838C80 44.8037 79.5891 43.8117 78.8577 43.0803C78.1264 42.3489 77.1344 41.9381 76.1001 41.9381H65.1169Z" fill="black"/>
</svg>
