<svg width="80" height="80" viewBox="0 0 80 80" fill="none" xmlns="http://www.w3.org/2000/svg">
<path d="M51.7867 39.9883C51.7924 41.7479 51.4502 43.4913 50.7798 45.1182C50.1094 46.7451 49.1239 48.2234 47.8802 49.4681C46.6364 50.7127 45.1589 51.6993 43.5325 52.3709C41.9061 53.0426 40.163 53.3861 38.4034 53.3817C30.5367 53.365 24.9034 46.8683 25.0367 39.7817C25.1121 36.2668 26.5682 32.923 29.0899 30.4734C31.6117 28.0238 34.9964 26.6654 38.512 26.6922C42.0275 26.7189 45.3913 28.1285 47.8755 30.6162C50.3597 33.1038 51.7648 36.4728 51.7867 39.9883ZM79.9967 39.855C80.0082 40.2364 79.94 40.616 79.7965 40.9696C79.653 41.3231 79.4374 41.6429 79.1633 41.9083C76.67 44.415 74.1722 46.915 71.67 49.4083C71.3967 49.685 71.12 49.7417 70.8367 49.5883C70.5333 49.4283 70.4233 49.185 70.51 48.7817C70.904 46.9948 71.1824 45.1844 71.3433 43.3617C71.476 41.7096 71.5072 40.0509 71.4367 38.395C71.3543 36.0234 71.053 33.6645 70.5367 31.3484C70.4942 31.233 70.4773 31.1097 70.487 30.9871C70.4968 30.8646 70.5331 30.7456 70.5933 30.6384C70.6409 30.5663 70.7025 30.5046 70.7744 30.4567C70.8462 30.4089 70.927 30.3759 71.0118 30.3597C71.0966 30.3436 71.1838 30.3446 71.2682 30.3627C71.3526 30.3807 71.4326 30.4156 71.5033 30.465C71.6063 30.5395 71.7022 30.6232 71.79 30.715L79.0367 37.9617C79.6067 38.5283 80.0033 39.1817 80 39.8517L79.9967 39.855ZM37.4201 66.665C31.1201 66.6583 25.7934 64.7816 21.0001 61.295C19.8754 60.4694 18.8146 59.5602 17.8268 58.575C15.3268 56.1039 12.8234 53.6361 10.3168 51.1717L3.88012 44.8417C2.91012 43.8917 1.93679 42.9417 0.970126 41.985C-0.339872 40.685 -0.319872 39.2183 1.01013 37.9283C1.99679 36.9684 2.97679 35.9984 3.96012 35.035C7.14456 31.9017 10.3301 28.7706 13.5168 25.6417C15.2901 23.9017 17.0401 22.1384 18.8634 20.4584C22.4051 17.1907 26.7665 14.9444 31.4834 13.9584C33.3321 13.5413 35.2215 13.3311 37.1167 13.3317C43.4167 13.3817 49.1567 15.1517 54.16 19.0751C57.3632 21.5359 59.9644 24.6934 61.7667 28.3084C63.1088 30.976 63.9666 33.8608 64.3 36.8284C65.15 44.8417 62.92 51.8883 57.48 57.8683C54.009 61.7536 49.4471 64.5021 44.39 65.755C42.1106 66.3316 39.7712 66.6349 37.4201 66.665ZM38.6334 59.5416C39.3072 59.5367 39.9804 59.4966 40.6501 59.4216C41.0741 59.3812 41.4966 59.3256 41.9167 59.255C47 58.3216 51.1167 55.7516 54.2634 51.7117C57.33 47.785 58.53 43.2383 58.1567 38.285C57.9511 35.7587 57.2356 33.3004 56.0534 31.0584C53.9634 27.015 50.7334 24.1684 46.6634 22.2384C43.01 20.5084 39.1701 20.075 35.1867 20.6917C31.1314 21.2793 27.3667 23.1371 24.4334 25.9984C21.5734 28.765 18.7434 31.5617 15.9001 34.345C14.4801 35.7417 13.0668 37.1484 11.6334 38.535C10.7201 39.4217 10.6801 40.495 11.5901 41.3917C13.3768 43.1539 15.1657 44.9128 16.9568 46.6683C19.3634 49.0317 21.7568 51.4017 24.1734 53.755C28.1201 57.5983 32.8534 59.545 38.6367 59.5483L38.6334 59.5416Z" fill="#33B5F1"/>
</svg>
