<svg width="80" height="80" viewBox="0 0 80 80" fill="none" xmlns="http://www.w3.org/2000/svg">
<path d="M59.8413 73.5344L58.2462 29.5553L55.3573 17.9605L74.6399 20.0018V73.2015L62.8609 79.9996L59.8413 73.5344Z" fill="#24386C"/>
<path d="M74.6387 19.9991L62.8597 26.8019L38.5521 21.4699L10.1004 33.0541L5.36011 19.9991L22.6769 9.99955L39.999 0L57.3163 9.99955L74.6387 19.9991Z" fill="#7589BE"/>
<path d="M5.36096 19.9989L17.14 26.8018L23.968 47.1085L47.0226 65.5549L40.0003 79.9962L22.6783 69.9961L5.36096 59.9966V19.9984" fill="#B2BFE8"/>
<path d="M47.8095 54.8843L40.0004 66.3967V79.9971L51.0812 73.6037L56.7907 65.0781" fill="#24386C"/>
<path d="M40.0049 52.8011L28.9193 33.6077L31.3071 27.2463L40.3844 22.8453L51.081 33.608L40.0049 52.8011Z" fill="#7589BE"/>
<path d="M28.9193 33.607L40.0002 40.0004V52.7977L29.7518 53.2387L23.5526 45.323L28.9193 33.607" fill="#B2BFE8"/>
<path d="M40.0004 39.9979L51.0812 33.605L58.6226 46.162L49.4965 53.7023L40.0004 52.7957V39.9979Z" fill="#24386C"/>
<path d="M51.081 73.6038L62.86 79.9977V26.8032L51.4274 20.2051L40.0001 13.607L28.5676 20.2051L17.1403 26.8032V53.2005L28.5676 59.7986L40.0001 66.3973L51.081 59.9981V73.6038ZM51.081 46.3976L40.0001 52.7963L28.9193 46.3976V33.6056L40.0001 27.2069L51.081 33.6056V46.3976Z" fill="#DC244C"/>
<path d="M40.0051 66.4016V52.7991L28.9819 46.455V60.035L40.0051 66.4016Z" fill="url(#paint0_linear_309_11887)"/>
<defs>
<linearGradient id="paint0_linear_309_11887" x1="928.049" y1="940.903" x2="-170.379" y2="940.903" gradientUnits="userSpaceOnUse">
<stop stop-color="#FF3364"/>
<stop offset="1" stop-color="#C91540" stop-opacity="0"/>
</linearGradient>
</defs>
</svg>
