<svg width="24" height="24" viewBox="0 0 24 24" fill="none" xmlns="http://www.w3.org/2000/svg">
  <!-- Eye/swoosh logo: position (1.47, 3.16), size 17.0 x 11.25 -->
  <svg x="1.47" y="3.16" width="17" height="11.25" viewBox="0 0 16.9965 11.2467" overflow="visible">
    <path d="M1.73653 4.84165C1.73653 4.84165 3.27325 2.57434 6.34157 2.33977V1.51719C2.94301 1.79013 0 4.66855 0 4.66855C0 4.66855 1.66688 9.48712 6.34157 9.92839V9.05405C2.91106 8.62248 1.73653 4.84165 1.73653 4.84165ZM6.34157 7.3152V8.116C3.74886 7.6537 3.02919 4.95863 3.02919 4.95863C3.02919 4.95863 4.27406 3.57958 6.34157 3.35594V4.23459C6.34 4.23459 6.33891 4.23411 6.33761 4.23411C5.25247 4.10389 4.40476 5.1176 4.40476 5.1176C4.40476 5.1176 4.87989 6.82408 6.34157 7.3152ZM6.34157 0V1.51719C6.44134 1.50954 6.5411 1.50306 6.64142 1.49964C10.5052 1.36942 13.0227 4.66855 13.0227 4.66855C13.0227 4.66855 10.1313 8.18449 7.11888 8.18449C6.84279 8.18449 6.58433 8.15888 6.34157 8.11586V9.05405C6.55628 9.08164 6.77252 9.0956 6.98899 9.09584C9.79223 9.09584 11.8195 7.66421 13.7824 5.96982C14.1079 6.23047 15.4403 6.86458 15.7142 7.14209C13.8478 8.70476 9.49798 9.96438 7.03195 9.96438C6.79424 9.96438 6.56596 9.95004 6.34157 9.92839V11.2467H16.9965V0H6.34157ZM6.34157 3.35594V2.33977C6.44031 2.33287 6.53981 2.32762 6.64142 2.32441C9.41986 2.23714 11.2427 4.71205 11.2427 4.71205C11.2427 4.71205 9.27386 7.44638 7.16285 7.44638C6.85905 7.44638 6.58665 7.39755 6.3415 7.31513V4.23452C7.42316 4.36522 7.64086 4.84302 8.29115 5.92707L9.73753 4.70754C9.73753 4.70754 8.68175 3.32289 6.902 3.32289C6.70847 3.32282 6.52335 3.33648 6.34157 3.35594Z" fill="#77B900"/>
  </svg>
  <!-- NVIDIA text: position (0, 16.42), size 24 x 4.42 -->
  <svg x="0" y="16.42" width="24" height="4.42" viewBox="0 0 24 4.41596" overflow="visible">
    <path d="M23.8325 3.85683C23.8325 4.11434 23.6434 4.28717 23.4196 4.28717V4.2856C23.1894 4.28717 23.0038 4.11433 23.0038 3.85689C23.0038 3.59952 23.1894 3.42717 23.4196 3.42717C23.6435 3.4271 23.8325 3.59945 23.8325 3.85683ZM24 3.85683C24 3.50338 23.7255 3.29824 23.4196 3.29824C23.1115 3.29824 22.837 3.50338 22.837 3.85683C22.837 4.21 23.1116 4.41596 23.4196 4.41596C23.7255 4.41596 24 4.21 24 3.85683ZM23.3233 3.90408H23.3854L23.5294 4.15695H23.6875L23.528 3.89343C23.6104 3.88755 23.6782 3.84836 23.6782 3.73739C23.6782 3.59945 23.5831 3.5552 23.4222 3.5552H23.1892V4.15695H23.3231L23.3233 3.90408ZM23.3233 3.8022V3.65736H23.4164C23.4671 3.65736 23.5361 3.66146 23.5361 3.72326C23.5361 3.79045 23.5004 3.8022 23.4407 3.8022H23.3233ZM20.0911 0.77833L20.8148 2.7581H19.345L20.0911 0.77833ZM19.3161 0.00744384L17.6483 4.23302H18.8259L19.0897 3.4863H21.0634L21.3131 4.23302H22.5915L20.9113 0.0068968L19.3161 0.00744384ZM15.9678 4.23459H17.1626V0.00614554L15.9676 0.00587255L15.9678 4.23459ZM7.67323 0.00587255L6.67638 3.35724L5.72146 0.00614554L4.43228 0.00587255L5.7961 4.23459H7.5174L8.89221 0.00587255H7.67323ZM12.5028 0.926649H13.0164C13.7613 0.926649 14.2432 1.26112 14.2432 2.12911C14.2432 2.99724 13.7613 3.33177 13.0164 3.33177H12.5028V0.926649ZM11.318 0.00587255V4.23459H13.255C14.287 4.23459 14.624 4.06305 14.9884 3.67826C15.2458 3.40805 15.4123 2.81498 15.4123 2.1668C15.4123 1.57223 15.2714 1.04219 15.0258 0.711955C14.5833 0.121413 13.9458 0.00587255 12.9943 0.00587255H11.318ZM0 0V4.23459H1.20492V1.01925L2.13853 1.01952C2.44766 1.01952 2.66803 1.09661 2.81689 1.25559C3.0057 1.45669 3.0828 1.78132 3.0828 2.37521V4.23459H4.25036V1.89495C4.25036 0.225141 3.18605 0 2.14468 0H0ZM9.39507 0.00587255L9.39555 4.23459H10.5898V0.00587255H9.39507Z" fill="#000"/>
  </svg>
</svg>
