<svg width="24" height="24" viewBox="0 0 24 24" fill="none" xmlns="http://www.w3.org/2000/svg">
<path d="M17.3092 6.12891C17.637 5.80632 18.1641 5.81025 18.4869 6.1377C19.7676 7.43857 20.6383 9.09494 20.9908 10.8955C21.3432 12.6958 21.1625 14.5622 20.4703 16.2588C19.778 17.9553 18.6046 19.408 17.0973 20.4307C15.5897 21.4532 13.8151 22 11.9996 22C10.1843 21.9998 8.41033 21.4533 6.90295 20.4307C5.39561 19.408 4.22221 17.9554 3.5299 16.2588C2.83775 14.5623 2.65617 12.6957 3.00842 10.8955C3.36086 9.09518 4.23193 7.4385 5.51233 6.1377C5.83517 5.8098 6.36307 5.80617 6.69104 6.12891C7.01898 6.45179 7.0227 6.97966 6.69983 7.30762C5.65071 8.37365 4.93423 9.7341 4.64416 11.2158C4.35427 12.6976 4.50378 14.2339 5.07287 15.6289C5.64213 17.024 6.60553 18.2152 7.8385 19.0518C9.07118 19.888 10.5197 20.3338 11.9996 20.334C13.4797 20.334 14.9289 19.888 16.1617 19.0518C17.3947 18.2153 18.3581 17.0239 18.9274 15.6289C19.4965 14.2338 19.6451 12.6977 19.3551 11.2158C19.0649 9.7337 18.349 8.37377 17.2994 7.30762C16.9769 6.97982 16.9818 6.4518 17.3092 6.12891Z" fill="#101828"/>
<path d="M12.0006 2C12.4606 2.00011 12.8334 2.37299 12.8336 2.83301V12.0918C12.8336 12.552 12.4608 12.9257 12.0006 12.9258C11.5405 12.9257 11.1676 12.552 11.1676 12.0918V2.83301C11.1678 2.373 11.5406 2.00013 12.0006 2Z" fill="#101828"/>
</svg>