<svg width="24" height="24" viewBox="0 0 24 24" fill="none" xmlns="http://www.w3.org/2000/svg">
<path fill-rule="evenodd" clip-rule="evenodd" d="M13.75 5.5C14.1642 5.5 14.5 5.83579 14.5 6.25V7.04297C15.7559 7.25378 16.7441 8.2441 16.9551 9.5H17.75C18.1642 9.5 18.5 9.83579 18.5 10.25C18.5 10.6642 18.1642 11 17.75 11H17V13H17.75C18.1642 13 18.5 13.3358 18.5 13.75C18.5 14.1642 18.1642 14.5 17.75 14.5H16.9561C16.7452 15.7559 15.7558 16.7441 14.5 16.9551V17.75C14.5 18.1642 14.1642 18.5 13.75 18.5C13.3358 18.5 13 18.1642 13 17.75V17H11V17.75C11 18.1642 10.6642 18.5 10.25 18.5C9.83579 18.5 9.5 18.1642 9.5 17.75V16.9551C8.24415 16.7441 7.25482 15.7559 7.04395 14.5H6.25C5.83579 14.5 5.5 14.1642 5.5 13.75C5.5 13.3358 5.83579 13 6.25 13H7V11H6.25C5.83579 11 5.5 10.6642 5.5 10.25C5.5 9.83579 5.83579 9.5 6.25 9.5H7.04199C7.25279 8.24376 8.24374 7.25174 9.5 7.04102V6.25C9.5 5.83579 9.83579 5.5 10.25 5.5C10.6642 5.5 11 5.83579 11 6.25V7H13V6.25C13 5.83579 13.3358 5.5 13.75 5.5ZM10 8.5C9.17157 8.5 8.5 9.17157 8.5 10V14C8.5 14.8284 9.17157 15.5 10 15.5H14C14.8284 15.5 15.5 14.8284 15.5 14V10C15.5 9.17157 14.8284 8.5 14 8.5H10Z" fill="#101828"/>
<path fill-rule="evenodd" clip-rule="evenodd" d="M17.2568 2.00684C19.8989 2.14053 22 4.32472 22 7V17L21.9932 17.2568C21.8595 19.8989 19.6753 22 17 22H7C4.23858 22 2 19.7614 2 17V7C2 4.32472 4.10111 2.14053 6.74316 2.00684L7 2H17L17.2568 2.00684ZM7 3.5C5.067 3.5 3.5 5.067 3.5 7V17C3.5 18.933 5.067 20.5 7 20.5H17C18.933 20.5 20.5 18.933 20.5 17V7C20.5 5.067 18.933 3.5 17 3.5H7Z" fill="#101828"/>
</svg>
