<svg width="24" height="24" viewBox="0 0 24 24" fill="none" xmlns="http://www.w3.org/2000/svg">
<path d="M14.4773 14.4772C14.7683 14.1862 15.24 14.1862 15.5311 14.4772L19.5094 18.4546V15.7503C19.5097 15.339 19.8432 15.0051 20.2546 15.0051C20.6659 15.0053 20.9996 15.3391 20.9999 15.7503V20.2275C21.001 20.2573 20.9984 20.2869 20.996 20.3167C20.9953 20.3245 20.9949 20.3323 20.994 20.34C20.9759 20.5022 20.9086 20.6602 20.7844 20.7844C20.6602 20.9086 20.5022 20.9758 20.34 20.994C20.3323 20.9949 20.3245 20.9953 20.3167 20.996C20.2872 20.9983 20.258 21.001 20.2284 20.9998H15.7503C15.3391 20.9996 15.0053 20.6659 15.0051 20.2546C15.0051 19.8432 15.339 19.5097 15.7503 19.5094H18.4547L14.4773 15.531C14.1862 15.24 14.1862 14.7683 14.4773 14.4772Z" fill="#101828"/>
<path d="M8.47089 14.4772C8.76192 14.1862 9.23463 14.1862 9.52565 14.4772C9.81598 14.7682 9.81622 15.2402 9.52565 15.531L5.54727 19.5094H8.24772C8.65912 19.5096 8.99293 19.8432 8.99293 20.2546C8.99277 20.6659 8.65902 20.9996 8.24772 20.9998H3.76574C3.7443 21.0004 3.72312 20.9982 3.7017 20.9969C3.6824 20.9958 3.66332 20.9946 3.64445 20.9921C3.48881 20.9709 3.33815 20.9038 3.21847 20.7844C3.1079 20.6739 3.04028 20.5365 3.01373 20.3934C3.00522 20.3484 3.00016 20.3021 3.00014 20.2546V15.7503C3.0004 15.339 3.33394 15.0051 3.74536 15.0051C4.15661 15.0053 4.49033 15.3391 4.49058 15.7503V18.4576L8.47089 14.4772Z" fill="#101828"/>
<path d="M8.24772 3.00012C8.65912 3.00032 8.99293 3.33389 8.99293 3.74534C8.99274 4.15662 8.659 4.49036 8.24772 4.49056H5.54436L9.52565 8.47087C9.8163 8.76193 9.81655 9.23472 9.52565 9.52563C9.23475 9.81653 8.76195 9.81628 8.47089 9.52563L4.49058 5.54434V8.24769C4.49038 8.65898 4.15665 8.99272 3.74536 8.99291C3.33391 8.99291 3.00034 8.6591 3.00014 8.24769V3.74534C3.00014 3.69396 3.0048 3.64339 3.0147 3.59494C3.02032 3.56742 3.03136 3.54169 3.03993 3.51537C3.0459 3.49699 3.04996 3.47802 3.05739 3.46006C3.06688 3.4372 3.07876 3.41573 3.09039 3.39408C3.12408 3.33129 3.16548 3.27144 3.21847 3.21845C3.27146 3.16546 3.33131 3.12406 3.3941 3.09036C3.41575 3.07873 3.43722 3.06686 3.46008 3.05737C3.47805 3.04994 3.49701 3.04588 3.51539 3.03991C3.54172 3.03134 3.56744 3.0203 3.59496 3.01468C3.61911 3.00974 3.64377 3.00654 3.66871 3.004C3.6938 3.00145 3.71959 3.00012 3.74536 3.00012H8.24772Z" fill="#101828"/>
<path d="M20.2527 3.00012L20.2537 3.00109L20.2546 3.00012L20.2556 3.00109H20.2585C20.3047 3.00135 20.3496 3.00543 20.3934 3.01371C20.3957 3.01412 20.3979 3.01424 20.4002 3.01468C20.4122 3.01706 20.4234 3.0224 20.4351 3.02535C20.5627 3.05678 20.6849 3.11886 20.7844 3.21845C20.9038 3.33813 20.971 3.48878 20.9921 3.64442C20.9946 3.6633 20.9958 3.68238 20.997 3.70167C20.9982 3.72277 21.0004 3.74363 20.9999 3.76475V8.24769C20.9997 8.659 20.666 8.99274 20.2546 8.99291C19.8432 8.99291 19.5096 8.6591 19.5094 8.24769V5.54628L15.5311 9.52563C15.2402 9.8162 14.7683 9.81596 14.4773 9.52563C14.1862 9.2346 14.1862 8.7619 14.4773 8.47087L18.4576 4.49056H15.7503C15.3391 4.49031 15.0053 4.15659 15.0051 3.74534C15.0051 3.33392 15.339 3.00037 15.7503 3.00012H20.2527Z" fill="#101828"/>
</svg>