<svg width="24" height="24" viewBox="0 0 24 24" fill="none" xmlns="http://www.w3.org/2000/svg">
<path fill-rule="evenodd" clip-rule="evenodd" d="M11.9027 1.96973C13.7101 1.9698 15.4495 2.65909 16.7367 3.89453C18.0249 5.13134 18.7551 6.81629 18.7552 8.5791C18.7552 11.8808 19.491 13.9479 20.1829 15.166C20.5301 15.7771 20.8711 16.1829 21.1136 16.4287C21.2349 16.5516 21.3322 16.6352 21.3939 16.6846C21.4244 16.7089 21.4466 16.725 21.4583 16.7334C21.4635 16.7371 21.4671 16.7395 21.4681 16.7402L21.4622 16.7373L21.4613 16.7363C21.7417 16.9158 21.8691 17.2585 21.7757 17.5781C21.6822 17.8978 21.3891 18.1172 21.056 18.1172H16.0511C16.044 18.1736 16.0361 18.2341 16.0257 18.2979C15.9661 18.6651 15.8441 19.1666 15.5872 19.6768C15.3285 20.1905 14.9267 20.7251 14.3099 21.1289C13.6893 21.5352 12.8954 21.7793 11.9027 21.7793C10.91 21.7793 10.1161 21.5352 9.49545 21.1289C8.87875 20.7251 8.47781 20.1905 8.21908 19.6768C7.96213 19.1665 7.83928 18.6652 7.77963 18.2979C7.76927 18.2341 7.76137 18.1736 7.75424 18.1172H2.74838C2.41538 18.1171 2.12218 17.8977 2.02865 17.5781C1.93538 17.2586 2.06379 16.9158 2.34408 16.7363L2.34115 16.7383H2.3392C2.34081 16.7372 2.34397 16.7356 2.34701 16.7334C2.35875 16.725 2.38024 16.7088 2.41049 16.6846C2.47215 16.6352 2.57031 16.5518 2.69174 16.4287C2.93422 16.1829 3.2753 15.777 3.6224 15.166C4.31432 13.9479 5.0501 11.8807 5.05014 8.5791C5.05023 6.81628 5.77951 5.13134 7.06772 3.89453C8.35489 2.65882 10.095 1.96978 11.9027 1.96973ZM9.27182 18.1172C9.31803 18.3741 9.4028 18.6919 9.55893 19.002C9.72575 19.3332 9.96653 19.6441 10.3177 19.874C10.6651 20.1014 11.1654 20.2793 11.9027 20.2793C12.6402 20.2793 13.1412 20.1015 13.4886 19.874C13.8397 19.6441 14.0806 19.3331 14.2474 19.002C14.4034 18.692 14.4874 18.374 14.5335 18.1172H9.27182ZM11.9027 3.46973C10.4737 3.46978 9.10839 4.01507 8.10678 4.97656C7.10621 5.93721 6.55023 7.23427 6.55014 8.5791C6.5501 12.1124 5.75971 14.4399 4.92611 15.9072C4.7755 16.1723 4.62351 16.4081 4.47592 16.6172H19.3285C19.1809 16.4082 19.0288 16.1722 18.8783 15.9072C18.0447 14.4399 17.2552 12.1122 17.2552 8.5791C17.2551 7.2343 16.6991 5.9372 15.6986 4.97656C14.697 4.01507 13.3317 3.4698 11.9027 3.46973Z" fill="#101828"/>
</svg>
