<svg width="24" height="24" viewBox="0 0 24 24" fill="none" xmlns="http://www.w3.org/2000/svg">
<path fill-rule="evenodd" clip-rule="evenodd" d="M14.6543 3.76556C16.5449 3.13537 19.1273 2.94577 21.6904 4.77631C21.8871 4.91704 22.0038 5.14483 22.0039 5.38666V19.9287C22.0037 20.2093 21.8472 20.4672 21.5977 20.5956C21.3481 20.7239 21.0468 20.7019 20.8184 20.539C18.7248 19.0438 16.6475 19.0422 15.0654 19.4189C14.2694 19.6085 13.6023 19.8937 13.1357 20.1318C12.9035 20.2503 12.7225 20.3563 12.6025 20.4306C12.5428 20.4676 12.4979 20.4968 12.4697 20.5156C12.4559 20.5248 12.4461 20.5322 12.4404 20.5361C12.4382 20.5375 12.4354 20.5374 12.4346 20.538C12.1743 20.723 11.8256 20.7241 11.5654 20.539C11.5644 20.5385 11.5617 20.5375 11.5596 20.5361C11.5538 20.5321 11.5438 20.5246 11.5303 20.5156C11.5021 20.4967 11.457 20.4675 11.3975 20.4306C11.2774 20.3563 11.0963 20.2502 10.8643 20.1318C10.3976 19.8937 9.73052 19.6084 8.93457 19.4189C7.35246 19.0423 5.27519 19.0436 3.18164 20.539C2.95331 20.7017 2.65275 20.7237 2.40332 20.5956C2.15402 20.4671 1.99634 20.2091 1.99609 19.9287V5.38666C1.99623 5.14471 2.11372 4.91702 2.31055 4.77631C4.87355 2.94567 7.45509 3.13548 9.3457 3.76556C10.2849 4.07865 11.063 4.50253 11.6055 4.84564C11.754 4.9396 11.8867 5.02808 12 5.10736C12.1133 5.028 12.2458 4.93973 12.3945 4.84564C12.9369 4.50251 13.715 4.07875 14.6543 3.76556ZM8.87109 5.18939C7.37174 4.68972 5.45209 4.53834 3.49609 5.7851V18.5976C5.62392 17.5202 7.68917 17.5797 9.28223 17.9589C10.0628 18.1448 10.7327 18.4101 11.25 18.6533V6.41693C11.1351 6.33339 10.985 6.2279 10.8037 6.11322C10.3341 5.81619 9.66614 5.45444 8.87109 5.18939ZM20.5039 5.7851C18.5479 4.53861 16.6282 4.68963 15.1289 5.18939C14.3337 5.45453 13.6658 5.81618 13.1963 6.11322C13.0148 6.22804 12.865 6.33335 12.75 6.41693V18.6533C13.2673 18.4101 13.9371 18.1449 14.7178 17.9589C16.3107 17.5796 18.3761 17.5204 20.5039 18.5976V5.7851Z" fill="#101828"/>
</svg>
