<svg width="24" height="24" viewBox="0 0 24 24" fill="none" xmlns="http://www.w3.org/2000/svg">
<path fill-rule="evenodd" clip-rule="evenodd" d="M15.7275 2.37207C16.1416 2.37227 16.4775 2.70798 16.4775 3.12207V4.25H18.2354C19.6308 4.2505 20.7625 5.3818 20.7627 6.77734V19.2227C20.7625 20.6182 19.6308 21.7495 18.2354 21.75H5.79004C4.39433 21.7498 3.26293 20.6184 3.2627 19.2227V6.77734C3.26293 5.38163 4.39433 4.25023 5.79004 4.25H7.76758V3.12207C7.76758 2.70798 8.10353 2.37227 8.51758 2.37207C8.93179 2.37207 9.26758 2.70786 9.26758 3.12207V4.25H14.9775V3.12207C14.9775 2.70786 15.3133 2.37207 15.7275 2.37207ZM4.7627 11.1602V19.2227C4.76293 19.7899 5.22276 20.2498 5.79004 20.25H18.2354C18.8024 20.2495 19.2625 19.7898 19.2627 19.2227V11.1602H4.7627ZM5.79004 5.75C5.22276 5.75023 4.76293 6.21006 4.7627 6.77734V9.66016H19.2627V6.77734C19.2625 6.21022 18.8024 5.7505 18.2354 5.75H16.4775V6.62207C16.4775 7.03613 16.1416 7.37187 15.7275 7.37207C15.3134 7.37207 14.9776 7.03625 14.9775 6.62207V5.75H9.26758V6.62207C9.26754 7.03625 8.93177 7.37207 8.51758 7.37207C8.10356 7.37187 7.76762 7.03613 7.76758 6.62207V5.75H5.79004Z" fill="#101828"/>
</svg>
