<svg width="24" height="24" viewBox="0 0 24 24" fill="none" xmlns="http://www.w3.org/2000/svg">
<path fill-rule="evenodd" clip-rule="evenodd" d="M9.53027 13.085C10.2874 13.0852 10.9021 13.6989 10.9023 14.4561V20.6035C10.9023 21.3608 10.2875 21.9754 9.53027 21.9756H3.38281C2.62557 21.9754 2.01177 21.3608 2.01172 20.6035V14.4561C2.01192 13.6989 2.62567 13.0852 3.38281 13.085H9.53027ZM3.51172 20.4756H9.40234V14.585H3.51172V20.4756Z" fill="#101828"/>
<path fill-rule="evenodd" clip-rule="evenodd" d="M20.6152 13.085C21.3725 13.085 21.9871 13.6988 21.9873 14.4561V20.6035C21.9873 21.3609 21.3726 21.9755 20.6152 21.9756H14.4678C13.7105 21.9754 13.0967 21.3608 13.0967 20.6035V14.4561C13.0969 13.6989 13.7106 13.0852 14.4678 13.085H20.6152ZM14.5967 20.4756H20.4873V14.585H14.5967V20.4756Z" fill="#101828"/>
<path fill-rule="evenodd" clip-rule="evenodd" d="M9.53027 2C10.2874 2.00022 10.9021 2.61396 10.9023 3.37109V9.51855C10.9021 10.2757 10.2874 10.8904 9.53027 10.8906H3.38281C2.62568 10.8904 2.01194 10.2757 2.01172 9.51855V3.37109C2.01192 2.61395 2.62567 2.00021 3.38281 2H9.53027ZM3.51172 9.39062H9.40234V3.5H3.51172V9.39062Z" fill="#101828"/>
<path fill-rule="evenodd" clip-rule="evenodd" d="M20.6152 2C21.3725 2.00007 21.9871 2.61387 21.9873 3.37109V9.51855C21.9871 10.2758 21.3725 10.8906 20.6152 10.8906H14.4678C13.7106 10.8904 13.0969 10.2757 13.0967 9.51855V3.37109C13.0969 2.61395 13.7106 2.00021 14.4678 2H20.6152ZM14.5967 9.39062H20.4873V3.5H14.5967V9.39062Z" fill="#101828"/>
</svg>