<svg width="24" height="24" viewBox="0 0 24 24" fill="none" xmlns="http://www.w3.org/2000/svg">
<path d="M14.8037 9.80273C15.0966 9.51033 15.5715 9.51 15.8643 9.80273C16.1568 10.0955 16.1566 10.5704 15.8643 10.8633L12.2861 14.4404C11.6678 15.0587 10.6662 15.0587 10.0479 14.4404L8.13672 12.5303C7.84388 12.2374 7.84399 11.7626 8.13672 11.4697C8.42964 11.1772 8.90448 11.1769 9.19727 11.4697L11.1084 13.3799C11.1409 13.4123 11.1931 13.4123 11.2256 13.3799L14.8037 9.80273Z" fill="#101828"/>
<path fill-rule="evenodd" clip-rule="evenodd" d="M12 2C17.5228 2 22 6.47715 22 12C22 17.5228 17.5228 22 12 22C6.47715 22 2 17.5228 2 12C2 6.47715 6.47715 2 12 2ZM12 3.5C7.30558 3.5 3.5 7.30558 3.5 12C3.5 16.6944 7.30558 20.5 12 20.5C16.6944 20.5 20.5 16.6944 20.5 12C20.5 7.30558 16.6944 3.5 12 3.5Z" fill="#101828"/>
</svg>