<svg width="24" height="24" viewBox="0 0 24 24" fill="none" xmlns="http://www.w3.org/2000/svg">
<path d="M10.25 19.5C10.6642 19.5 11 19.8358 11 20.25C11 20.6642 10.6642 21 10.25 21H3.75C3.33579 21 3 20.6642 3 20.25C3 19.8358 3.33579 19.5 3.75 19.5H10.25Z" fill="#101828"/>
<path d="M20.25 19.5C20.6642 19.5 21 19.8358 21 20.25C21 20.6642 20.6642 21 20.25 21H13.75C13.3358 21 13 20.6642 13 20.25C13 19.8358 13.3358 19.5 13.75 19.5H20.25Z" fill="#101828"/>
<path d="M10.25 14C10.6642 14 11 14.3358 11 14.75C11 15.1642 10.6642 15.5 10.25 15.5H3.75C3.33579 15.5 3 15.1642 3 14.75C3 14.3358 3.33579 14 3.75 14H10.25Z" fill="#101828"/>
<path d="M20.25 14C20.6642 14 21 14.3358 21 14.75C21 15.1642 20.6642 15.5 20.25 15.5H13.75C13.3358 15.5 13 15.1642 13 14.75C13 14.3358 13.3358 14 13.75 14H20.25Z" fill="#101828"/>
<path d="M10.25 8.5C10.6642 8.5 11 8.83579 11 9.25C11 9.66421 10.6642 10 10.25 10H3.75C3.33579 10 3 9.66421 3 9.25C3 8.83579 3.33579 8.5 3.75 8.5H10.25Z" fill="#101828"/>
<path d="M20.25 8.5C20.6642 8.5 21 8.83579 21 9.25C21 9.66421 20.6642 10 20.25 10H13.75C13.3358 10 13 9.66421 13 9.25C13 8.83579 13.3358 8.5 13.75 8.5H20.25Z" fill="#101828"/>
<path d="M10.25 3C10.6642 3 11 3.33579 11 3.75C11 4.16421 10.6642 4.5 10.25 4.5H3.75C3.33579 4.5 3 4.16421 3 3.75C3 3.33579 3.33579 3 3.75 3H10.25Z" fill="#101828"/>
<path d="M20.25 3C20.6642 3 21 3.33579 21 3.75C21 4.16421 20.6642 4.5 20.25 4.5H13.75C13.3358 4.5 13 4.16421 13 3.75C13 3.33579 13.3358 3 13.75 3H20.25Z" fill="#101828"/>
</svg>