<svg width="24" height="24" viewBox="0 0 24 24" fill="none" xmlns="http://www.w3.org/2000/svg">
<path d="M7.25586 14.6748C7.57339 14.409 8.04657 14.4511 8.3125 14.7686L10.8252 17.7686C11.0583 18.0471 11.0583 18.4529 10.8252 18.7315L8.3125 21.7315C8.04656 22.049 7.57341 22.0911 7.25586 21.8252C6.93843 21.5593 6.8964 21.0861 7.16211 20.7686L8.64258 19H2.75C2.33579 19 2 18.6642 2 18.25C2.00005 17.8358 2.33582 17.5 2.75 17.5H8.64258L7.16211 15.7315C6.89644 15.4139 6.93841 14.9407 7.25586 14.6748Z" fill="#101828"/>
<path d="M6.53906 4.40822C6.86588 4.15404 7.33742 4.2125 7.5918 4.53908L18.0918 18.0391C18.346 18.3659 18.2875 18.8374 17.9609 19.0918C17.6341 19.346 17.1626 19.2876 16.9082 18.961L6.4082 5.46095C6.15402 5.13413 6.21247 4.66259 6.53906 4.40822Z" fill="#101828"/>
<path d="M15.6875 2.26857C15.9534 1.95111 16.4266 1.90899 16.7441 2.17482C17.0616 2.44069 17.1036 2.91391 16.8379 3.23146L15.3574 5.00002H21.25C21.6642 5.00002 21.9999 5.33585 22 5.75002C22 6.16423 21.6642 6.50002 21.25 6.50002H15.3574L16.8379 8.26857C17.1036 8.58611 17.0616 9.05932 16.7441 9.32521C16.4266 9.5911 15.9534 9.54899 15.6875 9.23146L13.1748 6.23146C12.9417 5.9529 12.9417 5.54712 13.1748 5.26857L15.6875 2.26857Z" fill="#101828"/>
</svg>
