<svg width="24" height="24" viewBox="0 0 24 24" fill="none" xmlns="http://www.w3.org/2000/svg">
<path fill-rule="evenodd" clip-rule="evenodd" d="M18.4619 2.94238C19.1503 2.9425 19.8101 3.21636 20.2969 3.70312C20.7836 4.18989 21.0575 4.84971 21.0576 5.53809V13.8467C21.0575 14.535 20.7836 15.1949 20.2969 15.6816C19.8101 16.1684 19.1503 16.4423 18.4619 16.4424H16.4424V18.4619C16.4421 19.8953 15.2801 21.0573 13.8467 21.0576H5.53809C4.10463 21.0574 2.94263 19.8954 2.94238 18.4619V10.1533C2.94267 8.7199 4.10465 7.55786 5.53809 7.55762H7.55762V5.53809C7.55774 4.84974 7.83164 4.18988 8.31836 3.70312C8.80511 3.21638 9.46497 2.94252 10.1533 2.94238H18.4619ZM5.53809 9.05762C4.93308 9.05786 4.44267 9.54832 4.44238 10.1533V18.4619C4.44263 19.0669 4.93305 19.5574 5.53809 19.5576H13.8467C14.4517 19.5573 14.9421 19.0669 14.9424 18.4619V10.1533C14.9421 9.54835 14.4517 9.0579 13.8467 9.05762H5.53809ZM10.1533 4.44238C9.86279 4.44252 9.58435 4.55823 9.37891 4.76367C9.17349 4.96913 9.05774 5.24757 9.05762 5.53809V7.55762H13.8467C15.2801 7.5579 16.4421 8.71992 16.4424 10.1533V14.9424H18.4619C18.7524 14.9423 19.0309 14.8265 19.2363 14.6211C19.4418 14.4156 19.5575 14.1372 19.5576 13.8467V5.53809C19.5575 5.24753 19.4418 4.96913 19.2363 4.76367C19.0309 4.55821 18.7525 4.4425 18.4619 4.44238H10.1533Z" fill="#101828"/>
</svg>