<svg width="24" height="24" viewBox="0 0 24 24" fill="none" xmlns="http://www.w3.org/2000/svg">
<path fill-rule="evenodd" clip-rule="evenodd" d="M15.083 8.16653C15.4979 8.16669 15.8344 8.50305 15.8344 8.91796V15.083C15.8343 15.4978 15.4978 15.8343 15.083 15.8344H8.91796C8.50305 15.8344 8.16669 15.4979 8.16653 15.083V8.91796C8.16653 8.50295 8.50295 8.16653 8.91796 8.16653H15.083ZM9.66939 14.3316H14.3316V9.66939H9.66939V14.3316Z" fill="#111827"/>
<path fill-rule="evenodd" clip-rule="evenodd" d="M14.0557 2.00049C14.4705 2.00075 14.8071 2.33707 14.8071 2.75192V4.05323H18.169C18.6407 4.05323 19.0936 4.24123 19.4272 4.57473C19.7606 4.90825 19.9486 5.36042 19.9487 5.832V9.19387H21.2491C21.6638 9.19424 22.0005 9.53053 22.0005 9.94531C22.0002 10.3599 21.6636 10.6964 21.2491 10.6967H19.9487V13.3042H21.2491C21.6638 13.3046 22.0005 13.6409 22.0005 14.0557C22.0002 14.4702 21.6636 14.8067 21.2491 14.8071H19.9487V18.1631C19.9487 18.6349 19.7609 19.0877 19.4272 19.4214C19.0936 19.7549 18.6408 19.9429 18.169 19.9429H14.8071V21.2491C14.8067 21.6636 14.4702 22.0002 14.0557 22.0005C13.6409 22.0005 13.3046 21.6638 13.3042 21.2491V19.9429H10.6967V21.2491C10.6964 21.6636 10.3599 22.0002 9.94531 22.0005C9.53053 22.0005 9.19424 21.6638 9.19387 21.2491V19.9429H5.83787C5.36634 19.9427 4.91408 19.7547 4.5806 19.4214C4.24711 19.0877 4.0591 18.6348 4.0591 18.1631V14.8071H2.75192C2.33707 14.8071 2.00075 14.4705 2.00049 14.0557C2.00049 13.6407 2.33692 13.3042 2.75192 13.3042H4.0591V10.6967H2.75192C2.33708 10.6967 2.00076 10.3601 2.00049 9.94531C2.00049 9.5303 2.33692 9.19387 2.75192 9.19387H4.0591V5.832C4.0592 5.36036 4.24711 4.90826 4.5806 4.57473C4.9141 4.24122 5.36624 4.05337 5.83787 4.05323H9.19387V2.75192C9.19387 2.33692 9.5303 2.00049 9.94531 2.00049C10.3601 2.00076 10.6967 2.33708 10.6967 2.75192V4.05323H13.3042V2.75192C13.3042 2.33692 13.6407 2.00049 14.0557 2.00049ZM5.83787 5.55609C5.76483 5.55623 5.69483 5.58563 5.64317 5.6373C5.59152 5.68899 5.56206 5.75894 5.56196 5.832V18.1631C5.56196 18.2362 5.59152 18.307 5.64317 18.3588C5.69481 18.4103 5.76492 18.4398 5.83787 18.44H18.169C18.2422 18.44 18.3129 18.4105 18.3647 18.3588C18.4164 18.307 18.4459 18.2363 18.4459 18.1631V14.132C18.4433 14.1069 18.442 14.0814 18.442 14.0557C18.442 14.0297 18.4433 14.0037 18.4459 13.9784V10.0216C18.4433 9.99652 18.442 9.97108 18.442 9.94531C18.442 9.9193 18.4433 9.89333 18.4459 9.86801V5.832C18.4458 5.759 18.4162 5.68897 18.3647 5.6373C18.3129 5.58565 18.2421 5.55609 18.169 5.55609H14.1124C14.0937 5.5575 14.0748 5.55901 14.0557 5.55902C14.0363 5.55902 14.0169 5.55752 13.9979 5.55609H10.0021C9.98331 5.5575 9.96441 5.55901 9.94531 5.55902C9.92597 5.55902 9.90654 5.55752 9.88758 5.55609H5.83787Z" fill="#111827"/>
</svg>