<svg width="24" height="24" viewBox="0 0 24 24" fill="none" xmlns="http://www.w3.org/2000/svg">
<path d="M12.5 12.5C12.9142 12.5 13.25 12.8358 13.25 13.25C13.25 13.6642 12.9142 14 12.5 14H5.25C4.83579 14 4.5 13.6642 4.5 13.25C4.5 12.8358 4.83579 12.5 5.25 12.5H12.5Z" fill="#101828"/>
<path fill-rule="evenodd" clip-rule="evenodd" d="M15.9375 6.54688C16.3055 6.48386 16.6935 6.48391 17.0615 6.54688L17.0811 6.55078C17.1263 6.55857 17.1686 6.57861 17.2012 6.60938C17.2337 6.64008 17.2552 6.67989 17.2637 6.72266L17.375 7.29199C17.6313 7.38252 17.8677 7.51279 18.0801 7.67773L18.6553 7.48438C18.6986 7.47005 18.7458 7.46814 18.79 7.47949C18.8342 7.49091 18.8736 7.51481 18.9033 7.54785L18.916 7.56152C19.1612 7.83456 19.3521 8.14784 19.4795 8.48535L19.4863 8.50293C19.5019 8.54388 19.5039 8.58879 19.4922 8.63086C19.4804 8.67287 19.4548 8.71 19.4199 8.73828L18.957 9.11328C18.979 9.24002 18.9902 9.37155 18.9902 9.50098C18.9902 9.63026 18.979 9.76043 18.957 9.8877L19.4199 10.2627C19.4914 10.321 19.5177 10.4139 19.4873 10.4971L19.4814 10.5146C19.3534 10.8518 19.1642 11.162 18.918 11.4375L18.9053 11.4521C18.8756 11.4854 18.8354 11.5091 18.791 11.5205C18.7466 11.5319 18.6996 11.5301 18.6562 11.5156L18.0811 11.3223C17.8688 11.4871 17.6321 11.6159 17.376 11.707L17.2646 12.2764C17.2563 12.3192 17.2347 12.3589 17.2021 12.3896C17.1695 12.4204 17.1273 12.4414 17.082 12.4492L17.0635 12.4521C16.6918 12.5155 16.3111 12.5155 15.9395 12.4521L15.9199 12.4492C15.8746 12.4414 15.8324 12.4204 15.7998 12.3896C15.7674 12.3589 15.7457 12.3191 15.7373 12.2764L15.625 11.7051C15.3709 11.6152 15.1357 11.4846 14.9248 11.3203L14.3457 11.5156C14.3024 11.53 14.2552 11.5319 14.2109 11.5205C14.1668 11.5091 14.1273 11.4851 14.0977 11.4521L14.085 11.4375C13.8387 11.1633 13.6496 10.8518 13.5215 10.5146L13.5146 10.4971C13.499 10.4561 13.497 10.4113 13.5088 10.3691C13.5206 10.327 13.5461 10.2891 13.5811 10.2607L14.0479 9.88184C14.0259 9.75723 14.0156 9.62861 14.0156 9.5C14.0156 9.37259 14.0259 9.24326 14.0479 9.11719L13.5791 8.73828C13.5079 8.67994 13.4819 8.58661 13.5137 8.50293L13.5195 8.48535C13.6474 8.14805 13.8382 7.83485 14.083 7.56152L14.0957 7.54785C14.1254 7.5146 14.1656 7.49087 14.21 7.47949C14.2543 7.46813 14.3014 7.46986 14.3447 7.48438L14.9238 7.67969C15.1337 7.51647 15.3702 7.38617 15.624 7.29492L15.7354 6.72266C15.7438 6.67985 15.7663 6.64011 15.7988 6.60938C15.8314 6.57873 15.8737 6.55854 15.9189 6.55078L15.9375 6.54688ZM16.501 8.25488C15.8136 8.25497 15.2568 8.78251 15.2568 9.43359C15.2569 10.0846 15.8136 10.6122 16.501 10.6123C17.1884 10.6123 17.746 10.0847 17.7461 9.43359C17.7461 8.78245 17.1884 8.25488 16.501 8.25488Z" fill="#101828"/>
<path d="M11.25 9.5C11.6642 9.5 12 9.83579 12 10.25C12 10.6642 11.6642 11 11.25 11H5.25C4.83579 11 4.5 10.6642 4.5 10.25C4.5 9.83579 4.83579 9.5 5.25 9.5H11.25Z" fill="#101828"/>
<path d="M8.75 6.5C9.16421 6.5 9.5 6.83579 9.5 7.25C9.5 7.66421 9.16421 8 8.75 8H5.25C4.83579 8 4.5 7.66421 4.5 7.25C4.5 6.83579 4.83579 6.5 5.25 6.5H8.75Z" fill="#101828"/>
<path fill-rule="evenodd" clip-rule="evenodd" d="M21.0518 3C21.5754 3 22 3.46491 22 4.03809V16.9619L21.9951 17.0684C21.9465 17.5916 21.5426 18 21.0518 18H15.3213L15.6426 21.75H17V23H7V21.75H8.35742L8.67871 18H2.94824L2.85156 17.9951C2.37326 17.9422 2 17.4994 2 16.9619V4.03809C2 3.50059 2.37326 3.05783 2.85156 3.00488L2.94824 3H21.0518ZM9.88379 21.5H14.1162L13.8379 18.25H10.1621L9.88379 21.5ZM3.5 16.5H20.5V4.5H3.5V16.5Z" fill="#101828"/>
</svg>
