<svg width="24" height="24" viewBox="0 0 24 24" fill="none" xmlns="http://www.w3.org/2000/svg">
<path d="M16.0913 13.8184C16.3421 13.8185 16.5453 14.0216 16.5454 14.2725V16.0908H19.2681C19.5191 16.0909 19.7231 16.2949 19.7231 16.5459C19.7229 16.7967 19.5189 16.9999 19.2681 17H16.5454C16.5454 17.2509 16.3422 17.4539 16.0913 17.4541C15.8403 17.4541 15.6362 17.251 15.6362 17L15.5454 16.9912C15.3383 16.9489 15.1824 16.7654 15.1821 16.5459C15.1821 16.3262 15.3381 16.1419 15.5454 16.0996L15.6362 16.0908V14.2725C15.6364 14.0215 15.8403 13.8184 16.0913 13.8184Z" fill="#101828"/>
<path fill-rule="evenodd" clip-rule="evenodd" d="M12.3433 2C12.7198 2 13.0258 2.30515 13.0259 2.68164V3.42969H14.4604C15.6179 3.42987 16.5562 4.36794 16.5562 5.52539V11.1123C19.3508 11.3484 21.5454 13.6902 21.5454 16.5459C21.5452 19.558 19.1035 21.9998 16.0913 22C13.4118 22 11.1849 20.0675 10.7251 17.5205H4.56104C3.40367 17.5203 2.46542 16.5812 2.46533 15.4238V8.51953C2.45845 8.48081 2.45464 8.44107 2.45459 8.40039C2.45459 8.35932 2.45837 8.31837 2.46533 8.2793V5.52539C2.46533 4.36793 3.40362 3.42986 4.56104 3.42969H5.99561V2.68164C5.99568 2.30515 6.30171 2 6.67822 2C7.05441 2.00037 7.35979 2.30538 7.35986 2.68164V3.42969H11.6616V2.68164C11.6617 2.30541 11.9671 2.00042 12.3433 2ZM16.0913 12.4541C13.832 12.4541 12.0005 14.2866 12.0005 16.5459C12.0007 18.805 13.8321 20.6367 16.0913 20.6367C18.3503 20.6365 20.1819 18.8049 20.1821 16.5459C20.1821 14.2867 18.3505 12.4543 16.0913 12.4541ZM3.82861 15.4238C3.8287 15.8281 4.15679 16.1561 4.56104 16.1562H10.6519C10.8303 13.6262 12.733 11.5728 15.1929 11.165V9.08203H3.82861V15.4238ZM4.56104 4.79297C4.15673 4.79314 3.82861 5.12105 3.82861 5.52539V7.71777H15.1929V5.52539C15.1929 5.12105 14.8647 4.79315 14.4604 4.79297H13.0259V5.40918C13.0256 5.7855 12.7196 6.09082 12.3433 6.09082C11.9672 6.0904 11.6619 5.78524 11.6616 5.40918V4.79297H7.35986V5.40918C7.35959 5.78527 7.05429 6.09045 6.67822 6.09082C6.30184 6.09082 5.99588 5.7855 5.99561 5.40918V4.79297H4.56104Z" fill="#101828"/>
</svg>