<svg width="24" height="24" viewBox="0 0 24 24" fill="none" xmlns="http://www.w3.org/2000/svg">
<path d="M9 10.75C9.41421 10.75 9.75 11.0858 9.75 11.5V16.5C9.75 16.9142 9.41421 17.25 9 17.25C8.58579 17.25 8.25 16.9142 8.25 16.5V11.5C8.25 11.0858 8.58579 10.75 9 10.75Z" fill="#101828"/>
<path d="M12 10.75C12.4142 10.75 12.75 11.0858 12.75 11.5V16.5C12.75 16.9142 12.4142 17.25 12 17.25C11.5858 17.25 11.25 16.9142 11.25 16.5V11.5C11.25 11.0858 11.5858 10.75 12 10.75Z" fill="#101828"/>
<path d="M15 10.75C15.4142 10.75 15.75 11.0858 15.75 11.5V16.5C15.75 16.9142 15.4142 17.25 15 17.25C14.5858 17.25 14.25 16.9142 14.25 16.5V11.5C14.25 11.0858 14.5858 10.75 15 10.75Z" fill="#101828"/>
<path fill-rule="evenodd" clip-rule="evenodd" d="M15 2.75C15.7293 2.75 16.4286 3.03994 16.9443 3.55566C17.4601 4.07139 17.75 4.77065 17.75 5.5V6.75H20C20.4142 6.75 20.75 7.08579 20.75 7.5C20.75 7.91421 20.4142 8.25 20 8.25H19.6895L18.7471 19.5625C18.731 20.2692 18.4453 20.9434 17.9443 21.4443C17.4286 21.9601 16.7293 22.25 16 22.25H8C7.27065 22.25 6.57139 21.9601 6.05566 21.4443C5.5547 20.9434 5.26899 20.2692 5.25293 19.5625L4.31055 8.25H4C3.58579 8.25 3.25 7.91421 3.25 7.5C3.25 7.08579 3.58579 6.75 4 6.75H6.25V5.5C6.25 4.77065 6.53994 4.07139 7.05566 3.55566C7.57139 3.03994 8.27065 2.75 9 2.75H15ZM6.74707 19.4375C6.7488 19.4582 6.75 19.4792 6.75 19.5C6.75 19.8315 6.88179 20.1494 7.11621 20.3838C7.35063 20.6182 7.66848 20.75 8 20.75H16C16.3315 20.75 16.6494 20.6182 16.8838 20.3838C17.1182 20.1494 17.25 19.8315 17.25 19.5C17.25 19.4792 17.2512 19.4582 17.2529 19.4375L18.1855 8.25H5.81445L6.74707 19.4375ZM9 4.25C8.66848 4.25 8.35063 4.38179 8.11621 4.61621C7.88179 4.85063 7.75 5.16848 7.75 5.5V6.75H16.25V5.5C16.25 5.16848 16.1182 4.85063 15.8838 4.61621C15.6494 4.38179 15.3315 4.25 15 4.25H9Z" fill="#101828"/>
</svg>