<svg width="24" height="24" viewBox="0 0 20 20" fill="none" xmlns="http://www.w3.org/2000/svg">
<path fill-rule="evenodd" clip-rule="evenodd" d="M13.4857 4.60805C13.9911 4.60817 14.4767 4.80947 14.8341 5.16687C15.1912 5.52423 15.3918 6.0091 15.392 6.51432C15.392 7.01973 15.1914 7.50528 14.8341 7.86275C14.4767 8.22015 13.9911 8.42047 13.4857 8.42059C12.9803 8.42057 12.4957 8.21994 12.1382 7.86275C11.7807 7.50525 11.5794 7.01991 11.5794 6.51432C11.5795 6.00887 11.7808 5.52428 12.1382 5.16687C12.4957 4.80962 12.9803 4.60806 13.4857 4.60805ZM13.4857 6.11657C13.3804 6.11658 13.2794 6.15909 13.2048 6.23344C13.1303 6.30795 13.088 6.40896 13.0879 6.51432C13.0879 6.6198 13.1302 6.7206 13.2048 6.7952C13.2794 6.86976 13.3802 6.91206 13.4857 6.91207C13.591 6.91195 13.6921 6.8697 13.7666 6.7952C13.8409 6.72064 13.8834 6.61964 13.8834 6.51432C13.8833 6.40898 13.841 6.30794 13.7666 6.23344C13.6921 6.15897 13.591 6.11668 13.4857 6.11657Z" fill="#101828"/>
<path fill-rule="evenodd" clip-rule="evenodd" d="M15.7897 0C16.9063 7.14355e-05 17.9769 0.444029 18.7665 1.23353C19.556 2.02304 19.9999 3.09377 20 4.21029C20 4.22391 19.9998 4.23795 19.999 4.25154C19.8793 6.44802 19.111 8.56016 17.7912 10.32C16.5719 11.9457 14.9313 13.2019 13.0526 13.9597C12.9405 15.0835 12.582 16.1716 11.9988 17.1437C11.3281 18.2614 10.383 19.1894 9.25378 19.8405C9.03417 19.9671 8.76542 19.9757 8.53881 19.8621C8.31233 19.7486 8.15832 19.5284 8.12828 19.2768C8.04381 18.5662 7.87018 17.8739 7.61464 17.2154C6.93705 18.0352 6.09399 18.7103 5.13384 19.1904C3.76807 19.8732 2.22949 20.133 0.715338 19.9358C0.376292 19.8916 0.108667 19.6246 0.0642009 19.2856C-0.133079 17.7714 0.126771 16.232 0.80962 14.8662C1.28942 13.9066 1.96322 13.0627 2.78267 12.3854C2.12462 12.1302 1.43323 11.9561 0.723195 11.8717C0.471613 11.8417 0.25143 11.6877 0.137859 11.4612C0.0243228 11.2346 0.0328805 10.9658 0.159465 10.7462C0.810562 9.61698 1.73861 8.67191 2.85633 8.00123C3.82819 7.41814 4.91576 7.05863 6.03934 6.94645C6.79718 5.06795 8.05444 3.42794 9.68001 2.20876C11.4398 0.888955 13.552 0.120743 15.7485 0.000982107L15.7897 0ZM4.28432 13.1485C3.37953 13.7432 2.64543 14.5681 2.15904 15.5409C1.7011 16.4569 1.48002 17.4699 1.51183 18.4872C2.5296 18.5192 3.54272 18.2991 4.45913 17.841C5.43202 17.3545 6.25565 16.6195 6.85056 15.7147C6.52363 15.204 6.14239 14.7256 5.70837 14.2916C5.27399 13.8573 4.7955 13.4756 4.28432 13.1485ZM15.8054 1.50852C13.9159 1.6165 12.0999 2.28008 10.5855 3.41577C9.06447 4.55656 7.9157 6.12324 7.28466 7.91677C7.18151 8.20998 6.90878 8.41016 6.59816 8.42059C5.55175 8.45515 4.53101 8.75609 3.63318 9.29467C3.05417 9.64207 2.53855 10.0818 2.10502 10.593C3.86528 11.0257 5.48228 11.9324 6.77494 13.2251C8.06728 14.5174 8.97316 16.1342 9.40601 17.894C9.91723 17.4605 10.3579 16.9459 10.7053 16.3668C11.2439 15.469 11.5449 14.4482 11.5794 13.4018C11.5899 13.0913 11.7901 12.8185 12.0832 12.7153C13.8768 12.0843 15.4434 10.9356 16.5842 9.41448C17.7201 7.89984 18.3827 6.0834 18.4905 4.1936C18.486 3.48318 18.2026 2.80277 17.6999 2.3001C17.197 1.7972 16.5162 1.51272 15.8054 1.50852Z" fill="#101828"/>
</svg>
