<svg width="24" height="24" viewBox="0 0 24 24" fill="none" xmlns="http://www.w3.org/2000/svg">
<path d="M6.4676 14.6791C7.02861 14.6794 7.48378 15.1342 7.48378 15.6953C7.48368 16.2563 7.02855 16.7112 6.4676 16.7115H6.45768C5.89652 16.7115 5.44159 16.2564 5.4415 15.6953C5.4415 15.1341 5.89646 14.6791 6.45768 14.6791H6.4676Z" fill="#101828"/>
<path d="M10.1622 14.6791C10.7234 14.6791 11.1783 15.1341 11.1783 15.6953C11.1782 16.2564 10.7233 16.7115 10.1622 16.7115H10.1522C9.59115 16.7114 9.13615 16.2564 9.13605 15.6953C9.13605 15.1341 9.59109 14.6792 10.1522 14.6791H10.1622Z" fill="#101828"/>
<path fill-rule="evenodd" clip-rule="evenodd" d="M16.5797 3.85349C17.0015 3.8832 17.4107 4.01574 17.7716 4.23952C18.1832 4.49481 18.5151 4.85993 18.7312 5.2934L21.9196 11.6584C21.9243 11.6677 21.9273 11.6777 21.9315 11.6872C21.936 11.697 21.9404 11.7069 21.9444 11.7169C21.96 11.756 21.9722 11.796 21.9811 11.837C21.9845 11.8524 21.9877 11.8679 21.9901 11.8837C21.996 11.922 22 11.9608 22 11.9998V17.5431C21.9999 18.235 21.7251 18.8986 21.2359 19.3879C20.7465 19.8773 20.0822 20.153 19.3901 20.153H4.6099C3.9178 20.153 3.25353 19.8772 2.76412 19.3879C2.27495 18.8986 2.00009 18.235 2 17.5431V11.9998C2.00003 11.9028 2.0188 11.8067 2.05458 11.7169C2.05861 11.7069 2.06304 11.697 2.06748 11.6872C2.07179 11.6776 2.07567 11.6678 2.08038 11.6584L5.26784 5.2934C5.48391 4.85972 5.81664 4.4949 6.22844 4.23952C6.64106 3.98365 7.11735 3.84779 7.60286 3.84753H16.3981L16.5797 3.85349ZM3.52426 17.5431C3.52436 17.8307 3.63851 18.1067 3.84182 18.3102C4.04537 18.5137 4.32206 18.6287 4.6099 18.6287H19.3901C19.6779 18.6287 19.9546 18.5137 20.1582 18.3102C20.3615 18.1067 20.4756 17.8307 20.4757 17.5431V12.7619H3.52426V17.5431ZM7.60286 5.3718C7.40124 5.37197 7.20366 5.42838 7.03225 5.53454C6.86063 5.64097 6.7212 5.79331 6.63134 5.97416L3.99663 11.2376H20.0034L17.3687 5.97416C17.2788 5.79339 17.1403 5.64096 16.9687 5.53454C16.84 5.4547 16.6959 5.40361 16.547 5.38271L16.3971 5.3718H7.60286Z" fill="#101828"/>
</svg>
