<svg width="24" height="24" viewBox="0 0 24 24" fill="none" xmlns="http://www.w3.org/2000/svg">
<path d="M18.75 20C19.1642 20 19.5 20.3358 19.5 20.75C19.5 21.1642 19.1642 21.5 18.75 21.5H4.75C4.33579 21.5 4 21.1642 4 20.75C4 20.3358 4.33579 20 4.75 20H18.75Z" fill="#101828"/>
<path d="M11.75 3C12.1642 3 12.5 3.33579 12.5 3.75V14.9395L16.2197 11.2197C16.5126 10.9268 16.9874 10.9268 17.2803 11.2197C17.5732 11.5126 17.5732 11.9874 17.2803 12.2803L12.2803 17.2803C12.2317 17.3289 12.1761 17.366 12.1191 17.3984C12.092 17.4139 12.0653 17.4303 12.0361 17.4424C12.0041 17.4556 11.9708 17.4641 11.9375 17.4727C11.9244 17.4761 11.9118 17.4817 11.8984 17.4844C11.8929 17.4855 11.8874 17.4863 11.8818 17.4873C11.839 17.4949 11.795 17.5 11.75 17.5C11.7046 17.5 11.6603 17.495 11.6172 17.4873C11.6117 17.4863 11.6061 17.4855 11.6006 17.4844C11.5872 17.4817 11.5746 17.4761 11.5615 17.4727C11.5283 17.464 11.4949 17.4557 11.4629 17.4424C11.4338 17.4303 11.407 17.414 11.3799 17.3984C11.3232 17.366 11.2681 17.3287 11.2197 17.2803L6.21973 12.2803C5.92683 11.9874 5.92683 11.5126 6.21973 11.2197C6.51262 10.9268 6.98738 10.9268 7.28027 11.2197L11 14.9395V3.75C11 3.33579 11.3358 3 11.75 3Z" fill="#101828"/>
</svg>