<svg width="24" height="24" viewBox="0 0 24 24" fill="none" xmlns="http://www.w3.org/2000/svg">
<path fill-rule="evenodd" clip-rule="evenodd" d="M16.7136 3.75071C17.3236 3.14065 18.2894 3.10193 18.944 3.63548L19.071 3.75071L20.2497 4.92845C20.9003 5.57922 20.9002 6.63501 20.2497 7.28587L9.92061 17.614L9.77705 17.7429C9.62568 17.8627 9.45426 17.9559 9.27022 18.0173L5.92061 19.1325C5.30993 19.3361 4.72736 18.8049 4.83565 18.2009L4.8669 18.0788L5.98311 14.7302C6.04451 14.546 6.13667 14.3739 6.25655 14.2224L6.38545 14.0788L16.7136 3.75071ZM7.446 15.1394C7.4278 15.1576 7.41412 15.1804 7.40596 15.2048L6.71162 17.2878L8.79561 16.5935C8.81993 16.5853 8.8419 16.5716 8.86006 16.5534L16.8317 8.58177L15.4177 7.1677L7.446 15.1394ZM18.0105 4.81126C17.9454 4.74621 17.8392 4.74618 17.7741 4.81126L16.5954 5.98899L18.0095 7.40306L19.1882 6.22532C19.2533 6.16023 19.2533 6.05408 19.1882 5.98899L18.0105 4.81126Z" fill="#101828"/>
</svg>