<svg width="24" height="24" viewBox="0 0 24 24" fill="none" xmlns="http://www.w3.org/2000/svg">
<path d="M14.4697 8.46973C14.7625 8.17691 15.2374 8.17708 15.5303 8.46973C15.8232 8.76262 15.8232 9.23738 15.5303 9.53027L13.0605 12L15.5303 14.4697C15.8232 14.7626 15.8232 15.2374 15.5303 15.5303C15.2374 15.8232 14.7626 15.8232 14.4697 15.5303L12 13.0605L9.53027 15.5303C9.23738 15.8232 8.76262 15.8232 8.46973 15.5303C8.17708 15.2374 8.17691 14.7625 8.46973 14.4697L10.9395 12L8.46973 9.53027C8.17708 9.23736 8.17691 8.76254 8.46973 8.46973C8.76254 8.17691 9.23736 8.17708 9.53027 8.46973L12 10.9395L14.4697 8.46973Z" fill="#101828"/>
<path fill-rule="evenodd" clip-rule="evenodd" d="M12 2C17.5228 2 22 6.47715 22 12C22 17.5228 17.5228 22 12 22C6.47715 22 2 17.5228 2 12C2 6.47715 6.47715 2 12 2ZM12 3.5C7.30558 3.5 3.5 7.30558 3.5 12C3.5 16.6944 7.30558 20.5 12 20.5C16.6944 20.5 20.5 16.6944 20.5 12C20.5 7.30558 16.6944 3.5 12 3.5Z" fill="#101828"/>
</svg>