<svg width="24" height="24" viewBox="0 0 24 24" fill="none" xmlns="http://www.w3.org/2000/svg">
<path fill-rule="evenodd" clip-rule="evenodd" d="M12 6.75C14.7583 6.75 16.9951 9.10052 16.9951 12L16.9883 12.2705C16.8544 15.0443 14.672 17.25 12 17.25L11.7432 17.2432C9.18972 17.1069 7.14232 14.9546 7.01271 12.2705L7.00587 12C7.00589 9.10074 9.24196 6.75034 12 6.75ZM12 8.25C10.14 8.25035 8.50589 9.85776 8.50587 12C8.50588 14.1422 10.14 15.7497 12 15.75C13.8603 15.75 15.4951 14.1425 15.4951 12C15.4951 9.85753 13.8602 8.25 12 8.25Z" fill="#101828"/>
<path fill-rule="evenodd" clip-rule="evenodd" d="M12 5C18.378 5 21.0658 9.59413 21.8565 11.3389C22.0481 11.7618 22.048 12.2382 21.8565 12.6611C21.0658 14.4058 18.3781 19 12 19C5.62211 18.9998 2.93408 14.4057 2.14357 12.6611C1.95214 12.2383 1.95207 11.7616 2.14357 11.3389C2.93408 9.59433 5.6221 5.00024 12 5ZM12 6.5C6.51464 6.50024 4.21422 10.4034 3.50978 11.958C3.502 11.9753 3.50001 11.9893 3.50001 12C3.50002 12.0107 3.50201 12.0247 3.50978 12.042C4.21422 13.5966 6.51464 17.4998 12 17.5C17.4856 17.5 19.7857 13.5967 20.4902 12.042C20.4981 12.0245 20.5 12.0107 20.5 12C20.5 11.9893 20.4981 11.9754 20.4902 11.958C19.7857 10.4032 17.4855 6.5 12 6.5Z" fill="#101828"/>
</svg>