<svg width="24" height="24" viewBox="0 0 24 24" fill="none" xmlns="http://www.w3.org/2000/svg">
<path fill-rule="evenodd" clip-rule="evenodd" d="M12 6.75C14.7583 6.75 16.9951 9.10052 16.9951 12L16.9883 12.2705C16.8544 15.0443 14.672 17.25 12 17.25L11.7432 17.2432C9.18973 17.1069 7.14233 14.9546 7.01272 12.2705L7.00588 12C7.0059 9.10074 9.24197 6.75034 12 6.75ZM12 8.25C10.14 8.25035 8.5059 9.85776 8.50588 12C8.50589 14.1422 10.14 15.7497 12 15.75C13.8603 15.75 15.4951 14.1425 15.4951 12C15.4951 9.85753 13.8603 8.25 12 8.25Z" fill="#101828"/>
<path fill-rule="evenodd" clip-rule="evenodd" d="M12 5C18.378 5 21.0658 9.5941 21.8565 11.3389C22.0481 11.7618 22.048 12.2382 21.8565 12.6611C21.0658 14.4059 18.3781 19 12 19C5.6222 18.9997 2.93409 14.4057 2.14358 12.6611C1.95218 12.2384 1.9521 11.7616 2.14358 11.3389C2.93408 9.59434 5.6222 5.0003 12 5ZM12 6.5C6.51473 6.50029 4.21422 10.4034 3.50979 11.958C3.50202 11.9753 3.50003 11.9893 3.50002 12C3.50003 12.0107 3.50204 12.0247 3.50979 12.042C4.21422 13.5966 6.51473 17.4997 12 17.5C17.4856 17.5 19.7857 13.5967 20.4903 12.042L20.5 12C20.5 11.9892 20.4981 11.9754 20.4903 11.958C19.7857 10.4032 17.4855 6.5 12 6.5Z" fill="#101828"/>
<path d="M7.34175 4.78904C7.08737 4.46246 6.61583 4.404 6.28901 4.65818C5.96241 4.91255 5.90397 5.38409 6.15815 5.71091L16.6582 19.2109C16.9125 19.5375 17.3841 19.596 17.7109 19.3418C18.0375 19.0874 18.0959 18.6159 17.8417 18.289L7.34175 4.78904Z" fill="#101828"/>
</svg>