<svg width="24" height="24" viewBox="0 0 24 24" fill="none" xmlns="http://www.w3.org/2000/svg">
<path fill-rule="evenodd" clip-rule="evenodd" d="M21.3024 2.8775C21.5942 2.87761 21.8602 3.04741 21.9831 3.31207C22.1058 3.57669 22.0638 3.88902 21.8757 4.11188L14.611 12.7007V20.3716C14.611 20.6314 14.4755 20.8726 14.2546 21.0093C14.0335 21.1459 13.7575 21.1587 13.5251 21.0425L9.80439 19.1822C9.55032 19.0552 9.38937 18.7953 9.38935 18.5113V12.7007L2.12568 4.11188C1.93728 3.88901 1.89458 3.57684 2.01728 3.31207C2.14026 3.04745 2.40611 2.8775 2.69794 2.8775H21.3024ZM10.7126 11.9429C10.827 12.0782 10.8892 12.2502 10.8893 12.4273V18.0474L13.111 19.1578V12.4273C13.1112 12.2502 13.1734 12.0782 13.2878 11.9429L19.6862 4.3775H4.31415L10.7126 11.9429Z" fill="#101828"/>
</svg>