<svg width="24" height="24" viewBox="0 0 24 24" fill="none" xmlns="http://www.w3.org/2000/svg">
<path fill-rule="evenodd" clip-rule="evenodd" d="M9.32129 2.94141C9.53591 2.96821 9.73079 3.08713 9.85254 3.26953L11.4775 5.70703H19.3896C20.0784 5.70703 20.7395 5.98089 21.2266 6.46777C21.7136 6.95485 21.9872 7.61587 21.9873 8.30469V18.4658C21.9873 19.1547 21.7137 19.8156 21.2266 20.3027C20.7394 20.7899 20.0786 21.0635 19.3896 21.0635H4.60938C3.92057 21.0634 3.25953 20.7898 2.77246 20.3027C2.28563 19.8156 2.01172 19.1545 2.01172 18.4658V5.5332C2.01179 4.84439 2.2854 4.18336 2.77246 3.69629C3.25953 3.20922 3.92057 2.93563 4.60938 2.93555H9.22852L9.32129 2.94141ZM4.60938 4.43555C4.31839 4.43563 4.03877 4.55107 3.83301 4.75684C3.62725 4.96261 3.51179 5.24221 3.51172 5.5332V18.4658C3.51172 18.7567 3.62748 19.0364 3.83301 19.2422C4.03877 19.448 4.31839 19.5634 4.60938 19.5635H19.3896C19.6807 19.5635 19.9602 19.448 20.166 19.2422C20.3718 19.0364 20.4873 18.7569 20.4873 18.4658V8.30469C20.4872 8.01369 20.3718 7.73409 20.166 7.52832C19.9602 7.32274 19.6805 7.20703 19.3896 7.20703H11.0762C10.8256 7.20692 10.5912 7.08149 10.4521 6.87305L8.82715 4.43555H4.60938Z" fill="#101828"/>
</svg>