<svg width="24" height="24" viewBox="0 0 24 24" fill="none" xmlns="http://www.w3.org/2000/svg">
<path d="M9.27246 3.0683C9.52313 3.06833 9.75739 3.19376 9.89648 3.40228L11.4922 5.79584H19.2725C19.9536 5.79586 20.6073 6.06618 21.0889 6.54779C21.5704 7.0294 21.8408 7.68314 21.8408 8.3642V18.3642C21.8407 19.0451 21.5703 19.6981 21.0889 20.1796C20.6073 20.6612 19.9535 20.9316 19.2725 20.9316H4.72754C4.04646 20.9316 3.39275 20.6612 2.91113 20.1796C2.42975 19.6981 2.15933 19.045 2.15918 18.3642V5.63666C2.15918 4.95554 2.42951 4.30188 2.91113 3.82025C3.39276 3.33862 4.04641 3.0683 4.72754 3.0683H9.27246ZM4.72754 4.5683C4.44424 4.5683 4.172 4.68048 3.97168 4.8808C3.77137 5.08112 3.65918 5.35336 3.65918 5.63666V18.3642C3.65933 18.6472 3.7716 18.9189 3.97168 19.1191C4.17199 19.3193 4.44429 19.4316 4.72754 19.4316H19.2725C19.5557 19.4316 19.828 19.3194 20.0283 19.1191C20.2285 18.9189 20.3407 18.6473 20.3408 18.3642V8.3642C20.3408 8.08097 20.2285 7.80865 20.0283 7.60834C19.828 7.40804 19.5557 7.29586 19.2725 7.29584H11.0908C10.8402 7.29578 10.6059 7.17032 10.4668 6.96185L8.87109 4.5683H4.72754ZM14.7266 13.0683C15.1408 13.0683 15.4766 13.4041 15.4766 13.8183C15.4765 14.2325 15.1407 14.5683 14.7266 14.5683H9.27246C8.85841 14.5682 8.52252 14.2324 8.52246 13.8183C8.52246 13.4042 8.85837 13.0684 9.27246 13.0683H14.7266Z" fill="#101828"/>
</svg>