<svg width="24" height="24" viewBox="0 0 24 24" fill="none" xmlns="http://www.w3.org/2000/svg">
<path fill-rule="evenodd" clip-rule="evenodd" d="M8.5087 2.96564C9.43893 2.96573 10.3312 3.33407 10.9891 3.98923L11.4426 4.44105C11.8208 4.81781 12.3344 5.03019 12.8692 5.03024H16.5597C18.4972 5.03026 20.0682 6.59464 20.0685 8.52479V9.52903C21.4893 10.2434 22.3255 11.8871 21.8797 13.5538L20.59 18.3709C20.1804 19.9009 18.7892 20.9656 17.1997 20.9656H5.50876C3.57111 20.9655 1.99995 19.4005 1.99994 17.4701V6.46115C2.00003 4.53089 3.57116 2.96575 5.50876 2.96564H8.5087ZM3.49165 17.4701C3.49166 18.5797 4.39496 19.4795 5.50876 19.4796H17.1997C18.1134 19.4796 18.9134 18.8673 19.1488 17.9877L20.4375 13.1716C20.7789 11.8961 19.8144 10.6447 18.4894 10.6445H3.49165V17.4701ZM5.50876 4.45169C4.39501 4.4518 3.49174 5.35161 3.49165 6.46115V9.15849H18.4894C18.5185 9.15849 18.5478 9.15972 18.5768 9.16042V8.52479C18.5765 7.41537 17.6734 6.51631 16.5597 6.5163H12.8692C11.9388 6.51624 11.0458 6.14718 10.3879 5.49173L9.93437 5.03992C9.55625 4.66344 9.0433 4.45178 8.5087 4.45169H5.50876Z" fill="#101828"/>
</svg>