<svg width="24" height="24" viewBox="0 0 24 24" fill="none" xmlns="http://www.w3.org/2000/svg">
<path d="M12 2.15918L12.5059 2.17188C17.7057 2.43521 21.8408 6.73474 21.8408 12C21.8408 17.4349 17.4349 21.8408 12 21.8408C6.56509 21.8408 2.15923 17.4349 2.15918 12C2.15923 6.56509 6.56509 2.15923 12 2.15918ZM3.69434 12.75C4.02284 16.4349 6.74591 19.4295 10.2979 20.166C8.75896 17.9874 7.8386 15.4242 7.64844 12.75H3.69434ZM16.3516 12.75C16.1615 15.4245 15.2401 17.9872 13.7012 20.166C17.2535 19.4298 19.9771 16.4352 20.3057 12.75H16.3516ZM9.1543 12.75C9.3628 15.3753 10.3539 17.8766 11.999 19.9316C13.6445 17.8764 14.6363 15.3755 14.8447 12.75H9.1543ZM13.7002 3.83203C15.2399 6.01121 16.1614 8.57479 16.3516 11.25H20.3057C19.9771 7.56433 17.2532 4.56784 13.7002 3.83203ZM11.999 4.06738C10.3536 6.12257 9.36274 8.62443 9.1543 11.25H14.8447C14.6363 8.62416 13.6448 6.12273 11.999 4.06738ZM10.2988 3.83203C6.74623 4.56814 4.02284 7.56463 3.69434 11.25H7.64844C7.83864 8.57506 8.75921 6.01104 10.2988 3.83203Z" fill="#101828"/>
</svg>
