<svg width="24" height="24" viewBox="0 0 24 24" fill="none" xmlns="http://www.w3.org/2000/svg">
<path fill-rule="evenodd" clip-rule="evenodd" d="M8.27539 8.45947C9.71704 8.45951 10.8857 9.62818 10.8857 11.0698C10.8856 12.5114 9.717 13.6801 8.27539 13.6802C6.8338 13.6801 5.66516 12.5114 5.66504 11.0698C5.6651 9.62819 6.83376 8.45953 8.27539 8.45947ZM8.27539 9.95947C7.66219 9.95953 7.1651 10.4566 7.16504 11.0698C7.16516 11.683 7.66223 12.1801 8.27539 12.1802C8.88858 12.1801 9.38562 11.683 9.38574 11.0698C9.38568 10.4566 8.88861 9.95951 8.27539 9.95947Z" fill="#111827"/>
<path fill-rule="evenodd" clip-rule="evenodd" d="M15.7207 8.45947C17.1624 8.45947 18.331 9.62816 18.3311 11.0698C18.3309 12.5114 17.1623 13.6802 15.7207 13.6802C14.2792 13.6801 13.1105 12.5114 13.1104 11.0698C13.1104 9.62823 14.2791 8.4596 15.7207 8.45947ZM15.7207 9.95947C15.1076 9.9596 14.6104 10.4567 14.6104 11.0698C14.6105 11.6829 15.1076 12.1801 15.7207 12.1802C16.3339 12.1802 16.8309 11.683 16.8311 11.0698C16.831 10.4566 16.334 9.95947 15.7207 9.95947Z" fill="#111827"/>
<path fill-rule="evenodd" clip-rule="evenodd" d="M2.69727 2.87744C3.11134 2.87744 3.44705 3.21341 3.44727 3.62744V4.73779H19.4414C20.1335 4.73779 20.7976 5.01322 21.2871 5.50244C21.7765 5.99185 22.0516 6.65603 22.0518 7.34814V14.7905C22.0517 15.4828 21.7766 16.1467 21.2871 16.6362C20.7976 17.1257 20.1337 17.4009 19.4414 17.4009H14.6104V19.4409C14.6104 19.8865 14.4332 20.3143 14.1182 20.6294C13.8031 20.9445 13.3753 21.1216 12.9297 21.1216H8.27832C7.833 21.1214 7.40574 20.9443 7.09082 20.6294C6.77597 20.3143 6.59863 19.8864 6.59863 19.4409V17.4009H3.44727V20.3716C3.44727 20.7858 3.11148 21.1216 2.69727 21.1216C2.28324 21.1214 1.94727 20.7857 1.94727 20.3716V3.62744C1.94748 3.21355 2.28337 2.87766 2.69727 2.87744ZM8.09863 19.4409C8.09863 19.4885 8.11782 19.5351 8.15137 19.5688C8.18498 19.6024 8.23083 19.6214 8.27832 19.6216H12.9297C12.9775 19.6216 13.0238 19.6026 13.0576 19.5688C13.0913 19.5351 13.1104 19.4886 13.1104 19.4409V17.4009H8.09863V19.4409ZM3.44727 15.9009H19.4414C19.7358 15.9009 20.0183 15.7838 20.2266 15.5757C20.4347 15.3675 20.5517 15.0849 20.5518 14.7905V7.34814C20.5516 7.05386 20.4347 6.77109 20.2266 6.56299C20.0184 6.35507 19.7357 6.23779 19.4414 6.23779H3.44727V15.9009Z" fill="#111827"/>
</svg>
