<svg width="24" height="24" viewBox="0 0 24 24" fill="none" xmlns="http://www.w3.org/2000/svg">
<path d="M12 22C17.5228 22 22 17.5228 22 12C22 6.47715 17.5228 2 12 2C6.47715 2 2 6.47715 2 12C2 17.5228 6.47715 22 12 22Z" fill="#D1D5DC"/>
<path d="M12.0322 15.8408C12.5844 15.8408 13.0321 16.2887 13.0322 16.8408C13.0322 17.3931 12.5845 17.8408 12.0322 17.8408H12.0225C11.4702 17.8407 11.0225 17.3931 11.0225 16.8408C11.0226 16.2887 11.4704 15.8409 12.0225 15.8408H12.0322ZM10.3994 7.41211C11.0264 7.05436 11.7614 6.92429 12.4746 7.04297C13.1881 7.16182 13.8404 7.52286 14.3125 8.06738C14.7847 8.61212 15.0467 9.30525 15.0459 10.0244L15.0352 10.2383C14.9353 11.284 14.1183 11.9786 13.5332 12.3574C13.2344 12.5508 12.9394 12.6981 12.7061 12.8027V14.1094C12.7061 14.5236 12.3702 14.8593 11.9561 14.8594C11.542 14.8592 11.2061 14.5235 11.2061 14.1094V12.2959C11.2061 11.9707 11.4162 11.6822 11.7256 11.582C11.7278 11.5813 11.7323 11.5802 11.7383 11.5781C11.7506 11.5739 11.7705 11.5664 11.7969 11.5566C11.85 11.537 11.9288 11.5061 12.0244 11.4648C12.2183 11.3812 12.4717 11.2576 12.7188 11.0977C13.2637 10.7448 13.5459 10.3727 13.5459 10.0244V10.0234C13.5464 9.67054 13.4175 9.32527 13.1787 9.0498C12.9394 8.77394 12.6036 8.58495 12.2285 8.52246C11.8532 8.45999 11.4678 8.52934 11.1426 8.71484C10.8182 8.9001 10.5765 9.18774 10.4551 9.52246C10.314 9.91189 9.88357 10.1137 9.49414 9.97266C9.1049 9.83145 8.90386 9.40106 9.04492 9.01172C9.29011 8.33529 9.77208 7.77019 10.3994 7.41211Z" fill="#101828"/>
</svg>
