<svg width="24" height="24" viewBox="0 0 24 24" fill="none" xmlns="http://www.w3.org/2000/svg">
<path d="M12 2.15918C17.4349 2.15923 21.8408 6.56509 21.8408 12C21.8408 17.4349 17.4349 21.8408 12 21.8408C6.56509 21.8408 2.15923 17.4349 2.15918 12C2.15923 6.56509 6.56509 2.15923 12 2.15918ZM12 3.65918C7.39351 3.65923 3.65923 7.39351 3.65918 12C3.65923 16.6065 7.39351 20.3408 12 20.3408C16.6065 20.3408 20.3408 16.6065 20.3408 12C20.3408 7.39351 16.6065 3.65923 12 3.65918ZM12.0098 15.5459C12.5621 15.5459 13.0098 15.9936 13.0098 16.5459C13.0095 17.098 12.5619 17.5459 12.0098 17.5459H12C11.4479 17.5459 11.0002 17.098 11 16.5459C11 15.9936 11.4477 15.5459 12 15.5459H12.0098ZM10.377 7.11621C11.0039 6.75856 11.739 6.62841 12.4521 6.74707C13.1656 6.86594 13.8179 7.22703 14.29 7.77148C14.7622 8.31616 15.0242 9.00944 15.0234 9.72852L15.0127 9.94238C14.9129 10.9879 14.0958 11.6827 13.5107 12.0615C13.212 12.2549 12.9169 12.4022 12.6836 12.5068V13.8135C12.6836 14.2276 12.3477 14.5633 11.9336 14.5635C11.5196 14.5633 11.1836 14.2276 11.1836 13.8135V12C11.1838 11.6749 11.3938 11.3862 11.7031 11.2861C11.7054 11.2854 11.71 11.2842 11.7158 11.2822C11.7281 11.278 11.7482 11.2704 11.7744 11.2607C11.8276 11.2411 11.9065 11.2101 12.002 11.1689C12.1958 11.0853 12.4493 10.9616 12.6963 10.8018C13.2411 10.4489 13.5234 10.0767 13.5234 9.72852V9.72754C13.5239 9.37473 13.395 9.0293 13.1562 8.75391C12.917 8.47811 12.5811 8.28906 12.2061 8.22656C11.8308 8.16411 11.4452 8.23354 11.1201 8.41895C10.7958 8.60415 10.5541 8.89195 10.4326 9.22656C10.2915 9.61597 9.8611 9.81779 9.47168 9.67676C9.08244 9.53555 8.8814 9.10516 9.02246 8.71582C9.26768 8.03951 9.7497 7.47424 10.377 7.11621Z" fill="#101828"/>
</svg>