<svg width="24" height="24" viewBox="0 0 24 24" fill="none" xmlns="http://www.w3.org/2000/svg">
<path fill-rule="evenodd" clip-rule="evenodd" d="M17.1602 2.83034C18.2673 1.72322 20.0623 1.72322 21.1694 2.83034C22.2764 3.9374 22.2763 5.73146 21.1694 6.83857C20.254 7.75401 18.8694 7.91134 17.7912 7.31288L16.0945 9.00961C17.3942 10.7849 17.394 13.214 16.0945 14.9894L17.7912 16.6861C18.8694 16.0878 20.254 16.2451 21.1694 17.1604C22.2765 18.2675 22.2765 20.0626 21.1694 21.1697C20.0623 22.2766 18.2672 22.2767 17.1602 21.1697C16.245 20.2544 16.0879 18.8696 16.6859 17.7915L14.9891 16.0948C13.2138 17.3941 10.7845 17.3944 9.00935 16.0948L7.31262 17.7915C7.91094 18.8697 7.75471 20.2543 6.83933 21.1697C5.73225 22.2767 3.9372 22.2766 2.83008 21.1697C1.72297 20.0626 1.72299 18.2676 2.83008 17.1604C3.74521 16.2453 5.12921 16.0884 6.20725 16.6861L7.90398 14.9894C6.60499 13.2143 6.60479 10.7846 7.90398 9.00961L6.20725 7.31288C5.12918 7.91076 3.74527 7.75376 2.83008 6.83857C1.72327 5.73148 1.72319 3.93738 2.83008 2.83034C3.9372 1.72322 5.73221 1.72322 6.83933 2.83034C7.7544 3.74563 7.91066 5.12949 7.31262 6.20751L9.00935 7.90424C10.7844 6.60487 13.2139 6.60522 14.9891 7.90424L16.6869 6.2065C16.0894 5.12862 16.2454 3.74539 17.1602 2.83034ZM5.77773 18.221C5.2567 17.7004 4.41153 17.7001 3.89066 18.221C3.36982 18.7419 3.37005 19.5871 3.89066 20.1081C4.41164 20.6291 5.25673 20.629 5.77773 20.1081C6.29872 19.5871 6.29872 18.742 5.77773 18.221ZM20.1088 18.221C19.5879 17.7001 18.7428 17.7003 18.2218 18.221C17.7008 18.742 17.7008 19.5871 18.2218 20.1081C18.7428 20.6291 19.5878 20.6291 20.1088 20.1081C20.6295 19.5871 20.6297 18.7419 20.1088 18.221ZM14.3113 9.68851C13.0349 8.4122 10.9657 8.41246 9.68926 9.68851C8.41282 10.9649 8.41282 13.0341 9.68926 14.3105C10.9657 15.5869 13.0348 15.5869 14.3113 14.3105C15.5873 13.034 15.5875 10.9648 14.3113 9.68851ZM5.77773 3.89092C5.25671 3.37019 4.41157 3.37002 3.89066 3.89092C3.36989 4.41184 3.36998 5.25702 3.89066 5.77799C4.41161 6.29894 5.25672 6.29885 5.77773 5.77799C6.29872 5.25699 6.29872 4.41192 5.77773 3.89092ZM20.1088 3.89092C19.5879 3.36999 18.7428 3.37012 18.2218 3.89092C17.7008 4.41192 17.7008 5.25699 18.2218 5.77799C18.7428 6.29891 19.5879 6.29896 20.1088 5.77799C20.6296 5.257 20.6297 4.41186 20.1088 3.89092Z" fill="#101828"/>
</svg>