<svg width="24" height="24" viewBox="0 0 24 24" fill="none" xmlns="http://www.w3.org/2000/svg">
<path d="M12 2C17.5225 2.00022 21.9998 6.47748 22 12C21.9998 17.5225 17.5225 21.9998 12 22C6.47748 21.9998 2.00022 17.5225 2 12C2.00022 6.47748 6.47748 2.00022 12 2ZM12 3.39453C7.24811 3.39475 3.39475 7.24811 3.39453 12C3.39475 16.7519 7.24811 20.6043 12 20.6045C16.7519 20.6043 20.6043 16.7519 20.6045 12C20.6043 7.24811 16.7519 3.39475 12 3.39453ZM12 11.3027C12.3853 11.3027 12.6973 11.6147 12.6973 12V15.7207C12.6973 16.106 12.3853 16.4189 12 16.4189C11.6147 16.4189 11.3027 16.106 11.3027 15.7207V12C11.3027 11.6147 11.6147 11.3027 12 11.3027ZM12.0098 7.58203C12.3951 7.58203 12.708 7.89398 12.708 8.2793C12.7079 8.66451 12.395 8.97656 12.0098 8.97656H12C11.6148 8.97656 11.3029 8.66451 11.3027 8.2793C11.3027 7.89398 11.6147 7.58203 12 7.58203H12.0098Z" fill="#101828"/>
</svg>