<svg width="24" height="24" viewBox="0 0 24 24" fill="none" xmlns="http://www.w3.org/2000/svg">
<path d="M8.146 6.49756C8.90382 6.57452 9.49561 7.21454 9.49561 7.99268L9.48779 8.146C9.41087 8.90375 8.77069 9.49545 7.99268 9.49561L7.83936 9.48779C7.13186 9.41614 6.5694 8.85344 6.49756 8.146L6.48975 7.99268C6.48975 7.16267 7.16267 6.48975 7.99268 6.48975L8.146 6.49756Z" fill="#101828"/>
<path fill-rule="evenodd" clip-rule="evenodd" d="M7.79541 1.99951C10.9931 1.99967 13.5912 4.59765 13.5913 7.79541C13.5913 8.00922 13.5794 8.22227 13.5562 8.43213C13.5096 8.85363 13.6169 9.19093 13.8101 9.38428L21.3276 16.9019C21.7574 17.3318 21.9985 17.9151 21.9985 18.5229V19.7056C21.9985 20.9719 20.9719 21.9985 19.7056 21.9985H17.6821C17.0742 21.9985 16.491 21.7574 16.061 21.3276L15.1792 20.4458C14.8155 20.082 14.6109 19.5881 14.6108 19.0737C14.6107 18.8323 14.4148 18.6364 14.1733 18.6362H14.1011C12.9898 18.6361 12.0886 17.7348 12.0884 16.6235C12.0882 16.3422 11.86 16.1138 11.5786 16.1138C10.4673 16.1136 9.566 15.2125 9.56592 14.1011V13.312C8.85709 13.5388 8.10996 13.6299 7.36377 13.5737C6.39837 13.5009 5.46613 13.1878 4.65283 12.6626C3.83958 12.1373 3.16998 11.4169 2.70654 10.5669C2.24316 9.71687 2.00043 8.76354 1.99951 7.79541L2.00635 7.49756C2.16165 4.43771 4.69741 1.99963 7.79541 1.99951ZM7.79541 3.50146C5.42763 3.50159 3.5016 5.42764 3.50146 7.79541C3.50231 8.51219 3.68286 9.21778 4.02588 9.84717C4.36922 10.4769 4.86575 11.0107 5.46826 11.3999C6.07072 11.789 6.76092 12.0217 7.47607 12.0757C8.07966 12.1212 8.68515 12.0383 9.25244 11.8345C9.68821 11.6779 10.2144 11.7367 10.605 12.0708L10.6821 12.1411L10.769 12.2378C10.9619 12.473 11.0687 12.7689 11.0688 13.0757V14.1011C11.0689 14.3824 11.2972 14.6107 11.5786 14.6108C12.69 14.6109 13.5912 15.5121 13.5913 16.6235C13.5915 16.9048 13.8198 17.1332 14.1011 17.1333H14.1733C15.2448 17.1335 16.1136 18.0023 16.1138 19.0737C16.1139 19.1894 16.16 19.3004 16.2417 19.3823L17.1235 20.2642C17.2717 20.4123 17.4727 20.4955 17.6821 20.4956H19.7056C20.1419 20.4956 20.4956 20.1419 20.4956 19.7056V18.5229C20.4955 18.3135 20.4123 18.1125 20.2642 17.9644L12.7466 10.4468C12.1319 9.83179 11.9831 8.98152 12.062 8.26709C12.0792 8.11187 12.0884 7.9538 12.0884 7.79541C12.0882 5.42766 10.1631 3.50162 7.79541 3.50146Z" fill="#101828"/>
</svg>