<svg width="24" height="24" viewBox="0 0 24 24" fill="none" xmlns="http://www.w3.org/2000/svg">
<path d="M9.86987 2.90967C10.335 2.90967 10.7121 3.28709 10.7123 3.75213C10.7123 4.21741 10.3352 4.5946 9.86987 4.5946H5.79138C5.47418 4.59477 5.16994 4.72131 4.94562 4.94562C4.72131 5.16994 4.59477 5.47419 4.5946 5.79138V18.028C4.59463 18.3451 4.72156 18.6494 4.94562 18.8737C5.16995 19.098 5.47418 19.2246 5.79138 19.2247H18.028C18.3454 19.2247 18.6493 19.0981 18.8737 18.8737C19.0981 18.6493 19.2247 18.3454 19.2247 18.028V13.9495C19.225 13.4846 19.6023 13.1073 20.0672 13.107C20.5323 13.107 20.9094 13.4844 20.9097 13.9495V18.028C20.9096 18.7922 20.6065 19.5257 20.0661 20.0661C19.5257 20.6065 18.7922 20.9096 18.028 20.9097H5.79138C5.0273 20.9095 4.29351 20.6063 3.75323 20.0661C3.21312 19.5257 2.9097 18.7919 2.90967 18.028V5.79138C2.90984 5.0273 3.21294 4.29352 3.75323 3.75323C4.29352 3.21294 5.0273 2.90984 5.79138 2.90967H9.86987Z" fill="#101828"/>
<path d="M20.0672 2.90967C20.5323 2.90967 20.9094 3.28709 20.9097 3.75213V8.8508C20.9096 9.31599 20.5324 9.69326 20.0672 9.69326C19.6022 9.69297 19.2248 9.31581 19.2247 8.8508V5.78589L12.5059 12.5059C12.1769 12.8349 11.6425 12.8349 11.3135 12.5059C10.985 12.1768 10.9846 11.6423 11.3135 11.3135L18.0334 4.5946H14.9685C14.5036 4.5942 14.1261 4.21717 14.1261 3.75213C14.1264 3.28734 14.5038 2.91007 14.9685 2.90967H20.0672Z" fill="#101828"/>
</svg>