<svg width="24" height="24" viewBox="0 0 24 24" fill="none" xmlns="http://www.w3.org/2000/svg">
<path fill-rule="evenodd" clip-rule="evenodd" d="M12.0009 2.15918C13.405 2.15942 14.7522 2.71711 15.745 3.70996C16.7379 4.70302 17.2958 6.05077 17.2958 7.45508V10.3408H18.3642C19.7822 10.3411 20.9315 11.491 20.9315 12.9092V19.2725C20.9315 20.6906 19.7823 21.8405 18.3642 21.8408H5.63663C4.21826 21.8408 3.06827 20.6908 3.06827 19.2725V12.9092C3.06832 11.4909 4.21829 10.3408 5.63663 10.3408H6.70499V7.45508C6.70499 6.05064 7.26268 4.70305 8.25577 3.70996C9.24884 2.71699 10.5965 2.15918 12.0009 2.15918ZM5.63663 11.8408C5.04672 11.8408 4.56832 12.3193 4.56827 12.9092V19.2725C4.56827 19.8624 5.04669 20.3408 5.63663 20.3408H18.3642C18.9538 20.3405 19.4315 19.8622 19.4315 19.2725V12.9092C19.4315 12.3195 18.9538 11.8411 18.3642 11.8408H5.63663ZM12.0009 3.65918C10.9944 3.65918 10.0281 4.05884 9.31631 4.77051C8.60453 5.48229 8.20499 6.44846 8.20499 7.45508V10.3408H15.7958V7.45508C15.7958 6.44859 15.3961 5.48227 14.6845 4.77051C13.9729 4.05897 13.0072 3.65942 12.0009 3.65918Z" fill="#101828"/>
</svg>
