<svg width="24" height="24" viewBox="0 0 24 24" fill="none" xmlns="http://www.w3.org/2000/svg">
<path d="M19 2.25C19.7293 2.25 20.4286 2.53994 20.9443 3.05566C21.4601 3.57139 21.75 4.27065 21.75 5V19C21.75 19.7293 21.4601 20.4286 20.9443 20.9443C20.4286 21.4601 19.7293 21.75 19 21.75H15C14.5858 21.75 14.25 21.4142 14.25 21C14.25 20.5858 14.5858 20.25 15 20.25H19C19.3315 20.25 19.6494 20.1182 19.8838 19.8838C20.1182 19.6494 20.25 19.3315 20.25 19V5C20.25 4.66848 20.1182 4.35063 19.8838 4.11621C19.6494 3.88179 19.3315 3.75 19 3.75H15C14.5858 3.75 14.25 3.41421 14.25 3C14.25 2.58579 14.5858 2.25 15 2.25H19Z" fill="#101828"/>
<path d="M9.46973 6.46973C9.76262 6.17683 10.2374 6.17683 10.5303 6.46973L15.5303 11.4697C15.5787 11.5181 15.616 11.5732 15.6484 11.6299C15.664 11.657 15.6803 11.6838 15.6924 11.7129C15.7131 11.7629 15.7279 11.8146 15.7373 11.8672C15.745 11.9103 15.75 11.9546 15.75 12C15.75 12.045 15.7449 12.089 15.7373 12.1318C15.7279 12.1845 15.713 12.2361 15.6924 12.2861C15.6803 12.3153 15.6639 12.342 15.6484 12.3691C15.616 12.4261 15.5789 12.4817 15.5303 12.5303L10.5303 17.5303C10.2374 17.8232 9.76262 17.8232 9.46973 17.5303C9.17683 17.2374 9.17683 16.7626 9.46973 16.4697L13.1895 12.75H3C2.58579 12.75 2.25 12.4142 2.25 12C2.25 11.5858 2.58579 11.25 3 11.25H13.1895L9.46973 7.53027C9.17683 7.23738 9.17683 6.76262 9.46973 6.46973Z" fill="#101828"/>
</svg>