<svg width="24" height="24" viewBox="0 0 24 24" fill="none" xmlns="http://www.w3.org/2000/svg">
<path d="M9 2.25C9.41421 2.25 9.75 2.58579 9.75 3C9.75 3.41421 9.41421 3.75 9 3.75H5C4.66848 3.75 4.35063 3.88179 4.11621 4.11621C3.88179 4.35063 3.75 4.66848 3.75 5V19C3.75 19.3315 3.88179 19.6494 4.11621 19.8838C4.35063 20.1182 4.66848 20.25 5 20.25H9C9.41421 20.25 9.75 20.5858 9.75 21C9.75 21.4142 9.41421 21.75 9 21.75H5C4.27065 21.75 3.57139 21.4601 3.05566 20.9443C2.53994 20.4286 2.25 19.7293 2.25 19V5C2.25 4.27065 2.53994 3.57139 3.05566 3.05566C3.57139 2.53994 4.27065 2.25 5 2.25H9Z" fill="#101828"/>
<path d="M15.4697 6.46973C15.7626 6.17683 16.2374 6.17683 16.5303 6.46973L21.5303 11.4697C21.5787 11.5181 21.616 11.5732 21.6484 11.6299C21.664 11.657 21.6803 11.6838 21.6924 11.7129C21.7131 11.7629 21.7279 11.8146 21.7373 11.8672C21.745 11.9103 21.75 11.9546 21.75 12C21.75 12.045 21.7449 12.089 21.7373 12.1318C21.7279 12.1845 21.713 12.2361 21.6924 12.2861C21.6803 12.3153 21.6639 12.342 21.6484 12.3691C21.616 12.4261 21.5789 12.4817 21.5303 12.5303L16.5303 17.5303C16.2374 17.8232 15.7626 17.8232 15.4697 17.5303C15.1768 17.2374 15.1768 16.7626 15.4697 16.4697L19.1895 12.75H9C8.58579 12.75 8.25 12.4142 8.25 12C8.25 11.5858 8.58579 11.25 9 11.25H19.1895L15.4697 7.53027C15.1768 7.23738 15.1768 6.76262 15.4697 6.46973Z" fill="#101828"/>
</svg>