<svg width="24" height="24" viewBox="0 0 24 24" fill="none" xmlns="http://www.w3.org/2000/svg">
<path fill-rule="evenodd" clip-rule="evenodd" d="M18.6973 4.55234C20.0239 4.55235 21.1064 5.62822 21.1201 6.95175C21.1203 6.9573 21.121 6.96281 21.1211 6.96835C21.1211 6.97128 21.1221 6.97421 21.1221 6.97714V17.023C21.1221 18.3582 20.0324 19.4478 18.6973 19.4478H5.30273C3.96759 19.4478 2.87794 18.3582 2.87793 17.023V6.97714C2.87793 6.97421 2.8789 6.97128 2.87891 6.96835C2.87896 6.96281 2.8797 6.9573 2.87988 6.95175C2.8936 5.62821 3.97607 4.55234 5.30273 4.55234H18.6973ZM12.4297 13.4518C12.1716 13.6322 11.8284 13.6322 11.5703 13.4518L4.37793 8.4166V17.023C4.37794 17.5298 4.79602 17.9478 5.30273 17.9478H18.6973C19.204 17.9478 19.6221 17.5297 19.6221 17.023V8.4166L12.4297 13.4518ZM5.30273 6.05234C4.91719 6.05234 4.58312 6.29444 4.44531 6.63339L12 11.9225L19.5537 6.63339C19.4158 6.29461 19.0827 6.05235 18.6973 6.05234H5.30273Z" fill="#101828"/>
</svg>