<svg width="24" height="24" viewBox="0 0 24 24" fill="none" xmlns="http://www.w3.org/2000/svg">
<path d="M8.29864 8.4781C8.71047 8.47828 9.04462 8.81235 9.04474 9.2242V12.0007C9.04451 12.4125 8.7104 12.7466 8.29864 12.7468C7.88688 12.7466 7.55277 12.4125 7.55254 12.0007V9.2242C7.55266 8.81236 7.88681 8.47828 8.29864 8.4781Z" fill="#111827"/>
<path d="M12.001 8.4781C12.4126 8.4785 12.747 8.81249 12.7471 9.2242V12.0007C12.7468 12.4123 12.4126 12.7464 12.001 12.7468C11.5891 12.7468 11.2551 12.4126 11.2549 12.0007V9.2242C11.255 8.81224 11.589 8.4781 12.001 8.4781Z" fill="#111827"/>
<path d="M15.7023 8.4781C16.1141 8.47838 16.4483 8.81241 16.4484 9.2242V12.0007C16.4482 12.4124 16.114 12.7465 15.7023 12.7468C15.2904 12.7468 14.9565 12.4126 14.9562 12.0007V9.2242C14.9564 8.81224 15.2904 8.4781 15.7023 8.4781Z" fill="#111827"/>
<path fill-rule="evenodd" clip-rule="evenodd" d="M18.0154 4.77674C18.6494 4.77673 19.1818 4.77578 19.6116 4.81948C20.0534 4.86444 20.4693 4.96358 20.8454 5.21488C21.1289 5.40435 21.3739 5.64732 21.5633 5.93086L21.6508 6.07367C21.8386 6.41139 21.9184 6.77897 21.9577 7.16562C22.0014 7.59541 22.0005 8.12784 22.0005 8.76177V12.4631C22.0005 13.0974 22.0014 13.6297 21.9577 14.0593C21.9184 14.446 21.8386 14.8136 21.6508 15.1512L21.5633 15.2941C21.4212 15.5067 21.2483 15.6968 21.0513 15.8585L20.8464 16.011C20.6271 16.1575 20.3934 16.2499 20.1498 16.3122V17.5528C20.1497 17.9959 19.9736 18.4217 19.6602 18.7351C19.3468 19.0484 18.921 19.2246 18.4779 19.2247H13.8517C13.4085 19.2247 12.9828 19.0483 12.6694 18.7351C12.356 18.4217 12.1798 17.9959 12.1797 17.5528V16.4482H9.97057V17.5528C9.97048 17.9959 9.79432 18.4217 9.48094 18.7351C9.16755 19.0484 8.7418 19.2246 8.29864 19.2247H5.5231C5.07997 19.2247 4.65423 19.0483 4.3408 18.7351C4.02742 18.4217 3.85126 17.9959 3.85117 17.5528V16.3122C3.65988 16.2633 3.47409 16.1967 3.29742 16.0984L3.15462 16.011C2.87107 15.8216 2.62714 15.5776 2.43766 15.2941L2.43863 15.2931C2.18733 14.917 2.0882 14.5011 2.04324 14.0593C1.99953 13.6295 2.00049 13.0971 2.00049 12.4631V8.76177C2.00049 8.12781 1.99956 7.59542 2.04324 7.16562C2.08821 6.72354 2.18702 6.30719 2.43863 5.93086C2.62811 5.64735 2.87107 5.40333 3.15462 5.2139C3.53095 4.96229 3.94729 4.86445 4.38938 4.81948C4.81918 4.7758 5.35156 4.77674 5.98553 4.77674H18.0154ZM5.34338 17.5528C5.34347 17.6002 5.36229 17.6465 5.39584 17.68C5.42943 17.7134 5.47572 17.7325 5.5231 17.7325H8.29864C8.34605 17.7324 8.39236 17.7135 8.4259 17.68C8.45945 17.6465 8.47827 17.6002 8.47836 17.5528V16.4482H5.98553C5.7585 16.4482 5.54421 16.4461 5.34338 16.4443V17.5528ZM18.0154 16.4482H13.6719V17.5528C13.672 17.6002 13.6908 17.6465 13.7244 17.68C13.758 17.7134 13.8043 17.7325 13.8517 17.7325H18.4779C18.5253 17.7324 18.5716 17.7135 18.6051 17.68C18.6387 17.6465 18.6575 17.6002 18.6576 17.5528V16.4443C18.4568 16.4461 18.2424 16.4482 18.0154 16.4482ZM5.98553 6.26894C5.32084 6.26894 4.87768 6.26973 4.54093 6.30391C4.21698 6.33685 4.07428 6.39443 3.98427 6.45449L3.98329 6.45546C3.86299 6.53593 3.75968 6.63923 3.67922 6.75954L3.67825 6.76051C3.61819 6.85053 3.56061 6.99324 3.52767 7.31717C3.49348 7.65393 3.49269 8.0971 3.49269 8.76177V12.4631C3.49269 13.1281 3.49342 13.5719 3.52767 13.9087C3.56062 14.2321 3.61824 14.3745 3.67825 14.4644L3.67922 14.4654C3.75974 14.5857 3.86292 14.69 3.98329 14.7704C4.07333 14.8304 4.21728 14.8881 4.54093 14.921C4.87768 14.9552 5.32088 14.956 5.98553 14.956H18.0154C18.6804 14.956 19.1242 14.9552 19.461 14.921C19.7845 14.888 19.9268 14.8304 20.0167 14.7704C20.1373 14.6898 20.2421 14.586 20.3227 14.4654C20.3828 14.3753 20.4404 14.2322 20.4733 13.9087C20.5076 13.5721 20.5083 13.1286 20.5083 12.4631V8.76177C20.5083 8.09713 20.5075 7.65392 20.4733 7.31717C20.4404 6.99352 20.3827 6.85054 20.3227 6.76051C20.2423 6.64014 20.138 6.53599 20.0177 6.45546L20.0167 6.45449C19.9268 6.39449 19.7844 6.33686 19.461 6.30391C19.1242 6.26966 18.6804 6.26894 18.0154 6.26894H5.98553Z" fill="#111827"/>
</svg>
