<svg width="24" height="24" viewBox="0 0 20 20" fill="none" xmlns="http://www.w3.org/2000/svg">
<path d="M18.9127 13.9523C19.2835 13.7669 19.7352 13.918 19.9208 14.2886C20.1059 14.6595 19.9552 15.1103 19.5845 15.2957L10.3359 19.9205C10.1245 20.0262 9.87549 20.0261 9.66414 19.9205L0.415546 15.2957C0.0449538 15.1102 -0.10592 14.6594 0.0791982 14.2886C0.264626 13.9181 0.715559 13.7674 1.08629 13.9523L9.99951 18.4089L18.9127 13.9523Z" fill="#101828"/>
<path d="M18.9127 9.32848C19.2837 9.14302 19.7353 9.2939 19.9208 9.66483C20.1058 10.0356 19.9552 10.4866 19.5845 10.6719L10.3359 15.2967C10.1246 15.4022 9.8754 15.4023 9.66414 15.2967L0.415546 10.6719C0.0448573 10.4866 -0.105713 10.0356 0.0791982 9.66483C0.2646 9.29403 0.715426 9.14332 1.08629 9.32848L9.99951 13.7851L18.9127 9.32848Z" fill="#101828"/>
<path fill-rule="evenodd" clip-rule="evenodd" d="M9.7453 0.0446893C9.93731 -0.0245793 10.151 -0.0134367 10.3359 0.0789108L19.5845 4.7037C19.8388 4.83086 19.9999 5.0911 20 5.37542C19.9999 5.65973 19.8388 5.91998 19.5845 6.04713L10.3359 10.6709C10.1245 10.7766 9.87553 10.7766 9.66414 10.6709L0.415546 6.04713C0.161379 5.91993 0.000110334 5.65963 0 5.37542C0.00010342 5.09111 0.161247 4.83086 0.415546 4.7037L9.66414 0.0789108L9.7453 0.0446893ZM2.42972 5.37444L9.99951 9.15933L17.5693 5.37444L9.99951 1.58954L2.42972 5.37444Z" fill="#101828"/>
</svg>
