<svg width="24" height="24" viewBox="0 0 24 24" fill="none" xmlns="http://www.w3.org/2000/svg">
<path d="M10.6284 4.73199C10.9438 3.86083 12.2084 3.88944 12.4839 4.77399L12.5083 4.86481L15.2349 17.2398L16.5874 14.0923C16.889 13.3906 17.5804 12.9361 18.3442 12.9361H20.1538C20.568 12.9361 20.9038 13.2719 20.9038 13.6861C20.9038 14.1003 20.568 14.4361 20.1538 14.4361H18.3442C18.1799 14.4361 18.0312 14.5341 17.9663 14.6851L15.978 19.3111C15.6013 20.1878 14.3223 20.067 14.1167 19.1353L11.4985 7.25543L9.95166 13.0201C9.7274 13.8551 8.96964 14.4361 8.10498 14.4361H3.84619C3.43201 14.4361 3.09624 14.1003 3.09619 13.6861C3.09622 13.2719 3.432 12.9361 3.84619 12.9361H8.10498C8.29103 12.9361 8.45416 12.8111 8.50244 12.6314L10.6001 4.82184L10.6284 4.73199Z" fill="#101828"/>
</svg>