<svg width="24" height="24" viewBox="0 0 24 24" fill="none" xmlns="http://www.w3.org/2000/svg">
<path d="M14.3405 17.9679C14.0501 18.2582 13.579 18.258 13.2884 17.9679C12.9979 17.6774 12.998 17.2064 13.2884 16.9159L17.4619 12.7434L4.74401 12.7434C4.33326 12.7432 4 12.4102 4 11.9994C4.00014 11.5887 4.33334 11.2556 4.74401 11.2554L17.4599 11.2554L13.2884 7.08395C12.9979 6.7934 12.9979 6.32243 13.2884 6.03188C13.579 5.7415 14.05 5.74138 14.3405 6.03188L19.782 11.4734C19.8311 11.5225 19.8687 11.5785 19.9012 11.6361C19.9158 11.662 19.9304 11.6879 19.9419 11.7156C19.9625 11.7656 19.9781 11.817 19.9874 11.8696C19.9949 11.9118 20 11.9551 20 11.9994C20 12.0447 19.9942 12.0891 19.9864 12.1321C19.9856 12.1366 19.9854 12.1412 19.9845 12.1457C19.9803 12.167 19.9721 12.1871 19.9661 12.2077C19.9591 12.2316 19.9542 12.2562 19.9448 12.2794C19.9439 12.2817 19.9428 12.2839 19.9419 12.2862C19.9206 12.3371 19.894 12.3851 19.8624 12.4296C19.8385 12.4632 19.8122 12.4962 19.782 12.5264L14.3405 17.9679Z" fill="#101828"/>
</svg>
