<svg width="24" height="24" viewBox="0 0 24 24" fill="none" xmlns="http://www.w3.org/2000/svg">
<path d="M14.1504 15.502C14.5092 15.5022 14.7998 15.7935 14.7998 16.1523V17.502H20.25C20.6642 17.502 21 17.8377 21 18.252C20.9998 18.666 20.6641 19.002 20.25 19.002H14.7998V20.3496C14.7998 20.7085 14.5092 20.9998 14.1504 21C13.7914 21 13.5 20.7086 13.5 20.3496V16.1523C13.5 15.7934 13.7914 15.502 14.1504 15.502Z" fill="#101828"/>
<path d="M11.25 17.502C11.6642 17.502 12 17.8377 12 18.252C11.9998 18.666 11.6641 19.002 11.25 19.002H3.75C3.33593 19.002 3.00023 18.666 3 18.252C3 17.8377 3.33579 17.502 3.75 17.502H11.25Z" fill="#101828"/>
<path d="M11.25 9.49707C11.6642 9.49707 11.9999 9.83291 12 10.2471V11.4961H20.25C20.6641 11.4961 20.9999 11.832 21 12.2461C21 12.6603 20.6642 12.9961 20.25 12.9961H12V14.2451C11.9998 14.6592 11.6641 14.9951 11.25 14.9951C10.8359 14.9951 10.5002 14.6592 10.5 14.2451V10.2471C10.5001 9.83291 10.8358 9.49707 11.25 9.49707Z" fill="#101828"/>
<path d="M8.25 11.4961C8.66414 11.4961 8.99989 11.832 9 12.2461C9 12.6603 8.66421 12.9961 8.25 12.9961H3.75C3.33579 12.9961 3 12.6603 3 12.2461C3.00011 11.832 3.33586 11.4961 3.75 11.4961H8.25Z" fill="#101828"/>
<path d="M14.25 3C14.6642 3 15 3.33579 15 3.75V4.99902H20.25C20.6642 4.99902 20.9999 5.33486 21 5.74902C21 6.16324 20.6642 6.49902 20.25 6.49902H15V7.74805C14.9998 8.16206 14.6641 8.49805 14.25 8.49805C13.8359 8.49805 13.5002 8.16206 13.5 7.74805V3.75C13.5 3.33579 13.8358 3 14.25 3Z" fill="#101828"/>
<path d="M11.25 4.99902C11.6642 4.99902 11.9999 5.33486 12 5.74902C12 6.16324 11.6642 6.49902 11.25 6.49902H3.75C3.33579 6.49902 3 6.16324 3 5.74902C3.00006 5.33486 3.33582 4.99902 3.75 4.99902H11.25Z" fill="#101828"/>
</svg>
