<svg width="20" height="20" viewBox="0 0 20 20" fill="none" xmlns="http://www.w3.org/2000/svg">
<path d="M10.7427 18.4757C11.153 18.4403 11.5152 18.7446 11.551 19.1548C11.5864 19.5652 11.2822 19.9274 10.8719 19.9631C10.5848 19.9879 10.2936 20 10.0005 20C9.70734 20 9.41612 19.9879 9.12906 19.9631C8.71875 19.9274 8.41453 19.5652 8.44999 19.1548C8.48581 18.7448 8.84718 18.4405 9.2573 18.4757C9.50179 18.4969 9.75018 18.5078 10.0005 18.5078C10.2506 18.5078 10.4984 18.4968 10.7427 18.4757Z" fill="currentColor"/>
<path d="M4.08122 17.1526C4.3178 16.8156 4.7835 16.7338 5.12071 16.9699C5.52426 17.253 5.95359 17.5027 6.40404 17.7131C6.77726 17.8875 6.9387 18.3317 6.76446 18.705C6.59008 19.0782 6.14583 19.2396 5.77257 19.0654C5.24263 18.8179 4.73705 18.5247 4.26288 18.1921C3.92618 17.9553 3.84475 17.4897 4.08122 17.1526Z" fill="currentColor"/>
<path d="M14.8803 16.9699C15.2173 16.7339 15.6821 16.816 15.9188 17.1526C16.1554 17.4898 16.0743 17.9554 15.7371 18.1921C15.2628 18.5248 14.7575 18.8178 14.2274 19.0654C13.8542 19.2394 13.4098 19.0781 13.2355 18.705C13.0616 18.3319 13.2231 17.8876 13.596 17.7131C14.0466 17.5026 14.4766 17.2531 14.8803 16.9699Z" fill="currentColor"/>
<path d="M1.29499 13.2355C1.66808 13.0613 2.11224 13.2232 2.28688 13.596C2.49731 14.0464 2.747 14.4767 3.03007 14.8803C3.26631 15.2175 3.1845 15.6822 2.84743 15.9188C2.51013 16.1553 2.04458 16.0743 1.80794 15.7371C1.47535 15.2629 1.18309 14.7574 0.935542 14.2274C0.761631 13.8543 0.922082 13.4099 1.29499 13.2355Z" fill="currentColor"/>
<path d="M17.7131 13.596C17.8876 13.2231 18.3319 13.0616 18.705 13.2355C19.0781 13.4098 19.2394 13.8542 19.0654 14.2274C18.8178 14.7575 18.5248 15.2628 18.1921 15.7371C17.9554 16.0743 17.4898 16.1554 17.1526 15.9188C16.816 15.6821 16.7339 15.2173 16.9699 14.8803C17.2531 14.4766 17.5026 14.0466 17.7131 13.596Z" fill="currentColor"/>
<path d="M0.845194 8.44999C1.25551 8.48555 1.55952 8.84698 1.52426 9.2573C1.50314 9.50178 1.49222 9.75018 1.4922 10.0005C1.49222 10.2506 1.50318 10.4984 1.52426 10.7427C1.55973 11.1532 1.25567 11.5155 0.845194 11.551C0.434968 11.5862 0.0735793 11.2821 0.037888 10.8719C0.0130963 10.5849 1.16935e-05 10.2936 0 10.0005C1.20835e-05 9.70732 0.0130917 9.41615 0.037888 9.12906C0.0735326 8.71886 0.434967 8.41478 0.845194 8.44999Z" fill="currentColor"/>
<path d="M19.1548 8.44999C19.5652 8.41453 19.9274 8.71875 19.9631 9.12906C19.9879 9.41612 20 9.70734 20 10.0005C20 10.2936 19.9879 10.5848 19.9631 10.8719C19.9274 11.2822 19.5652 11.5864 19.1548 11.551C18.7446 11.5152 18.4403 11.153 18.4757 10.7427C18.4968 10.4984 18.5078 10.2506 18.5078 10.0005C18.5078 9.75018 18.4969 9.50179 18.4757 9.2573C18.4405 8.84718 18.7448 8.48581 19.1548 8.44999Z" fill="currentColor"/>
<path d="M1.80794 4.26288C2.04453 3.92595 2.51023 3.84505 2.84743 4.08122C3.18467 4.31785 3.26662 4.7834 3.03007 5.12071C2.74694 5.52433 2.49735 5.9535 2.28688 6.40404C2.11244 6.77728 1.66828 6.93883 1.29499 6.76446C0.922159 6.58984 0.761262 6.14568 0.935542 5.77257C1.18314 5.24254 1.47526 4.73712 1.80794 4.26288Z" fill="currentColor"/>
<path d="M17.1526 4.08122C17.4897 3.84475 17.9553 3.92618 18.1921 4.26288C18.5247 4.73705 18.8179 5.24263 19.0654 5.77257C19.2396 6.14583 19.0782 6.59008 18.705 6.76446C18.3317 6.9387 17.8875 6.77726 17.7131 6.40404C17.5027 5.95359 17.253 5.52426 16.9699 5.12071C16.7338 4.7835 16.8156 4.3178 17.1526 4.08122Z" fill="currentColor"/>
<path d="M5.77257 0.935542C6.14568 0.761262 6.58984 0.922159 6.76446 1.29499C6.93883 1.66828 6.77728 2.11244 6.40404 2.28688C5.9535 2.49735 5.52433 2.74694 5.12071 3.03007C4.7834 3.26662 4.31785 3.18467 4.08122 2.84743C3.84505 2.51023 3.92595 2.04453 4.26288 1.80794C4.73712 1.47526 5.24254 1.18314 5.77257 0.935542Z" fill="currentColor"/>
<path d="M13.2355 1.29499C13.4099 0.922082 13.8543 0.761631 14.2274 0.935542C14.7574 1.18309 15.2629 1.47535 15.7371 1.80794C16.0743 2.04458 16.1553 2.51013 15.9188 2.84743C15.6822 3.1845 15.2175 3.26631 14.8803 3.03007C14.4767 2.747 14.0464 2.49731 13.596 2.28688C13.2232 2.11224 13.0613 1.66808 13.2355 1.29499Z" fill="currentColor"/>
<path d="M10.0005 0C10.2936 1.16935e-05 10.5849 0.0130963 10.8719 0.037888C11.2821 0.0735793 11.5862 0.434968 11.551 0.845194C11.5155 1.25567 11.1532 1.55973 10.7427 1.52426C10.4984 1.50318 10.2506 1.49222 10.0005 1.4922C9.75018 1.49222 9.50178 1.50314 9.2573 1.52426C8.84698 1.55952 8.48555 1.25551 8.44999 0.845194C8.41478 0.434967 8.71886 0.0735326 9.12906 0.037888C9.41615 0.0130917 9.70732 1.20835e-05 10.0005 0Z" fill="currentColor"/>
</svg>
