<svg width="24" height="24" viewBox="0 0 24 24" fill="none" xmlns="http://www.w3.org/2000/svg">
<path fill-rule="evenodd" clip-rule="evenodd" d="M12 1.25195C12.4827 1.25195 12.957 1.37882 13.375 1.62012L13.374 1.62109L20.3721 5.61914L20.375 5.62012C20.7231 5.8211 21.0203 6.09713 21.25 6.4248C21.2983 6.47174 21.3445 6.52286 21.3799 6.58398C21.411 6.63777 21.4317 6.69481 21.4482 6.75195C21.6452 7.13765 21.7495 7.5646 21.75 7.99902V16.001C21.7495 16.4831 21.6221 16.9566 21.3809 17.374C21.1395 17.7915 20.7926 18.1388 20.375 18.3799L20.3721 18.3809L13.374 22.3789L13.375 22.3799C13.0692 22.5564 12.7331 22.6706 12.3857 22.7197C12.2727 22.7881 12.1417 22.8301 12 22.8301C11.858 22.8301 11.7265 22.7883 11.6133 22.7197C11.2663 22.6705 10.9305 22.5562 10.625 22.3799L3.62793 18.3809L3.625 18.3799C3.20738 18.1388 2.86047 17.7915 2.61914 17.374C2.3779 16.9566 2.25055 16.4831 2.25 16.001V7.99902L2.25586 7.81836C2.28083 7.44541 2.38115 7.08097 2.55176 6.74805C2.56829 6.6921 2.5906 6.63669 2.62109 6.58398C2.65633 6.52318 2.701 6.47156 2.74902 6.4248C2.97872 6.09692 3.27672 5.8212 3.625 5.62012L3.62793 5.61914L10.625 1.62109C11.043 1.37975 11.5173 1.25195 12 1.25195ZM3.75 15.999L3.76074 16.1621C3.78221 16.3241 3.83572 16.4807 3.91797 16.623C4.02763 16.8128 4.18525 16.9705 4.375 17.0801L11.25 21.0088V12.4414L3.75 8.10352V15.999ZM12.75 12.4424V21.0088L19.625 17.0801C19.8148 16.9705 19.9724 16.8128 20.082 16.623C20.1915 16.4336 20.2496 16.2188 20.25 16V8.10449L12.75 12.4424ZM12 2.75195C11.7807 2.75195 11.565 2.80933 11.375 2.91895L11.3721 2.9209L4.53711 6.8252L12 11.1426L19.4619 6.82617L12.6279 2.9209L12.625 2.91895C12.435 2.80933 12.2193 2.75195 12 2.75195Z" fill="#101828"/>
</svg>
