<svg width="24" height="24" viewBox="0 0 24 24" fill="none" xmlns="http://www.w3.org/2000/svg">
<path fill-rule="evenodd" clip-rule="evenodd" d="M9.79614 7.63823C10.0402 7.50772 10.3363 7.52189 10.5666 7.67539L16.1164 11.3752C16.3251 11.5145 16.4507 11.7491 16.4507 12C16.4507 12.251 16.3252 12.4855 16.1164 12.6248L10.5666 16.3246C10.3363 16.4781 10.0402 16.4922 9.79614 16.3618C9.55211 16.2311 9.39926 15.9766 9.39917 15.6998V8.30017C9.39922 8.02329 9.55201 7.76888 9.79614 7.63823ZM10.901 14.2968L14.3456 12L10.901 9.70325V14.2968Z" fill="#101828"/>
<path fill-rule="evenodd" clip-rule="evenodd" d="M12 1.99951C17.5227 1.99969 21.9993 6.47733 21.9995 12C21.9993 17.5227 17.5227 21.9993 12 21.9995C6.47732 21.9993 1.99969 17.5227 1.99951 12C1.9997 6.47733 6.47733 1.99968 12 1.99951ZM12 3.50135C7.30677 3.50152 3.50153 7.30677 3.50135 12C3.50152 16.6932 7.30676 20.4975 12 20.4977C16.6932 20.4975 20.4975 16.6932 20.4977 12C20.4975 7.30677 16.6932 3.50152 12 3.50135Z" fill="#101828"/>
</svg>
