<svg width="24" height="24" viewBox="0 0 24 24" fill="none" xmlns="http://www.w3.org/2000/svg">
<path d="M9.65948 6.03169C9.94987 5.74142 10.421 5.74168 10.7116 6.03169C11.0021 6.32221 11.002 6.7932 10.7116 7.08376L6.53814 11.2562H19.256C19.6667 11.2564 20 11.5894 20 12.0002C19.9999 12.4109 19.6667 12.744 19.256 12.7442H6.54008L10.7116 16.9157C11.0021 17.2062 11.0021 17.6772 10.7116 17.9678C10.421 18.2581 9.94998 18.2583 9.65948 17.9678L4.21797 12.5262C4.16891 12.4772 4.13128 12.4211 4.09881 12.3635C4.08419 12.3376 4.06961 12.3118 4.05813 12.2841C4.03747 12.234 4.02187 12.1827 4.01259 12.13C4.00514 12.0878 4.00001 12.0446 4 12.0002C4 11.9549 4.0058 11.9106 4.01356 11.8675C4.01438 11.863 4.0146 11.8584 4.0155 11.8539C4.01975 11.8326 4.02788 11.8126 4.03391 11.7919C4.0409 11.768 4.04579 11.7435 4.05522 11.7202C4.05614 11.718 4.05718 11.7157 4.05813 11.7135C4.07942 11.6625 4.10601 11.6145 4.13756 11.5701C4.16148 11.5364 4.18777 11.5034 4.21797 11.4732L9.65948 6.03169Z" fill="#101828"/>
</svg>
