<svg width="24" height="24" viewBox="0 0 24 24" fill="none" xmlns="http://www.w3.org/2000/svg">
<path d="M20 12.1592C20.4142 12.1592 20.75 12.495 20.75 12.9092V14.7276C20.7499 15.8854 20.3006 16.9995 19.4951 17.8233C18.689 18.6476 17.5917 19.1133 16.4443 19.1133H5.78223L8.0918 21.4756C8.38114 21.7717 8.37591 22.2466 8.08008 22.5362C7.78396 22.8255 7.30908 22.8204 7.01953 22.5244L3.46387 18.8887C3.44107 18.8654 3.42247 18.8389 3.40332 18.8135C3.39409 18.8013 3.38348 18.7901 3.375 18.7774C3.3566 18.7496 3.34244 18.7199 3.32812 18.6905C3.32098 18.6758 3.31284 18.6617 3.30664 18.6465C3.29707 18.623 3.29126 18.5985 3.28418 18.5742C3.26439 18.507 3.25001 18.437 3.25 18.3633C3.25005 18.2761 3.26751 18.1931 3.29492 18.1153C3.29888 18.104 3.30116 18.0922 3.30566 18.0811C3.31699 18.0533 3.33125 18.0271 3.3457 18.001C3.35394 17.9862 3.3608 17.9705 3.37012 17.9561L3.37793 17.9444C3.40597 17.9028 3.43806 17.8642 3.47363 17.8291L7.01953 14.2032C7.30913 13.9071 7.78396 13.9019 8.08008 14.1914C8.37594 14.481 8.38128 14.9559 8.0918 15.252L5.78223 17.6133H16.4443C17.1828 17.6133 17.8944 17.3137 18.4219 16.7744C18.9499 16.2344 19.2499 15.4983 19.25 14.7276V12.9092C19.25 12.495 19.5858 12.1592 20 12.1592Z" fill="#101828"/>
<path d="M15.9199 1.4639C16.216 1.17436 16.6909 1.17958 16.9805 1.47562L20.5361 5.11234C20.5452 5.12164 20.552 5.13296 20.5605 5.14261C20.584 5.16923 20.6074 5.19584 20.627 5.22562C20.6349 5.23773 20.6403 5.25125 20.6475 5.2637C20.6645 5.29318 20.6814 5.3227 20.6943 5.35452C20.7011 5.3713 20.7044 5.38915 20.71 5.40628C20.7336 5.47913 20.75 5.55604 20.75 5.63675C20.75 5.68186 20.744 5.72567 20.7363 5.76859C20.7355 5.77312 20.7353 5.77773 20.7344 5.78226C20.7301 5.80409 20.722 5.82463 20.7158 5.84573C20.7088 5.86986 20.7038 5.89454 20.6943 5.918C20.683 5.946 20.6679 5.97188 20.6533 5.99808C20.644 6.015 20.6358 6.03255 20.625 6.04886C20.6084 6.07393 20.5887 6.09634 20.5693 6.11917C20.5579 6.13266 20.5487 6.14832 20.5361 6.16116L16.9805 9.79691C16.6909 10.093 16.2161 10.0982 15.9199 9.80863C15.624 9.51904 15.6188 9.04416 15.9082 8.74808L18.2158 6.38675H7.55566C6.8171 6.38675 6.10563 6.6871 5.57812 7.22659C5.05018 7.76664 4.75 8.50268 4.75 9.27347V11.0909C4.74979 11.5049 4.41408 11.8409 4 11.8409C3.58592 11.8409 3.25021 11.5049 3.25 11.0909V9.27347C3.25 8.11573 3.69965 7.00155 4.50488 6.17777C5.31097 5.35336 6.40825 4.88675 7.55566 4.88675H18.2178L15.9082 2.52445C15.6187 2.22833 15.6239 1.75349 15.9199 1.4639Z" fill="#101828"/>
</svg>