<svg width="24" height="24" viewBox="0 0 24 24" fill="none" xmlns="http://www.w3.org/2000/svg">
<path d="M19.0585 3.25005C19.4726 3.25024 19.8085 3.58595 19.8085 4.00005V8.70512C19.8085 9.11922 19.4726 9.45493 19.0585 9.45512H14.3525C13.9384 9.45499 13.6025 9.11926 13.6025 8.70512C13.6027 8.2912 13.9385 7.95526 14.3525 7.95512H17.5244C16.7325 7.06886 15.7188 6.40217 14.581 6.02934C13.2034 5.57801 11.717 5.57985 10.3408 6.0352C8.96448 6.49065 7.77004 7.3756 6.93355 8.55962C6.09708 9.74366 5.66271 11.1649 5.69332 12.6143C5.72394 14.0637 6.2177 15.4656 7.10347 16.6133C7.98922 17.761 9.21992 18.5943 10.6142 18.9913C12.0086 19.3882 13.4941 19.3276 14.8515 18.8184C16.2087 18.3092 17.3669 17.378 18.1562 16.1622C18.3817 15.8148 18.8459 15.7161 19.1933 15.9415C19.5408 16.167 19.6395 16.6311 19.414 16.9786C18.45 18.4636 17.0356 19.6009 15.3779 20.2227C13.7202 20.8445 11.9069 20.9183 10.2041 20.4336C8.50117 19.9489 6.99775 18.931 5.91597 17.5293C4.83441 16.1279 4.23081 14.4164 4.19331 12.6465C4.15591 10.8764 4.68734 9.14047 5.70894 7.69438C6.7305 6.24844 8.18835 5.16761 9.8691 4.61137C11.55 4.05516 13.3653 4.05235 15.0478 4.60356C16.2821 5.00795 17.3969 5.69565 18.3085 6.60258V4.00005C18.3085 3.58586 18.6444 3.25008 19.0585 3.25005Z" fill="#101828"/>
</svg>