<svg width="24" height="24" viewBox="0 0 24 24" fill="none" xmlns="http://www.w3.org/2000/svg">
<path fill-rule="evenodd" clip-rule="evenodd" d="M4.97687 4.97683C7.61281 2.34098 11.8877 2.34114 14.5237 4.97683C16.99 7.44311 17.148 11.3434 14.9993 13.9944L20.2132 19.2092C20.5061 19.5021 20.5061 19.9769 20.2132 20.2698C19.9203 20.5625 19.4455 20.5626 19.1527 20.2698L13.9319 15.0481C11.3716 17.0742 7.68262 16.98 5.22882 14.763L4.97687 14.5237C2.34115 11.8876 2.34094 7.61276 4.97687 4.97683ZM13.4622 6.03835C11.412 3.98845 8.08854 3.98829 6.03839 6.03835C3.98825 8.0885 3.98846 11.4119 6.03839 13.4622C8.08864 15.5124 11.412 15.5124 13.4622 13.4622C15.5124 11.4119 15.5124 8.08857 13.4622 6.03835Z" fill="#101828"/>
</svg>