<svg width="24" height="24" viewBox="0 0 24 24" fill="none" xmlns="http://www.w3.org/2000/svg">
<path fill-rule="evenodd" clip-rule="evenodd" d="M12.0035 7.37557C14.5172 7.37586 16.6253 9.31519 16.6256 11.7926C16.6256 14.2702 14.5173 16.2102 12.0035 16.2105C9.4894 16.2105 7.38142 14.2704 7.38142 11.7926C7.38171 9.315 9.48957 7.37557 12.0035 7.37557ZM12.0035 8.87557C10.2402 8.87557 8.88171 10.2191 8.88142 11.7926C8.88142 13.3662 10.2401 14.7105 12.0035 14.7105C13.7666 14.7102 15.1256 13.3661 15.1256 11.7926C15.1253 10.2193 13.7665 8.87585 12.0035 8.87557Z" fill="#101828"/>
<path fill-rule="evenodd" clip-rule="evenodd" d="M10.1236 2.07479C11.3526 1.86442 12.6456 1.86437 13.8746 2.07479H13.8775L13.9332 2.08553L13.9342 2.08455C14.1814 2.12705 14.4163 2.23188 14.6129 2.39119L14.6939 2.46248L14.7711 2.54061C14.9179 2.70204 15.027 2.8962 15.0865 3.10897L15.1119 3.21639L15.3775 4.58065C15.9686 4.82386 16.526 5.13088 17.0445 5.49568L18.4644 5.01717L18.4674 5.01619C18.7051 4.93731 18.9594 4.91998 19.2047 4.96443L19.3092 4.9869L19.4117 5.01717C19.6479 5.09627 19.8629 5.23502 20.0328 5.42342L20.0728 5.46736L20.0748 5.46932C20.8984 6.3865 21.5415 7.43951 21.9713 8.57772L21.9742 8.58553L21.9908 8.63045L22.0259 8.73494C22.0983 8.98219 22.1005 9.24552 22.0308 9.49568C21.9512 9.78112 21.783 10.0312 21.5572 10.2144L20.4449 11.1129C20.4786 11.4074 20.4976 11.7054 20.4976 12.0015C20.4976 12.2979 20.4786 12.5949 20.4449 12.8892L21.5572 13.7887L21.5592 13.7906C22.0194 14.1664 22.2071 14.7901 21.9986 15.3599L21.9791 15.4137L21.9752 15.4224C21.5434 16.5588 20.9062 17.6042 20.0797 18.5289L20.0767 18.5318L20.0377 18.5758L20.0367 18.5748C19.8429 18.7903 19.5902 18.9413 19.314 19.0123C19.0365 19.0834 18.7423 19.073 18.4703 18.982L18.4683 18.981L17.0484 18.5025C16.5292 18.8674 15.9717 19.1731 15.3814 19.4166L15.1158 20.7818C15.0588 21.0728 14.9106 21.3357 14.6988 21.5357C14.4876 21.735 14.2219 21.8639 13.94 21.9127L13.941 21.9137L13.8814 21.9234L13.8785 21.9244C12.6386 22.1357 11.3684 22.1357 10.1285 21.9244L10.1246 21.9234L10.065 21.9137C9.78362 21.8647 9.51906 21.7346 9.30817 21.5357C9.09605 21.3356 8.94723 21.0741 8.89021 20.7828L8.62165 19.4088C8.03587 19.1668 7.48312 18.8611 6.96931 18.4986L5.53767 18.981L5.53474 18.982C5.26309 19.0722 4.96989 19.0822 4.69294 19.0113C4.41591 18.9402 4.16168 18.7901 3.96735 18.5738L3.92927 18.5318L3.92829 18.5299C3.09989 17.6077 2.46323 16.5579 2.03181 15.4224L2.0279 15.4137L2.01228 15.3678C1.90698 15.0909 1.89249 14.7884 1.97224 14.5025C2.05195 14.2172 2.21915 13.9678 2.44489 13.7847L3.56989 12.8726C3.53723 12.5829 3.5201 12.2906 3.52009 11.9996C3.5201 11.71 3.53708 11.4176 3.56989 11.1265L2.44196 10.2144L2.43903 10.2125C1.97861 9.83682 1.79104 9.21161 2.00446 8.63924L2.024 8.58553L2.02692 8.57674C2.45809 7.44003 3.10081 6.38789 3.92243 5.47029L3.92536 5.46736L3.96442 5.42342C4.15842 5.20768 4.41258 5.05777 4.68903 4.9869L4.79353 4.96346C5.03939 4.9191 5.29471 4.93741 5.53278 5.01717L6.9654 5.49959C7.47887 5.13866 8.03295 4.83336 8.61677 4.59041L8.8863 3.21639L8.91169 3.10897C8.9811 2.86081 9.11759 2.63769 9.30329 2.46248L9.38532 2.39119C9.58183 2.23205 9.81686 2.12697 10.064 2.08455L10.1207 2.07479H10.1236ZM13.6217 3.5533C12.5602 3.37156 11.438 3.37161 10.3765 3.5533L10.3756 3.55232L10.3472 3.55721L10.0103 5.28377L9.92829 5.70174L9.5279 5.84529C8.81163 6.10275 8.14556 6.46901 7.55622 6.92732L7.23786 7.1744L5.06403 6.44197L5.03767 6.47322L5.03669 6.47225C4.34136 7.24936 3.80033 8.13696 3.4361 9.09041L5.1861 10.5045L5.10993 10.939C5.0494 11.2868 5.0201 11.6446 5.02009 11.9996C5.0201 12.3592 5.04975 12.716 5.10993 13.0582L5.1861 13.4928L3.44099 14.9078C3.80641 15.8629 4.34258 16.7463 5.04157 17.525L5.06989 17.5562L7.24274 16.8238L7.5611 17.0719C8.0813 17.4769 8.65213 17.8073 9.26423 18.0523L9.52888 18.1519L9.9322 18.2945L10.0152 18.7154L10.3521 20.441L10.3795 20.4459C11.3183 20.6059 12.2784 20.6254 13.2222 20.5054L13.6265 20.4459L13.6539 20.441L14.0718 18.3043L14.4742 18.1607C15.1967 17.9036 15.8624 17.5395 16.4595 17.0758L16.7779 16.8287L17.1588 16.9566L18.9361 17.5562L18.9644 17.525C19.663 16.7427 20.1973 15.8647 20.5621 14.9137L19.1724 13.7877L18.8306 13.5113L18.9049 13.0777C18.966 12.7228 18.9976 12.3606 18.9976 12.0015C18.9976 11.6421 18.9658 11.2775 18.9049 10.9254L18.8306 10.4918L20.5601 9.09041C20.1971 8.13573 19.656 7.24787 18.9586 6.47127L18.9322 6.44197L16.773 7.17049L16.4556 6.92342C15.8575 6.45889 15.1917 6.09296 14.4713 5.83846L14.067 5.69588L13.649 3.55721L13.6217 3.5533Z" fill="#101828"/>
</svg>
