<svg width="24" height="24" viewBox="0 0 24 24" fill="none" xmlns="http://www.w3.org/2000/svg">
<path fill-rule="evenodd" clip-rule="evenodd" d="M10.725 3.27363C11.1872 2.18322 12.6992 2.14894 13.227 3.1711L13.2748 3.27363L15.3706 8.21797L20.7309 8.67305C21.951 8.77679 22.4454 10.297 21.52 11.0988L17.4477 14.6252L18.6713 19.8684C18.9489 21.0606 17.6561 21.9999 16.6079 21.3674L11.9995 18.5861L7.39204 21.3674C6.34387 21.9995 5.05116 21.0604 5.32856 19.8684L6.55122 14.6252L2.47993 11.0988C1.55454 10.297 2.04912 8.777 3.26899 8.67305L8.62837 8.21797L10.725 3.27363ZM10.0942 9.02071C9.8937 9.49325 9.44748 9.81618 8.93598 9.85957L4.06294 10.2727L7.76606 13.4807C8.15412 13.8171 8.32409 14.3408 8.20747 14.841L7.09516 19.6057L11.2846 17.0783L11.4545 16.9904C11.8025 16.8413 12.1974 16.8413 12.5454 16.9904L12.7153 17.0783L16.9038 19.6057L15.7924 14.841C15.6758 14.3409 15.846 13.8171 16.2338 13.4807L19.936 10.2727L15.0639 9.85957C14.5524 9.8161 14.1061 9.49328 13.9057 9.02071L11.9995 4.52363L10.0942 9.02071Z" fill="#101828"/>
</svg>
