<svg width="24" height="24" viewBox="0 0 24 24" fill="none" xmlns="http://www.w3.org/2000/svg">
<path fill-rule="evenodd" clip-rule="evenodd" d="M11.4434 2.83596C11.6515 2.34512 12.3473 2.3453 12.5557 2.83596L14.9131 8.39749C15.0005 8.6037 15.1948 8.74468 15.418 8.7637L21.4463 9.27542C21.9787 9.32059 22.1949 9.98413 21.791 10.334L17.2119 14.3008C17.0425 14.4476 16.9686 14.6762 17.0195 14.8946L18.3945 20.7891C18.5159 21.3094 17.9516 21.7193 17.4941 21.4434L12.3125 18.3155C12.1205 18.1996 11.8795 18.1996 11.6875 18.3155L6.50587 21.4434C6.04841 21.7195 5.48409 21.3094 5.60548 20.7891L6.98048 14.8946C7.0314 14.6763 6.95745 14.4476 6.78809 14.3008L2.20899 10.334C1.80512 9.98413 2.02129 9.32059 2.55372 9.27542L8.58204 8.7637C8.80511 8.74461 8.99955 8.60364 9.08692 8.39749L11.4434 2.83596Z" fill="#F0A000"/>
</svg>
