<svg width="24" height="24" viewBox="0 0 24 24" fill="none" xmlns="http://www.w3.org/2000/svg">
<path fill-rule="evenodd" clip-rule="evenodd" d="M12 2C14.3364 2.00003 16.4835 2.31783 18.0721 2.85225C18.8624 3.11815 19.5567 3.45138 20.0681 3.85812C20.5716 4.2587 20.9997 4.81706 21 5.52544V18.4736C21 19.1806 20.5759 19.7396 20.073 20.1419C19.5633 20.5495 18.8709 20.8829 18.0819 21.1487C16.496 21.683 14.3491 22 12 22C9.6506 22 7.5031 21.6831 5.91712 21.1487C5.12804 20.8828 4.43576 20.5495 3.92604 20.1419C3.42315 19.7396 3 19.1806 3 18.4736V5.5225C3.00145 4.8153 3.42893 4.25817 3.93191 3.85812C4.44344 3.45128 5.13737 3.11818 5.92789 2.85225C7.51661 2.31782 9.66349 2 12 2ZM19.4964 14.0548C19.0837 14.292 18.6044 14.4991 18.0819 14.6751C16.496 15.2094 14.3491 15.5264 12 15.5264C9.65066 15.5264 7.50309 15.2095 5.91712 14.6751C5.39495 14.4992 4.91611 14.2918 4.50359 14.0548V18.4736C4.50359 18.5341 4.53835 18.7068 4.86578 18.9687C5.18655 19.2252 5.69785 19.4892 6.39776 19.725C7.79021 20.1941 9.76735 20.4971 12 20.4971C14.2327 20.497 16.2099 20.1942 17.6022 19.725C18.3021 19.4892 18.8135 19.2252 19.1342 18.9687C19.4614 18.7069 19.4964 18.5341 19.4964 18.4736V14.0548ZM19.4964 7.57534C19.081 7.81422 18.5985 8.02351 18.0721 8.20059C16.4835 8.73501 14.3364 9.05183 12 9.05186C9.66366 9.05186 7.51657 8.73495 5.92789 8.20059C5.40158 8.02354 4.91894 7.81416 4.50359 7.57534V12L4.51436 12.0656C4.53944 12.1516 4.62009 12.2976 4.86578 12.4941C5.18654 12.7506 5.69782 13.0147 6.39776 13.2505C7.79022 13.7196 9.76729 14.0235 12 14.0235C14.2327 14.0234 16.2099 13.7196 17.6022 13.2505C18.302 13.0147 18.8135 12.7506 19.1342 12.4941C19.3798 12.2976 19.4606 12.1516 19.4856 12.0656L19.4964 12V7.57534ZM12 3.50294C9.78149 3.50294 7.804 3.80622 6.40755 4.27593C5.70547 4.51211 5.19095 4.77718 4.86774 5.03425C4.5371 5.2973 4.50359 5.46916 4.50359 5.52642C4.50383 5.58429 4.53801 5.75634 4.86774 6.01859C5.19097 6.27558 5.7057 6.53983 6.40755 6.77593C7.804 7.24562 9.78153 7.54892 12 7.54892C14.2186 7.54889 16.1961 7.24568 17.5925 6.77593C18.2941 6.53988 18.8081 6.27551 19.1313 6.01859C19.461 5.75634 19.4962 5.58429 19.4964 5.52642C19.4964 5.46916 19.4619 5.2973 19.1313 5.03425C18.8081 4.77725 18.2943 4.51205 17.5925 4.27593C16.1961 3.80618 14.2186 3.50297 12 3.50294Z" fill="#101828"/>
</svg>