<svg width="24" height="24" viewBox="0 0 24 24" fill="none" xmlns="http://www.w3.org/2000/svg">
<path fill-rule="evenodd" clip-rule="evenodd" d="M11.9849 1.60095C12.1835 1.60106 12.3746 1.68025 12.5151 1.82068L20.7915 10.0961L20.7925 10.098C21.2907 10.5994 21.5717 11.2779 21.5718 11.9847C21.5717 12.6918 21.2909 13.371 20.7925 13.8724L20.7915 13.8734L13.8833 20.7806L13.8843 20.7816C13.6357 21.0304 13.34 21.228 13.0151 21.3627C12.6903 21.4973 12.3413 21.5667 11.9897 21.5668C11.6384 21.5667 11.2899 21.4971 10.9653 21.3627C10.6406 21.2281 10.3447 21.0302 10.0962 20.7816V20.7806L1.8208 12.516C1.68007 12.3754 1.60119 12.1836 1.60107 11.9847V2.35095C1.60107 1.93674 1.93686 1.60095 2.35107 1.60095H11.9849ZM3.10107 11.6732L11.1567 19.7211H11.1577C11.2669 19.8303 11.3969 19.9178 11.5396 19.9769C11.6821 20.0359 11.8355 20.0667 11.9897 20.0668C12.1443 20.0667 12.2982 20.0361 12.4409 19.9769C12.5837 19.9177 12.7135 19.8304 12.8228 19.7211L19.731 12.8129C19.9489 12.5927 20.0717 12.2946 20.0718 11.9847C20.0717 11.6742 19.9478 11.376 19.729 11.1556V11.1547L11.6743 3.10095H3.10107V11.6732ZM7.17725 6.16736C7.72944 6.16736 8.17709 6.6152 8.17725 7.16736C8.17725 7.71964 7.72953 8.16736 7.17725 8.16736H7.16748C6.61533 8.1672 6.16748 7.71955 6.16748 7.16736C6.16763 6.6153 6.61542 6.16751 7.16748 6.16736H7.17725Z" fill="#101828"/>
</svg>