<svg width="24" height="24" viewBox="0 0 24 24" fill="none" xmlns="http://www.w3.org/2000/svg">
<path fill-rule="evenodd" clip-rule="evenodd" d="M11.9854 1.60059C12.1838 1.60082 12.3752 1.68 12.5156 1.82031L20.792 10.0957L20.793 10.0977C21.2911 10.599 21.5721 11.2777 21.5723 11.9844C21.5722 12.6912 21.2912 13.3707 20.793 13.8721L13.8838 20.7803L13.8848 20.7812C13.6364 21.0299 13.3403 21.2276 13.0156 21.3623C12.691 21.4969 12.3417 21.5663 11.9902 21.5664C11.639 21.5664 11.2903 21.4967 10.9658 21.3623C10.6411 21.2277 10.3452 21.0298 10.0967 20.7812L1.82129 12.5156C1.68056 12.375 1.6007 12.1833 1.60059 11.9844V2.35059C1.60078 1.93654 1.93747 1.60059 2.35156 1.60059H11.9854ZM7.16797 6.16797C6.61568 6.16797 6.16797 6.61568 6.16797 7.16797C6.16817 7.72009 6.61581 8.16797 7.16797 8.16797H7.17773C7.72981 8.16787 8.17754 7.72002 8.17773 7.16797C8.17773 6.61575 7.72994 6.16807 7.17773 6.16797H7.16797Z" fill="#101828"/>
</svg>
