<svg width="24" height="24" viewBox="0 0 24 24" fill="none" xmlns="http://www.w3.org/2000/svg">
<path d="M12 7.08301C12.4141 7.08301 12.7498 7.41894 12.75 7.83301V11.25H17.5557C17.9698 11.2501 18.3057 11.5858 18.3057 12C18.3057 12.4142 17.9698 12.7499 17.5557 12.75H12.75V12.833C12.75 13.2472 12.4142 13.583 12 13.583C11.5858 13.583 11.25 13.2472 11.25 12.833V12.7207C10.9305 12.6347 10.6943 12.3466 10.6943 12C10.6943 11.6533 10.9304 11.3642 11.25 11.2783V7.83301C11.2502 7.41894 11.5859 7.08301 12 7.08301Z" fill="#101828"/>
<path fill-rule="evenodd" clip-rule="evenodd" d="M12 2C17.5228 2 22 6.47715 22 12C22 17.5228 17.5228 22 12 22C6.47715 22 2 17.5228 2 12C2 6.47715 6.47715 2 12 2ZM12 3.5C7.30558 3.5 3.5 7.30558 3.5 12C3.5 16.6944 7.30558 20.5 12 20.5C16.6944 20.5 20.5 16.6944 20.5 12C20.5 7.30558 16.6944 3.5 12 3.5Z" fill="#101828"/>
</svg>