<svg width="24" height="24" viewBox="0 0 24 24" fill="none" xmlns="http://www.w3.org/2000/svg">
<path d="M14.7183 1.62085C16.0342 1.38118 17.3932 1.54792 18.6118 2.09937C18.8357 2.20092 18.9954 2.40642 19.0396 2.64819C19.0836 2.89023 19.0064 3.1392 18.8326 3.31323L15.1743 6.97144L15.147 7.00562C15.1236 7.04139 15.1109 7.08336 15.1109 7.12671C15.1109 7.18472 15.1337 7.24055 15.1743 7.28198H15.1734L16.7222 8.82983C16.7632 8.86807 16.8174 8.89037 16.8736 8.89038C16.9313 8.89025 16.9875 8.86729 17.0288 8.8269L20.687 5.16772C20.8611 4.99381 21.11 4.91658 21.3521 4.96069C21.5941 5.00497 21.7995 5.16527 21.9009 5.3894C22.4523 6.60804 22.6192 7.96608 22.3794 9.28198C22.1397 10.5978 21.5048 11.8098 20.5591 12.7556C19.6133 13.7014 18.4004 14.3371 17.0845 14.5769C15.9422 14.7849 14.7682 14.685 13.6812 14.2947L7.31693 20.6599C6.78978 21.1871 6.07412 21.483 5.32864 21.4832C4.58313 21.4832 3.86759 21.187 3.34036 20.6599C2.81323 20.1327 2.51715 19.4172 2.51712 18.6716C2.51721 17.9262 2.81338 17.2115 3.34036 16.6843L9.70462 10.3191C9.3143 9.23204 9.21623 8.05816 9.42435 6.91577C9.66411 5.59983 10.2989 4.38802 11.2447 3.44214C12.1905 2.4964 13.4024 1.86067 14.7183 1.62085ZM16.9077 3.11597C16.2783 2.98836 15.6265 2.98017 14.9878 3.09644C13.9718 3.28155 13.0355 3.77248 12.3052 4.50269C11.5751 5.23291 11.0851 6.16843 10.8999 7.18433C10.7148 8.2004 10.8433 9.24924 11.2691 10.1902C11.3974 10.4743 11.3369 10.8084 11.1167 11.0291L4.40091 17.7449C4.15523 17.9907 4.01721 18.3241 4.01712 18.6716C4.01715 19.0193 4.15508 19.3535 4.40091 19.5994C4.64684 19.8451 4.98095 19.9832 5.32864 19.9832C5.67629 19.983 6.01054 19.8452 6.25638 19.5994L12.9712 12.8845L13.0591 12.8093C13.2749 12.6517 13.5623 12.6186 13.8111 12.7312C14.7518 13.1567 15.8002 13.2854 16.8159 13.1003C17.8317 12.9152 18.7674 12.4251 19.4976 11.6951C20.2277 10.9649 20.7187 10.0293 20.9038 9.01343C21.0203 8.3741 21.0112 7.72164 20.8833 7.09155L18.0845 9.89233L18.0786 9.89819L18.0777 9.89722C17.756 10.2124 17.3239 10.3903 16.8736 10.3904C16.423 10.3904 15.9903 10.2125 15.6685 9.89722L15.6626 9.89233L14.1079 8.33765L14.1031 8.33179C13.7877 8.00997 13.6109 7.5773 13.6109 7.12671C13.6109 6.67611 13.7876 6.24343 14.1031 5.92163L14.1177 5.90698L16.9077 3.11597Z" fill="#101828"/>
</svg>