<svg width="24" height="24" viewBox="0 0 24 24" fill="none" xmlns="http://www.w3.org/2000/svg">
<g transform="translate(2 2)">
<path fill-rule="evenodd" clip-rule="evenodd" d="M11.333 0C12.8057 0 14 1.19426 14 2.66699V5.33301C14 6.80577 12.8058 8 11.333 8H10.7539C10.7969 8.69744 11.3748 9.24977 12.083 9.25H14.167C15.7037 9.25017 16.9519 10.4739 16.9961 12H17.5L17.7559 12.0127C19.0164 12.1408 20 13.2057 20 14.5V17.5L19.9873 17.7559C19.8677 18.9323 18.9323 19.8677 17.7559 19.9873L17.5 20H14.5C13.2057 20 12.1408 19.0164 12.0127 17.7559L12 17.5V14.5C12 13.1193 13.1193 12 14.5 12H15.4961C15.453 11.3026 14.8752 10.7502 14.167 10.75H12.083C11.2577 10.7499 10.5178 10.3943 10 9.83105C9.48222 10.3943 8.74232 10.7499 7.91699 10.75H5.83301C5.12486 10.7502 4.54702 11.3027 4.50391 12H5.5L5.75586 12.0127C7.01639 12.1408 8 13.2057 8 14.5V17.5L7.9873 17.7559C7.86773 18.9323 6.93228 19.8677 5.75586 19.9873L5.5 20H2.5C1.20566 20 0.140825 19.0164 0.0126953 17.7559L0 17.5V14.5C1.03082e-06 13.1193 1.11929 12 2.5 12H3.00391C3.04809 10.474 4.29632 9.25021 5.83301 9.25H7.91699C8.62525 9.24983 9.2031 8.69747 9.24609 8H8.66699L8.39355 7.98633C7.04909 7.84956 6 6.71356 6 5.33301V2.66699C6.00003 1.28646 7.04911 0.150436 8.39355 0.0136719L8.66699 0H11.333ZM14.5 13.5C13.9477 13.5 13.5 13.9477 13.5 14.5V17.5C13.5 18.0523 13.9477 18.5 14.5 18.5H17.5C18.0523 18.5 18.5 18.0523 18.5 17.5V14.5C18.5 13.9477 18.0523 13.5 17.5 13.5H14.5ZM2.5 13.5C1.94772 13.5 1.5 13.9477 1.5 14.5V17.5C1.5 18.0523 1.94772 18.5 2.5 18.5H5.5C6.05228 18.5 6.5 18.0523 6.5 17.5V14.5C6.5 13.9477 6.05228 13.5 5.5 13.5H2.5ZM8.66699 1.5C8.02268 1.5 7.50003 2.02269 7.5 2.66699V5.33301C7.5 5.97734 8.02266 6.5 8.66699 6.5H11.333C11.9773 6.5 12.5 5.97734 12.5 5.33301V2.66699C12.5 2.02269 11.9773 1.5 11.333 1.5H8.66699Z" fill="#111827"/>
</g>
</svg>
