<svg width="24" height="24" viewBox="0 0 24 24" fill="none" xmlns="http://www.w3.org/2000/svg">
<path fill-rule="evenodd" clip-rule="evenodd" d="M19.5 15C20.3284 15 21 15.6716 21 16.5V19.5C21 20.3284 20.3284 21 19.5 21H16.5C15.6716 21 15 20.3284 15 19.5V16.5C15 15.6716 15.6716 15 16.5 15H17.25V13.5C17.25 13.0858 16.9142 12.75 16.5 12.75H13.5C12.923 12.75 12.3983 12.531 12 12.1738C11.6017 12.531 11.077 12.75 10.5 12.75H7.5C7.08579 12.75 6.75 13.0858 6.75 13.5V15H7.5C8.32843 15 9 15.6716 9 16.5V19.5C9 20.3284 8.32843 21 7.5 21H4.5C3.67157 21 3 20.3284 3 19.5V16.5C3 15.6716 3.67157 15 4.5 15H5.25V13.5C5.25 12.2574 6.25736 11.25 7.5 11.25H10.5C10.9142 11.25 11.25 10.9142 11.25 10.5V9H10.5C9.67157 9 9 8.32843 9 7.5V4.5C9 3.67157 9.67157 3 10.5 3H13.5C14.3284 3 15 3.67157 15 4.5V7.5C15 8.32843 14.3284 9 13.5 9H12.75V10.5C12.75 10.9142 13.0858 11.25 13.5 11.25H16.5C17.7426 11.25 18.75 12.2574 18.75 13.5V15H19.5ZM16.5 19.5H19.5V16.5H16.5V19.5ZM4.5 19.5H7.5V16.5H4.5V19.5ZM10.5 7.5H13.5V4.5H10.5V7.5Z" fill="#101828"/>
</svg>