<svg width="24" height="24" viewBox="0 0 24 24" fill="none" xmlns="http://www.w3.org/2000/svg">
<path fill-rule="evenodd" clip-rule="evenodd" d="M15.4602 6.63379C15.9656 6.63392 16.4514 6.83499 16.8088 7.19238C17.1658 7.54973 17.3663 8.0349 17.3664 8.54004C17.3663 9.04517 17.1658 9.53034 16.8088 9.8877C16.4514 10.2451 15.9656 10.4462 15.4602 10.4463C14.9548 10.4463 14.47 10.2449 14.1125 9.8877C13.7553 9.5303 13.554 9.04537 13.5539 8.54004C13.554 8.03466 13.7552 7.54978 14.1125 7.19238C14.47 6.83513 14.9548 6.6338 15.4602 6.63379ZM15.4602 8.1416C15.3549 8.14162 15.2535 8.18444 15.1789 8.25879C15.1045 8.33329 15.0628 8.43474 15.0627 8.54004C15.0628 8.64525 15.1046 8.74582 15.1789 8.82031C15.2535 8.89487 15.3547 8.93748 15.4602 8.9375C15.5655 8.93737 15.6669 8.8948 15.7414 8.82031C15.8155 8.74586 15.8575 8.64508 15.8576 8.54004C15.8575 8.43479 15.8158 8.33328 15.7414 8.25879C15.6669 8.18433 15.5655 8.14173 15.4602 8.1416Z" fill="#101828"/>
<path fill-rule="evenodd" clip-rule="evenodd" d="M17.7639 2.02539C18.8803 2.02546 19.9509 2.46948 20.7404 3.25879C21.5299 4.04823 21.9746 5.11894 21.9748 6.23535C21.9748 6.24897 21.9746 6.26375 21.9738 6.27734C21.854 8.47368 21.0856 10.586 19.7658 12.3457C18.8599 13.5535 17.7209 14.5567 16.425 15.3037L20.5012 19.3799C20.7938 19.6728 20.7939 20.1476 20.5012 20.4404C20.2084 20.7332 19.7336 20.733 19.4406 20.4404L15.0217 16.0215C14.9055 17.1324 14.5498 18.2074 13.9729 19.1689C13.3022 20.2866 12.357 21.2151 11.2278 21.8662C11.0082 21.9926 10.7394 22.0012 10.5129 21.8877C10.2866 21.7741 10.1328 21.5532 10.1028 21.3018C10.0183 20.5914 9.84449 19.8995 9.58908 19.2412C8.91158 20.0609 8.06855 20.7358 7.10861 21.2158C5.74284 21.8986 4.20382 22.1581 2.68967 21.9609C2.35084 21.9167 2.08293 21.6502 2.0383 21.3115C1.84102 19.7973 2.10155 18.2575 2.78439 16.8916C3.26414 15.9321 3.93773 15.0884 4.75705 14.4111C4.099 14.156 3.40751 13.9818 2.69748 13.8975C2.44595 13.8674 2.22607 13.7128 2.11252 13.4863C1.99905 13.2598 2.00744 12.991 2.134 12.7715C2.7851 11.6423 3.71359 10.697 4.83127 10.0264C5.79205 9.45002 6.86588 9.092 7.9758 8.97559L3.53049 4.53027C3.2376 4.23738 3.2376 3.76262 3.53049 3.46973C3.82339 3.17688 4.29816 3.17685 4.59104 3.46973L8.69455 7.57324C9.44188 6.27772 10.4469 5.14013 11.6545 4.23438C13.4143 2.91458 15.5264 2.14614 17.7229 2.02637L17.7639 2.02539ZM6.259 15.1738C5.35422 15.7685 4.61942 16.5936 4.13303 17.5664C3.67519 18.4823 3.45474 19.4955 3.48654 20.5127C4.50423 20.5447 5.51748 20.3243 6.43381 19.8662C7.4066 19.3798 8.23054 18.6449 8.82541 17.7402C8.49852 17.2296 8.11678 16.7514 7.68283 16.3174C7.2485 15.8831 6.77013 15.5009 6.259 15.1738ZM9.14768 10.1475C9.01274 10.3251 8.80335 10.4385 8.57248 10.4463C7.52612 10.4809 6.50542 10.7818 5.60764 11.3203C5.0287 11.6677 4.51281 12.107 4.07932 12.6182C5.83944 13.0508 7.45663 13.9575 8.74924 15.25C10.0415 16.5422 10.9472 18.1594 11.3801 19.9189C11.8913 19.4855 12.3325 18.9715 12.6799 18.3926C13.2185 17.4948 13.5194 16.4732 13.5539 15.4268C13.5619 15.1962 13.6743 14.9864 13.8518 14.8516L9.14768 10.1475ZM17.7795 3.53418C15.8902 3.64223 14.0741 4.30579 12.5598 5.44141C11.4065 6.30645 10.4677 7.41658 9.80588 8.68457L15.3147 14.1934C16.5829 13.5315 17.6937 12.593 18.5588 11.4395C19.6945 9.92488 20.3572 8.10841 20.4651 6.21875C20.4605 5.50842 20.1767 4.82782 19.674 4.3252C19.1711 3.82249 18.4902 3.53838 17.7795 3.53418Z" fill="#101828"/>
</svg>
