<svg width="24" height="24" viewBox="0 0 24 24" fill="none" xmlns="http://www.w3.org/2000/svg">
<path d="M11.9999 10.9938C12.0807 10.9938 12.1574 11.0103 12.2303 11.0339C12.2488 11.0399 12.2679 11.044 12.286 11.0515C12.3141 11.0631 12.3399 11.0787 12.3661 11.0935C12.3814 11.1021 12.3982 11.1081 12.413 11.1179L12.4188 11.1218C12.4205 11.1229 12.422 11.1245 12.4237 11.1257C12.4407 11.1373 12.4574 11.1496 12.4735 11.1628C12.493 11.1787 12.512 11.1954 12.5302 11.2136L15.1971 13.8806C15.4898 14.1734 15.4897 14.6482 15.1971 14.9411C14.9043 15.2338 14.4294 15.2338 14.1366 14.9411L12.7499 13.5544V18.8552C12.7498 19.2693 12.414 19.6052 11.9999 19.6052C11.5858 19.6052 11.25 19.2693 11.2499 18.8552V13.5544L9.86316 14.9411C9.57031 15.2338 9.09546 15.2338 8.80261 14.9411C8.51011 14.6482 8.50999 14.1734 8.80261 13.8806L11.4696 11.2136C11.5026 11.1806 11.5379 11.1512 11.5751 11.1257C11.5777 11.1238 11.5802 11.1216 11.5829 11.1198C11.5986 11.1093 11.6164 11.1026 11.6327 11.0935C11.6574 11.0795 11.6816 11.0646 11.7079 11.0534L11.7177 11.0495C11.7341 11.0428 11.7516 11.0393 11.7684 11.0339C11.8416 11.0101 11.9188 10.9939 11.9999 10.9938Z" fill="#101828"/>
<path d="M8.48132 5.45771C9.7658 4.6033 11.3177 4.24553 12.8466 4.45186C14.3751 4.65836 15.7771 5.41469 16.7889 6.57881C17.6684 7.59127 18.2019 8.85364 18.3202 10.1794C18.9609 10.3926 19.5332 10.7857 19.9628 11.3181C20.5261 12.017 20.8053 12.905 20.7411 13.8005C20.6765 14.6961 20.274 15.5359 19.6161 16.1472C18.9582 16.7581 18.0921 17.0968 17.1942 17.0954C16.7805 17.0946 16.4461 16.758 16.4462 16.3444C16.447 15.9303 16.783 15.5947 17.1971 15.5954C17.7155 15.5961 18.2158 15.4003 18.5956 15.0476C18.9752 14.6948 19.2076 14.2099 19.245 13.6931C19.282 13.1764 19.1206 12.6638 18.7958 12.2604C18.4704 11.857 18.0032 11.5917 17.4901 11.5183C17.1193 11.4654 16.844 11.1456 16.8456 10.7712C16.8523 9.59346 16.4294 8.45237 15.6571 7.56318C14.8845 6.67416 13.8135 6.09702 12.6464 5.93916C11.4788 5.78159 10.2933 6.05428 9.31238 6.70674C8.33144 7.3594 7.62113 8.34721 7.31531 9.48506C7.24714 9.73734 7.05151 9.93712 6.80066 10.0104C6.20889 10.1832 5.68899 10.5436 5.31921 11.0368C4.94965 11.5301 4.7496 12.1304 4.74988 12.7468L4.76355 13.0271C4.7911 13.3047 4.85953 13.5789 4.96668 13.8376C5.10979 14.1825 5.31985 14.4974 5.58386 14.7614C6.00494 15.1821 6.54553 15.4586 7.12488 15.5563C7.53282 15.6256 7.8089 16.0125 7.74011 16.4206C7.67076 16.8281 7.28356 17.104 6.87585 17.0358C5.99109 16.8867 5.16636 16.4646 4.52332 15.822C4.11994 15.4185 3.79943 14.9378 3.58093 14.4108C3.38992 13.9496 3.27938 13.4582 3.25476 12.9606L3.24988 12.7468C3.24958 11.8059 3.55473 10.8894 4.11902 10.1364C4.59948 9.4956 5.24645 9.00296 5.98523 8.70772C6.43406 7.38208 7.3098 6.23717 8.48132 5.45771Z" fill="#101828"/>
</svg>