<svg width="24" height="24" viewBox="0 0 24 24" fill="none" xmlns="http://www.w3.org/2000/svg">
<path d="M16 14.25C17.2598 14.25 18.4676 14.7508 19.3584 15.6416C20.2492 16.5324 20.75 17.7402 20.75 19V21C20.75 21.4142 20.4142 21.75 20 21.75C19.5858 21.75 19.25 21.4142 19.25 21V19C19.25 18.138 18.9073 17.3116 18.2979 16.7021C17.6884 16.0927 16.862 15.75 16 15.75H8C7.13805 15.75 6.31164 16.0927 5.70215 16.7021C5.09266 17.3116 4.75 18.138 4.75 19V21C4.75 21.4142 4.41421 21.75 4 21.75C3.58579 21.75 3.25 21.4142 3.25 21V19C3.25 17.7402 3.7508 16.5324 4.6416 15.6416C5.5324 14.7508 6.74022 14.25 8 14.25H16Z" fill="#101828"/>
<path fill-rule="evenodd" clip-rule="evenodd" d="M12 2.25C14.6234 2.25 16.75 4.37665 16.75 7C16.75 9.62335 14.6234 11.75 12 11.75C9.37665 11.75 7.25 9.62335 7.25 7C7.25 4.37665 9.37665 2.25 12 2.25ZM12 3.75C10.2051 3.75 8.75 5.20507 8.75 7C8.75 8.79493 10.2051 10.25 12 10.25C13.7949 10.25 15.25 8.79493 15.25 7C15.25 5.20507 13.7949 3.75 12 3.75Z" fill="#101828"/>
</svg>