<svg width="24" height="24" viewBox="0 0 24 24" fill="none" xmlns="http://www.w3.org/2000/svg">
<path fill-rule="evenodd" clip-rule="evenodd" d="M12 3.39355C12.3249 3.39355 12.6446 3.47735 12.9277 3.63672C13.2107 3.79608 13.4478 4.02607 13.6162 4.30371L21.6221 17.668C21.787 17.9537 21.874 18.2784 21.875 18.6084C21.8758 18.9383 21.7903 19.2632 21.6269 19.5498C21.4635 19.8363 21.2276 20.0749 20.9433 20.2422C20.659 20.4095 20.3358 20.5002 20.0058 20.5039H3.99413C3.66422 20.5002 3.34099 20.4095 3.05663 20.2422C2.77236 20.0749 2.53644 19.8363 2.37304 19.5498C2.20969 19.2632 2.12414 18.9383 2.12499 18.6084C2.12594 18.2784 2.21294 17.9537 2.37792 17.668L10.3838 4.30371C10.5522 4.02607 10.7893 3.79608 11.0723 3.63672C11.3553 3.47735 11.6751 3.39356 12 3.39355ZM12 15.7227C11.4478 15.7227 11.0002 16.1705 11 16.7227C11 17.2749 11.4477 17.7226 12 17.7227H12.0098C12.562 17.7227 13.0098 17.2749 13.0098 16.7227C13.0096 16.1705 12.5619 15.7227 12.0098 15.7227H12ZM12 8.41211C11.5858 8.41212 11.2501 8.74796 11.25 9.16211V12.9424C11.2502 13.3564 11.5859 13.6924 12 13.6924C12.4141 13.6924 12.7498 13.3564 12.75 12.9424V9.16211C12.7499 8.74795 12.4142 8.41211 12 8.41211Z" fill="#F0A000"/>
</svg>
