<svg width="24" height="24" viewBox="0 0 24 24" fill="none" xmlns="http://www.w3.org/2000/svg">
<path d="M12 3.29236C12.4289 3.29243 12.8508 3.40323 13.2246 3.61365C13.5518 3.79786 13.8327 4.05301 14.0468 4.35974L14.1347 4.49451L14.1367 4.49841L21.5351 16.85L21.542 16.8597C21.7599 17.2373 21.8747 17.666 21.8759 18.1019C21.877 18.5376 21.7645 18.9665 21.5488 19.3451C21.3329 19.7237 21.0211 20.0401 20.6455 20.2611C20.2698 20.482 19.842 20.601 19.4062 20.6058H4.59274C4.15691 20.601 3.72914 20.4821 3.35349 20.2611C2.97787 20.0401 2.66702 19.7237 2.45114 19.3451C2.23535 18.9665 2.12193 18.5377 2.12302 18.1019C2.12424 17.6661 2.24012 17.2372 2.45798 16.8597L2.46384 16.849H2.46481L9.86227 4.49841L9.86423 4.49451C10.0867 4.12778 10.4007 3.82418 10.7744 3.61365C11.1482 3.40317 11.571 3.29243 12 3.29236ZM12 4.79236C11.8289 4.79243 11.6598 4.83642 11.5107 4.92029C11.3618 5.00425 11.2362 5.12571 11.1474 5.27185L3.75388 17.6146C3.66873 17.7641 3.6235 17.9337 3.62302 18.1058C3.62261 18.2797 3.66783 18.4509 3.75388 18.6019C3.84005 18.7531 3.96429 18.8799 4.11423 18.9681C4.26416 19.0564 4.43541 19.1039 4.60934 19.1058H19.3896C19.5635 19.1039 19.7348 19.0562 19.8847 18.9681C20.0346 18.8799 20.1589 18.753 20.2451 18.6019C20.3312 18.4509 20.3764 18.2797 20.3759 18.1058C20.3755 17.9318 20.3292 17.7605 20.2422 17.6097V17.6088L12.8496 5.26892V5.26794C12.7609 5.12335 12.6361 5.00354 12.4883 4.92029C12.3392 4.83652 12.1709 4.79243 12 4.79236ZM12.0097 15.3607C12.5619 15.3607 13.0096 15.8086 13.0097 16.3607C13.0097 16.913 12.562 17.3607 12.0097 17.3607H12C11.4477 17.3607 11 16.913 11 16.3607C11.0001 15.8086 11.4478 15.3607 12 15.3607H12.0097ZM12 8.62244C12.414 8.62244 12.7497 8.95842 12.75 9.37244V12.8666C12.7499 13.2808 12.4142 13.6166 12 13.6166C11.5858 13.6166 11.25 13.2808 11.25 12.8666V9.37244C11.2502 8.95843 11.5859 8.62245 12 8.62244Z" fill="#101828"/>
</svg>