<svg width="24" height="24" viewBox="0 0 24 24" fill="none" xmlns="http://www.w3.org/2000/svg">
<path fill-rule="evenodd" clip-rule="evenodd" d="M16.3217 1.99756C16.5667 1.9976 16.8103 2.04543 17.0366 2.13916C17.2628 2.23293 17.4689 2.37129 17.642 2.54443C17.815 2.71757 17.9527 2.9238 18.0463 3.1499C18.1399 3.37609 18.1879 3.61899 18.1879 3.86377V8.98682C18.1879 9.23168 18.14 9.47444 18.0463 9.70068C17.9526 9.92691 17.8151 10.133 17.642 10.3062C17.4689 10.4793 17.2627 10.6167 17.0366 10.7104C16.8103 10.8042 16.5666 10.853 16.3217 10.853H12.7504V12.7095H18.8286C20.1155 12.7097 21.1574 13.753 21.1577 15.0376V16.5532C21.1578 16.5596 21.1586 16.5664 21.1586 16.5728C21.1586 16.5789 21.1578 16.5852 21.1577 16.5913V21.2534C21.1573 21.6672 20.8215 22.0032 20.4077 22.0034C19.9936 22.0034 19.658 21.6673 19.6577 21.2534V17.3228H4.3432V21.2534C4.34287 21.6672 4.00705 22.0032 3.5932 22.0034C3.17919 22.0034 2.84354 21.6673 2.8432 21.2534V15.0376C2.84344 13.7533 3.88426 12.7095 5.17035 12.7095H11.2504V10.853H7.67719C6.64671 10.853 5.81114 10.0173 5.81097 8.98682V3.86377C5.81097 3.36892 6.00797 2.89437 6.35785 2.54443C6.70778 2.19453 7.18232 1.99757 7.67719 1.99756H16.3217ZM5.17035 14.2095C4.71445 14.2095 4.34344 14.58 4.3432 15.0376V15.8228H19.6577V15.0376C19.6574 14.5805 19.2862 14.2097 18.8286 14.2095H5.17035ZM7.67719 3.49756C7.58015 3.49757 7.48703 3.53638 7.4184 3.60498C7.34982 3.67361 7.31097 3.76675 7.31097 3.86377V8.98682C7.31114 9.18883 7.47514 9.35301 7.67719 9.35303H16.3217C16.3697 9.35298 16.418 9.34306 16.4623 9.32471C16.5065 9.30636 16.5467 9.27938 16.5805 9.24561C16.6144 9.21165 16.6422 9.17082 16.6606 9.12646C16.6788 9.08227 16.6879 9.03464 16.6879 8.98682V3.86377C16.6879 3.81581 16.6789 3.76746 16.6606 3.72314C16.6422 3.67894 16.6143 3.63885 16.5805 3.60498C16.5467 3.57121 16.5064 3.54425 16.4623 3.52588C16.418 3.50753 16.3697 3.49761 16.3217 3.49756H7.67719Z" fill="#101828"/>
</svg>