<svg width="24" height="24" viewBox="0 0 24 24" fill="none" xmlns="http://www.w3.org/2000/svg">
<path d="M17.4698 5.46979C17.7627 5.1769 18.2374 5.1769 18.5303 5.46979C18.8232 5.76269 18.8232 6.23746 18.5303 6.53034L13.0606 12.0001L18.5303 17.4698C18.8232 17.7627 18.8232 18.2375 18.5303 18.5303C18.2375 18.8232 17.7627 18.8232 17.4698 18.5303L12.0001 13.0606L6.53032 18.5303C6.23745 18.8232 5.76267 18.8232 5.46978 18.5303C5.17688 18.2374 5.17688 17.7627 5.46978 17.4698L10.9395 12.0001L5.46978 6.53034C5.17688 6.23745 5.17688 5.76269 5.46978 5.46979C5.76267 5.1769 6.23743 5.1769 6.53032 5.46979L12.0001 10.9395L17.4698 5.46979Z" fill="#101828"/>
</svg>