<svg width="80" height="80" viewBox="0 0 80 80" fill="none" xmlns="http://www.w3.org/2000/svg">
<path d="M49.6613 58.7503L33.5119 50.9874C31.9211 50.2238 31.2339 48.2894 32.0102 46.6859L39.7731 30.5366C40.5367 28.9458 42.471 28.2586 44.0745 29.0349C46.2634 30.0912 47.5233 30.6893 47.5233 30.6893L47.5106 16.7925L49.6358 16.7797L49.6485 31.6819C49.6485 31.6819 56.9533 34.7616 60.2239 36.7851C60.6947 37.0778 61.5219 37.6505 61.8655 38.6176C62.1328 39.3939 62.1201 40.2847 61.7383 41.0738L53.9754 57.2231C53.1864 58.8393 51.252 59.5265 49.6613 58.7503Z" fill="white"/>
<path d="M78.5238 16.1975C78.002 15.6757 77.3021 15.6885 77.3021 15.6885C77.3021 15.6885 62.3871 16.5284 54.6624 16.7065C52.9699 16.7447 51.29 16.7829 49.6229 16.7956C49.6229 21.7715 49.6229 26.7474 49.6229 31.7106C48.923 31.3797 48.2103 31.0361 47.5104 30.7052C47.5104 26.0729 47.4977 16.8084 47.4977 16.8084C43.8071 16.8593 36.146 16.5284 36.146 16.5284C36.146 16.5284 18.1514 15.6248 16.1916 15.4467C14.9444 15.3703 13.3282 15.1794 11.2284 15.6376C10.1212 15.8666 6.96518 16.5793 4.38179 19.0609C-1.34493 24.164 0.118566 32.2832 0.296731 33.5049C0.513074 34.9939 1.17483 39.1298 4.33089 42.7313C10.1594 49.8706 22.7073 49.7052 22.7073 49.7052C22.7073 49.7052 24.2472 53.383 26.6015 56.7682C29.783 60.9805 33.0536 64.2638 36.2351 64.6583C44.2525 64.6583 60.2746 64.6456 60.2746 64.6456C60.2746 64.6456 61.8017 64.6583 63.8761 63.3348C65.6577 62.2531 67.2485 60.3569 67.2485 60.3569C67.2485 60.3569 68.8902 58.6007 71.1808 54.592C71.8808 53.3576 72.4662 52.1613 72.9752 51.0287C72.9752 51.0287 80 36.1265 80 21.6188C79.86 17.2283 78.7783 16.452 78.5238 16.1975ZM15.2626 42.1714C11.9665 41.0897 10.5667 39.7916 10.5667 39.7916C10.5667 39.7916 8.13598 38.0863 6.91428 34.7266C4.81448 29.1017 6.73611 25.6657 6.73611 25.6657C6.73611 25.6657 7.8051 22.8023 11.6356 21.8479C13.3918 21.377 15.5807 21.4534 15.5807 21.4534C15.5807 21.4534 16.4843 29.0126 17.5787 33.4413C18.495 37.1573 20.7348 43.3294 20.7348 43.3294C20.7348 43.3294 17.4133 42.9349 15.2626 42.1714ZM53.4789 55.8646C53.4789 55.8646 52.7026 57.7099 50.9846 57.8244C50.2465 57.8753 49.6738 57.6717 49.6738 57.6717C49.6738 57.6717 49.6356 57.659 48.9993 57.4045L34.6316 50.4051C34.6316 50.4051 33.2445 49.6798 33.0027 48.4199C32.7227 47.3891 33.3463 46.1165 33.3463 46.1165L40.2565 31.876C40.2565 31.876 40.8674 30.6416 41.8091 30.2216C41.8855 30.1834 42.1018 30.0944 42.3818 30.0307C43.4126 29.7635 44.6725 30.3871 44.6725 30.3871L58.7602 37.2209C58.7602 37.2209 60.3637 37.9463 60.7073 39.2826C60.9491 40.2243 60.6437 41.0642 60.4782 41.4714C59.6765 43.4313 53.4789 55.8646 53.4789 55.8646Z" fill="#609926"/>
<path d="M40.8674 45.5051C39.8239 45.5178 38.9076 46.2432 38.6658 47.2613C38.424 48.2794 38.9203 49.3356 39.8239 49.8065C40.8038 50.3155 42.0509 50.0356 42.7127 49.1193C43.3617 48.2157 43.2599 46.9686 42.4836 46.1796L45.5379 39.9311C45.7288 39.9438 46.0087 39.9565 46.3269 39.8675C46.8487 39.7529 47.2304 39.4093 47.2304 39.4093C47.7649 39.6384 48.3249 39.8929 48.9103 40.1856C49.5211 40.491 50.0938 40.8092 50.6156 41.1146C50.7301 41.1782 50.8446 41.2546 50.9719 41.3564C51.1755 41.5218 51.4046 41.7509 51.57 42.0563C51.8118 42.7563 51.3282 43.9525 51.3282 43.9525C51.0355 44.9197 48.9866 49.1193 48.9866 49.1193C47.9558 49.0938 47.0395 49.7556 46.7341 50.7101C46.4032 51.7409 46.8741 52.9117 47.8667 53.4207C48.8594 53.9297 50.0811 53.637 50.7301 52.7462C51.3664 51.8808 51.3155 50.6719 50.5901 49.8701C50.8319 49.3993 51.061 48.9284 51.3028 48.4321C51.9391 47.1086 53.0208 44.5634 53.0208 44.5634C53.1353 44.347 53.7462 43.2526 53.3644 41.8527C53.0462 40.4019 51.7609 39.7275 51.7609 39.7275C50.2083 38.7221 48.0449 37.7931 48.0449 37.7931C48.0449 37.7931 48.0449 37.2713 47.9049 36.8896C47.7649 36.495 47.5486 36.2405 47.4086 36.0878C48.0067 34.8534 48.6049 33.6317 49.203 32.3973C48.6812 32.1427 48.1722 31.8882 47.6504 31.621C47.0395 32.8681 46.416 34.128 45.8051 35.3752C44.9525 35.3624 44.1635 35.8206 43.7562 36.5714C43.3235 37.3731 43.4126 38.3658 43.998 39.0912C42.9545 41.2291 41.9109 43.3671 40.8674 45.5051Z" fill="#609926"/>
</svg>
