<svg width="80" height="80" viewBox="0 0 80 80" fill="none" xmlns="http://www.w3.org/2000/svg">
<g clip-path="url(#clip0_303_8781)">
<path d="M24.8719 42.4614C29.9759 42.4534 33.9359 42.7068 36.8159 44.0028C38.1146 44.5841 39.3332 45.3281 40.4479 46.2161L41.1039 46.7654C42.7572 48.2295 46.1412 50.5388 50.3092 49.7521C50.8399 49.6508 51.3492 49.5174 51.8372 49.3521C54.1585 49.0133 56.5241 49.1424 58.7948 49.7318C61.0654 50.3213 63.1951 51.359 65.0586 52.7841C62.2452 56.6374 57.9386 59.2081 53.0772 59.5841L52.6239 59.6108C46.9226 59.8988 42.6186 57.2668 39.7626 54.8241C34.7119 52.1148 30.7572 51.4321 28.4452 50.8428C27.1926 50.504 25.9979 49.9791 24.9012 49.2854L24.2639 48.8721C23.3937 48.2653 22.6681 47.4741 22.1386 46.5548C21.4693 45.3837 21.131 44.0527 21.1599 42.7041L21.9972 42.6028C22.9521 42.5019 23.9118 42.4548 24.8719 42.4614ZM68.0399 34.8855C68.2479 35.8988 68.4666 36.3948 68.5466 37.1468C68.8349 40.0238 68.6456 42.9288 67.9866 45.7441C64.985 44.1651 61.7729 43.0237 58.4479 42.3548C58.7572 41.3948 58.9279 40.3814 58.9546 39.3548C58.9759 38.5414 58.8826 38.2374 58.7412 37.4508C60.1786 37.2081 61.9679 36.8108 63.6026 36.3841C65.3279 35.9308 66.6052 35.4054 68.0399 34.8855ZM39.4186 23.7814L39.8319 23.4428C41.3892 22.2054 46.0879 18.9628 52.6452 19.5494C55.6399 19.8161 58.1146 20.8028 60.0559 21.9441C61.8746 23.0161 63.4159 24.5894 64.6852 26.2508C63.5386 27.0774 61.8452 27.9654 59.5759 28.6721C57.0626 29.4469 54.409 29.6563 51.8052 29.2854C48.2506 28.3895 44.3412 29.6961 41.6639 32.6215C40.1759 34.2455 38.4532 35.6321 36.4879 36.6054C33.5119 38.0801 28.9652 38.0508 23.6719 37.7521C22.9975 37.7136 22.325 37.6478 21.6559 37.5548C22.1327 36.1486 22.8902 34.854 23.8826 33.7494C25.0865 32.4157 26.6004 31.3991 28.2906 30.7894C33.7492 28.6721 38.2852 24.8588 39.4186 23.7814ZM15.0452 27.4881C13.3566 26.6055 11.7807 25.5221 10.3519 24.2614C9.74923 23.7281 8.81057 24.1628 8.81057 24.9788V31.6401C8.80969 31.7827 8.84058 31.9237 8.90101 32.0529C8.96143 32.182 9.04987 32.2961 9.1599 32.3868L11.8559 35.0108C12.228 32.2634 13.3293 29.6658 15.0452 27.4881ZM10.2932 56.4214C10.1527 56.523 9.9867 56.5835 9.81377 56.596C9.64084 56.6085 9.46784 56.5726 9.31417 56.4923C9.16051 56.412 9.03224 56.2905 8.94376 56.1414C8.85528 55.9923 8.81008 55.8215 8.81323 55.6481V47.4694C8.81323 47.2215 8.90657 46.9868 9.06923 46.8108L9.21323 46.6854C9.22878 46.675 9.2448 46.6652 9.26123 46.6561L11.9306 45.4935C12.4385 48.2776 13.4994 50.9317 15.0506 53.2988L10.2879 56.4214H10.2932Z" fill="#0A60B5"/>
<path d="M27.488 20.6674C32.832 20.4007 36.8267 22.6674 38.8853 24.1794C37.3253 25.5741 33.1067 28.9367 28.12 30.8781C27.6771 31.0383 27.2451 31.2272 26.8267 31.4434C25.1037 32.3013 23.6479 33.6138 22.6168 35.239C21.5856 36.8643 21.0182 38.7404 20.976 40.6647C20.96 41.3101 20.992 41.9527 21.0773 42.5847H21.0507C21.0347 43.2434 21.088 44.7901 22.0293 46.4087C22.8667 47.8541 23.992 48.6274 24.5493 48.9634C24.8267 49.1501 25.2693 49.4167 25.816 49.6994C26.6104 50.1254 27.4553 50.4497 28.3307 50.6647L29.2693 50.8941C31.648 51.4647 35.256 52.3314 39.6773 54.6834C40.1253 55.0647 40.6053 55.4461 41.1227 55.8194C40.9627 55.9634 40.832 56.0861 40.7253 56.1874C39.8133 56.9687 34.808 61.0967 27.488 60.4434C24.8678 60.2078 22.3341 59.3857 20.0747 58.0381C16.808 56.1021 14.3387 53.0434 12.992 49.4647C10.9829 44.133 10.7703 38.291 12.3867 32.8274C14.368 26.1341 20.1467 21.2247 27.032 20.6994L27.488 20.6674ZM64.9013 52.5741C63.0351 51.1663 60.9084 50.1422 58.6442 49.561C56.3799 48.9797 54.0229 48.8527 51.7094 49.1874C51.2213 49.3474 50.712 49.4807 50.184 49.5794C46.016 50.3607 42.6373 48.0701 40.984 46.6194C40.6627 46.3377 40.3309 46.0682 39.9893 45.8114C41.0959 44.8169 42.3299 43.9739 43.6587 43.3047C46.6373 41.8247 51.1867 41.8541 56.4853 42.1501C63.784 42.5634 68.8267 46.0834 70.8373 47.7021C71.064 47.8807 71.192 48.1554 71.192 48.4434V55.0861C71.1956 55.2674 71.1464 55.4459 71.0502 55.5997C70.954 55.7534 70.8151 55.8759 70.6505 55.952C70.4858 56.028 70.3026 56.0545 70.1231 56.0281C69.9437 56.0018 69.7758 55.9237 69.64 55.8034C68.1967 54.5395 66.6056 53.4551 64.9013 52.5741ZM41.5013 32.7234C41.0213 33.2487 40.52 33.7474 39.992 34.2167C41.0133 34.9874 42.1173 35.6354 43.288 36.1554C46.168 37.4407 50.1227 37.6914 55.224 37.6861C60.7043 37.6645 66.0733 36.1369 70.744 33.2701C70.8817 33.1844 70.9952 33.065 71.0736 32.9231C71.152 32.7812 71.1928 32.6215 71.192 32.4594V24.3074C71.1953 24.1331 71.1498 23.9614 71.0607 23.8115C70.9717 23.6617 70.8425 23.5397 70.6878 23.4593C70.5331 23.3789 70.3591 23.3433 70.1853 23.3565C70.0115 23.3697 69.8448 23.4312 69.704 23.5341C68.232 24.6087 66.0427 25.9794 63.2187 27.0541C62.026 27.7676 60.7531 28.3378 59.4267 28.7527C56.9122 29.5312 54.2563 29.7416 51.6507 29.3687C48.0933 28.4701 44.184 29.7821 41.5013 32.7234Z" fill="#E11312"/>
<path d="M11.9947 49.0939C11.7334 48.3392 11.4881 47.5205 11.2747 46.6485L9.67208 47.3419L9.63208 47.4032L9.62142 47.4645V55.6459C9.62142 55.7712 9.72808 55.8299 9.80808 55.7712L13.8881 53.0859C13.2259 52.0353 12.6719 50.9202 12.2347 49.7579L11.9947 49.0939ZM67.5947 36.4725L67.4614 35.9525L66.5281 36.2992C64.33 37.1845 62.0364 37.811 59.6934 38.1659L59.7094 38.2565C59.7574 38.6085 59.7761 38.9392 59.7627 39.3712C59.7476 40.0294 59.6762 40.6851 59.5494 41.3312L59.4694 41.6752C62.2555 42.166 64.9432 43.1072 67.4268 44.4619L67.5841 43.5445C67.7388 42.5259 67.8294 41.4859 67.8587 40.4299L67.8641 39.3632C67.8524 38.6489 67.8105 37.9353 67.7388 37.2245L67.6987 36.9365L67.5974 36.4725H67.5947ZM9.62408 24.9765V31.6379C9.62408 31.6725 9.63208 31.7019 9.66408 31.7419L11.3387 33.3739L11.4881 32.7792C11.6187 32.3019 11.7734 31.8219 11.9547 31.3392L12.2481 30.6139C12.6054 29.7845 13.0134 29.0219 13.4614 28.3205L13.8481 27.7472L13.7734 27.7045C12.6347 27.0486 11.5512 26.3012 10.5334 25.4699L9.81342 24.8565C9.73875 24.7925 9.62142 24.8485 9.62142 24.9765H9.62408ZM26.1894 48.9739C26.7894 49.2965 27.4507 49.5685 28.1894 49.7792L28.2187 49.7872L28.1761 49.9285L28.2267 49.7899L28.8214 49.9445L30.9387 50.4645C33.0854 51.0139 35.9121 51.8672 39.2187 53.5312L40.1334 54.0032L40.2001 54.0592C40.6321 54.4272 41.0961 54.7979 41.5947 55.1579L42.4134 55.7525L42.3627 55.7979C45.4294 57.8885 48.7868 58.9979 52.5708 58.8059L53.0187 58.7792C57.0694 58.4645 60.8001 56.5312 63.4987 53.4459L63.9121 52.9472L63.2881 52.5339C62.1239 51.8032 60.8734 51.2201 59.5654 50.7979L58.7201 50.5472C56.5645 49.9591 54.3124 49.8122 52.0988 50.1152C51.5639 50.2927 51.0178 50.4343 50.4641 50.5392C46.9494 51.2059 43.7494 49.9845 41.0774 47.8005L39.9441 46.8405C38.8831 45.9961 37.7202 45.2883 36.4827 44.7339C34.1601 43.6885 31.0641 43.2992 25.7787 43.2672H24.3867C23.9121 43.2752 23.4934 43.2939 23.0774 43.3205L22.5787 43.3552L21.9921 43.4112L22.0187 43.6779C22.0934 44.3232 22.2694 44.9845 22.5841 45.6512L22.8454 46.1525L23.1361 46.6139C23.7201 47.3925 24.3681 47.8805 24.7947 48.1552L25.3761 48.5232L25.6161 48.6619L26.1894 48.9739ZM41.8507 45.3605L41.2747 45.8005L42.0694 46.4619C43.7761 47.8112 46.6401 49.4139 50.0374 48.7765L50.5254 48.6725L51.0001 48.5525L51.5334 48.3872L51.9521 48.3312C54.0822 48.065 56.2424 48.1715 58.3361 48.6459L59.0054 48.8112C61.1785 49.3931 63.2284 50.3634 65.0561 51.6752L65.3334 51.8805L65.9627 52.2165C67.3137 52.9722 68.5904 53.8534 69.7761 54.8485L70.1734 55.1872L70.2108 55.2139L70.2401 55.2219L70.3121 55.2085C70.3336 55.1984 70.352 55.1828 70.3654 55.1632C70.3802 55.1412 70.3877 55.1151 70.3867 55.0885V48.4459L70.3734 48.3872L70.3388 48.3445L70.0908 48.1472C69.3175 47.544 68.509 46.9874 67.6694 46.4805L67.6107 46.4539C64.7092 44.9253 61.6054 43.8164 58.3921 43.1605C57.7452 43.0706 57.0949 43.0075 56.4427 42.9712L55.3228 42.9125C53.1121 42.8059 51.0747 42.7632 49.2561 42.8805C47.1281 43.0165 45.3681 43.3685 44.0187 44.0405C43.2606 44.4195 42.5355 44.861 41.8507 45.3605ZM12.9601 33.7872C12.8694 34.1339 12.7841 34.4885 12.7041 34.8539L12.4481 36.7099L12.3787 36.6405C12.0055 39.2096 12.0325 41.821 12.4587 44.3819L12.5467 44.3419L12.7281 45.3472C13.215 48.0252 14.2352 50.578 15.7281 52.8539L16.0774 53.3925C17.2783 54.9778 18.7742 56.3161 20.4827 57.3339C22.6397 58.6206 25.0586 59.4053 27.5601 59.6299C33.8267 60.1899 38.3227 57.0779 39.8107 55.8912L39.3787 55.5285C37.1601 54.3419 35.0321 53.4752 32.8401 52.8085C32.0134 52.5525 31.2134 52.3392 30.2854 52.1152L28.2454 51.6219C26.9054 51.2643 25.6283 50.7031 24.4587 49.9579L23.8001 49.5285C23.1494 49.0752 22.5467 48.5152 22.0214 47.8325C21.7665 47.515 21.5357 47.179 21.3307 46.8272L21.0907 46.3792C20.5345 45.2584 20.2426 44.0251 20.2374 42.7739C20.2103 42.2941 20.1872 41.8141 20.1681 41.3339V40.6459L20.1947 40.0859C20.328 38.217 20.9208 36.4101 21.9205 34.8255C22.9203 33.241 24.296 31.928 25.9254 31.0032L26.2667 30.8165C26.8347 30.5019 27.4134 30.2459 27.9974 30.0352L28.8134 29.7019L29.6294 29.3392L29.9761 29.1765C32.4765 27.934 34.8374 26.4286 37.0187 24.6859L37.5494 24.2512L37.3361 24.1152C35.3307 22.8539 32.2321 21.4592 28.3227 21.4672L27.5334 21.4885L27.0881 21.5152C22.7947 21.8459 18.9414 23.9739 16.2694 27.2112L15.5041 28.2112C14.4639 29.6907 13.6722 31.33 13.1601 33.0645L12.9574 33.7872H12.9601ZM21.7867 40.6885V41.2885L21.8134 41.8139L21.9147 41.8005C22.2614 41.7632 22.6134 41.7339 22.9734 41.7125L23.8747 41.6699C24.1867 41.6592 24.5147 41.6539 24.8721 41.6539H25.8107C31.3041 41.6912 34.5654 42.1045 37.1521 43.2672C38.1121 43.6992 39.0347 44.2139 39.9094 44.8139C40.9485 43.9357 42.088 43.1838 43.3041 42.5739L43.9334 42.2885C45.4374 41.6752 47.2134 41.3712 49.1521 41.2485C51.3761 41.1019 53.8774 41.1872 56.5307 41.3365C56.9841 41.3632 57.4321 41.4005 57.8668 41.4459L58.0107 40.7419C58.0907 40.2779 58.1361 39.8085 58.1468 39.3312C58.1521 39.0992 58.1494 38.9152 58.1361 38.7392L58.0881 38.3659C57.1708 38.4565 56.2161 38.5045 55.2267 38.5072L54.2241 38.5045C49.6001 38.4779 45.8161 38.1819 42.9627 36.9072L42.2374 36.5659C41.2801 36.0863 40.368 35.5213 39.5121 34.8779L40.0427 35.2619C39.0589 36.0645 37.9893 36.7559 36.8534 37.3232C34.0801 38.6992 30.4001 38.9339 23.6267 38.5525C23.1198 38.5236 22.6138 38.48 22.1094 38.4219C21.9147 39.1552 21.8054 39.9152 21.7867 40.6885ZM58.9814 29.7339C56.8016 30.3188 54.5334 30.5013 52.2881 30.2725L51.4561 30.1659C48.9841 29.5419 46.2961 30.0832 44.0481 31.5925C43.5681 31.9285 43.1147 32.3072 42.6827 32.7259L42.2614 33.1605C41.952 33.4995 41.6318 33.8286 41.3014 34.1472L41.6774 34.3872C42.2987 34.7712 42.9441 35.1125 43.6134 35.4112L44.1681 35.6379C46.8241 36.6512 50.4427 36.8752 55.2214 36.8699L56.1227 36.8539C56.9361 36.8272 57.7227 36.7685 58.4827 36.6779L58.6054 36.6565C59.9921 36.4192 61.7521 36.0299 63.3974 35.6005C64.0747 35.4245 64.6534 35.2485 65.3521 35.0059C67.082 34.3539 68.7464 33.5396 70.3228 32.5739L70.3681 32.5259L70.3841 32.4619V24.3099L70.3627 24.2379C70.3534 24.2226 70.3409 24.2095 70.3262 24.1994C70.3114 24.1893 70.2947 24.1824 70.2771 24.1791C70.2595 24.1758 70.2414 24.1763 70.224 24.1804C70.2066 24.1846 70.1903 24.1923 70.1761 24.2032C68.8134 25.1952 66.8534 26.4379 64.3574 27.4832L64.1281 27.5765C63.5833 27.8966 63.0216 28.1868 62.4454 28.4459L61.8267 28.7125C61.1231 29.0313 60.4009 29.3074 59.6641 29.5392L58.9814 29.7339ZM28.4107 31.6459L28.1387 31.7472C27.936 31.8269 27.7359 31.9131 27.5387 32.0059L27.1947 32.1765C27.0233 32.2606 26.8544 32.3495 26.6881 32.4432C25.9147 32.9152 25.1761 33.5179 24.4854 34.2832C23.9432 34.8841 23.4758 35.5485 23.0934 36.2619L22.7947 36.8725L23.0561 36.8992L23.7174 36.9445L25.4134 37.0299C30.8267 37.2619 33.9201 36.9765 36.1254 35.8832C37.1234 35.3848 38.0648 34.7804 38.9334 34.0805L39.9574 33.1445L40.4427 32.6645L41.3281 31.7312C42.2064 30.8529 43.2135 30.1138 44.3148 29.5392C46.7014 28.2592 49.4134 27.8485 51.9228 28.4832C54.4066 28.8461 56.9402 28.6456 59.3361 27.8965C59.7627 27.7632 60.1707 27.6245 60.5628 27.4779C61.2028 27.2139 61.7841 26.9285 62.3067 26.6405L62.8721 26.3152L63.4934 26.0619L63.0054 25.4752C62.1872 24.5384 61.2556 23.7071 60.2321 23.0005L59.6454 22.6299C57.4908 21.3487 55.0757 20.5686 52.5787 20.3472C47.5974 19.9019 43.4694 21.5845 40.3494 24.0592L39.9814 24.3579C38.2454 26.0112 35.5921 27.9792 32.6481 29.6112C31.3361 30.3525 29.9094 31.0592 28.4134 31.6432L28.4107 31.6459ZM71.1628 33.9712L70.8347 34.1685L69.9681 34.6672C69.6534 34.8432 69.3121 35.0245 68.9467 35.2085L69.2161 36.2752C69.2801 36.5472 69.3228 36.7979 69.3494 37.0645C69.627 39.8265 69.4777 42.6147 68.9067 45.3312C69.9468 45.9845 70.7654 46.6005 71.3414 47.0645C71.5475 47.2309 71.7137 47.4413 71.8277 47.6804C71.9417 47.9194 72.0006 48.181 72.0001 48.4459V55.0885L71.9814 55.3499C71.9415 55.6397 71.8294 55.9149 71.6553 56.15C71.4812 56.3851 71.2507 56.5727 70.9851 56.6954C70.7195 56.8181 70.4273 56.872 70.1354 56.8522C69.8435 56.8323 69.5613 56.7394 69.3148 56.5819L69.1121 56.4219C67.949 55.4066 66.6876 54.5098 65.3467 53.7445L64.8134 54.3899C61.8348 57.8539 57.6721 60.0325 53.1334 60.3819L52.6641 60.4139C48.3068 60.6325 44.4934 59.3019 41.1361 56.9125L40.8321 57.1605C39.2188 58.4512 34.3014 61.8752 27.4187 61.2592L26.5761 61.1659C24.1339 60.8304 21.7841 60.007 19.6667 58.7445L18.9921 58.3232C17.389 57.2637 15.9755 55.9422 14.8107 54.4139L10.7707 57.0672C10.5101 57.2583 10.2014 57.373 9.8792 57.3986C9.55702 57.4242 9.23408 57.3596 8.94652 57.2121C8.65896 57.0646 8.41813 56.8399 8.25098 56.5633C8.08382 56.2867 7.99695 55.969 8.00008 55.6459V47.4672C8.00008 47.0192 8.17075 46.5872 8.53342 46.2059L8.74675 46.0245L8.93341 45.9179L10.9334 45.0485C10.6718 43.6058 10.5291 42.144 10.5067 40.6779V39.6592C10.5414 38.0885 10.7121 36.6219 10.9654 35.2725L8.65075 33.0085C8.44693 32.8431 8.28271 32.6341 8.17013 32.3969C8.05754 32.1597 7.99944 31.9004 8.00008 31.6379V24.9765C8.00008 23.4752 9.76008 22.6565 10.8907 23.6565C12.0401 24.6699 13.3467 25.6192 14.8054 26.4379C17.7521 22.7232 22.0934 20.2565 26.9734 19.8859L27.0161 20.4699L26.9761 19.8832L27.4454 19.8539C32.6534 19.5925 36.6294 21.6272 38.8827 23.1792L38.9014 23.1605L39.3254 22.8139C42.7521 20.0939 47.2561 18.2592 52.7174 18.7445C55.4565 18.9874 58.1059 19.8431 60.4694 21.2485C62.1281 22.2272 63.6427 23.6299 65.0348 25.3819C66.507 24.6754 67.9119 23.8364 69.2321 22.8752L69.4534 22.7365C69.7212 22.5985 70.0202 22.5321 70.3213 22.5438C70.6223 22.5555 70.9152 22.6448 71.1716 22.8032C71.4279 22.9616 71.6389 23.1835 71.7841 23.4475C71.9292 23.7115 72.0037 24.0086 72.0001 24.3099V32.4619L71.9814 32.7232C71.9442 32.9783 71.8517 33.2222 71.7102 33.4378C71.5688 33.6534 71.382 33.8355 71.1628 33.9712Z" fill="black"/>
</g>
<defs>
<clipPath id="clip0_303_8781">
<rect width="64" height="64" fill="white" transform="translate(8 8)"/>
</clipPath>
</defs>
</svg>
