<svg width="180" height="56" viewBox="0 0 180 56" fill="none" xmlns="http://www.w3.org/2000/svg">
<g clip-path="url(#clip0_303_8778)">
<path d="M20 42.171V22.2253H24.5501V24.7523C25.6981 22.7046 28.1981 21.6378 30.4498 21.6378C33.0727 21.6378 35.3661 22.8275 36.433 25.1628C37.994 22.54 40.3293 21.6378 42.9103 21.6378C46.519 21.6378 49.9604 23.9337 49.9604 29.2213V42.171H45.371V29.9981C45.371 27.6628 44.1812 25.9002 41.5166 25.9002C39.0165 25.9002 37.377 27.8668 37.377 30.325V42.1686H32.7064V29.9981C32.7064 27.7045 31.5535 25.9125 28.8495 25.9125C26.3102 25.9125 24.7099 27.798 24.7099 30.3373V42.1808L20 42.171Z" fill="#ffffff"/>
<path d="M55.7765 42.1707V12.4978H60.533V42.1707H55.7765Z" fill="#ffffff"/>
<path d="M58.623 53.028C59.6923 53.3255 60.6536 53.5197 62.6938 53.5197C66.4868 53.5197 70.9606 51.381 72.1382 45.3781L77.0004 21.3099H84.2299L85.1125 17.3055H77.8092L78.7924 12.5219C79.5447 8.80763 81.5997 6.92466 84.8986 6.92466C85.7566 6.92466 85.5156 6.9984 86.2801 7.14343L87.3372 3.04317C86.3194 2.73836 85.4075 2.55645 83.4213 2.55645C81.3244 2.52492 79.277 3.19551 77.6051 4.46155C75.7542 5.89222 74.5324 7.99396 73.9745 10.7078L72.6052 17.3055H66.1401L65.6116 21.3125H71.8063L67.3422 43.5665C66.8505 46.091 65.415 49.1097 61.2951 49.1097C60.361 49.1097 60.7002 49.0384 59.8547 48.9007L58.623 53.028Z" fill="#0194E2"/>
<path d="M88.5119 42.0058H83.7578L90.2745 12.0674H95.0286L88.5119 42.0058Z" fill="#0194E2"/>
<path d="M112.229 23.4774C108.079 20.574 102.43 21.1449 98.9457 24.8196C95.4611 28.4943 95.191 34.1659 98.3104 38.1552L101.425 35.8691C99.8789 33.9512 99.565 31.3185 100.617 29.0909C101.668 26.8632 103.9 25.4324 106.363 25.4071V27.8406L112.229 23.4774Z" fill="#43C9ED"/>
<path d="M100.427 40.1663C104.576 43.0697 110.225 42.4988 113.71 38.8241C117.194 35.1495 117.464 29.4778 114.345 25.4886L111.23 27.7747C112.776 29.6925 113.09 32.3252 112.039 34.5528C110.987 36.7805 108.755 38.2113 106.292 38.2366V35.8031L100.427 40.1663Z" fill="#0194E2"/>
<path d="M120.302 22.2154H125.496L126.553 35.8461L133.949 22.2154L138.88 22.2867L140.818 35.8461L147.334 22.2154L152.088 22.2867L142.226 42.1858H137.472L135.181 27.9208L127.61 42.1858H122.679L120.302 22.2154Z" fill="#0194E2"/>
<path d="M154.955 22.5651H153.971V22.2235H156.341V22.5725H155.358V25.4535H154.955V22.5651Z" fill="#0194E2"/>
<path d="M156.935 22.2235H157.427L158.046 23.9442C158.126 24.1654 158.199 24.3916 158.275 24.6177H158.298C158.374 24.3916 158.443 24.1654 158.519 23.9442L159.133 22.2235H159.625V25.4535H159.242V23.6714C159.242 23.3887 159.273 23.0003 159.293 22.7126H159.273L159.028 23.4501L158.418 25.1242H158.15L157.533 23.4525L157.287 22.7151H157.268C157.29 23.0027 157.322 23.3911 157.322 23.6738V25.4559H156.948L156.935 22.2235Z" fill="#0194E2"/>
</g>
<defs>
<clipPath id="clip0_303_8778">
<rect width="140" height="51.3761" fill="white" transform="translate(20 2.31192)"/>
</clipPath>
</defs>
</svg>
