<svg width="134" height="124" viewBox="0 0 134 124" fill="none" xmlns="http://www.w3.org/2000/svg">
<path d="M66.4645 6.10352e-05C69.0141 0.472427 69.2131 1.56896 70.358 3.67597C81.382 23.9627 92.1851 44.3641 103.144 64.6842C111.184 79.4222 119.127 94.2099 126.973 109.045C128.872 112.66 131.067 116.31 132.708 120.042C133.086 120.901 133.29 121.682 132.675 122.443C132.032 122.511 131.881 122.306 131.245 121.802C126.626 118.149 122.135 114.245 117.67 110.421C107.755 101.922 97.9546 93.2995 88.2722 84.5525C83.8548 80.624 78.0739 75.8439 73.9912 71.5472C73.3773 70.9011 72.5795 66.889 72.314 65.7234L69.5988 53.6375C69.1417 51.5592 68.5098 46.7542 66.8952 45.6111C65.3137 45.8641 65.1688 46.3769 64.7607 47.8859C62.661 55.6435 61.8404 64.438 58.8272 71.8409C58.6132 72.365 54.3245 76.0947 53.5349 76.7927L43.6189 85.5759C33.9986 94.2709 24.2773 102.862 14.4565 111.345C10.394 114.84 6.18365 118.495 1.96952 121.836C1.3379 122.335 0.937973 122.446 0.228891 122.331L0 121.836C0.14653 119.342 4.36462 112.361 5.73752 109.752L14.3972 93.3673L36.8874 51.3829L55.6108 16.5688C58.2164 11.7796 60.86 6.90663 63.4403 2.09758C64.1515 0.771971 65.0428 0.3344 66.4645 6.10352e-05Z" fill="#0F0E0D"/>
<path d="M65.5322 86.9584C66.3085 86.9449 67.127 86.9991 67.8661 87.243C73.0929 88.9712 117.201 119.211 118.536 122.175C118.724 122.59 118.656 122.667 118.476 123.051C117.842 123.295 117.251 123.182 116.625 122.945C100.206 116.687 83.9109 108.754 67.4014 102.869C65.2641 102.381 54.9305 107.132 52.0925 108.302L24.817 119.615C22.3841 120.614 18.0813 122.581 15.4162 123.157C15.0856 123.227 15.0324 123.049 14.7352 122.764C14.7191 122.401 14.6222 122.102 14.8308 121.906C20.7681 116.297 61.9882 87.7513 65.5322 86.9584Z" fill="#0F0E0D"/>
</svg>
