<svg width="124" height="128" viewBox="0 0 124 128" fill="none" xmlns="http://www.w3.org/2000/svg">
<path d="M2.22879 51.0749C4.04869 51.0191 8.03693 51.3594 9.99574 51.4727L26.9069 52.5468C33.2142 52.955 39.9546 53.1045 46.1819 54.0081C48.2254 54.3047 49.3084 56.8512 48.7787 58.7222C47.1448 64.5215 44.9293 70.2919 42.7916 75.9511L29.7227 109.799C28.635 112.643 24.4773 125.646 21.6638 125.862C20.0393 125.244 19.931 123.716 19.5025 122.188C13.353 100.232 6.63376 78.4293 0.446576 56.484C-0.292685 53.8606 -0.368036 52.5438 2.22879 51.0749Z" fill="white"/>
<path d="M61.0354 67.0419C65.2943 66.9078 66.9753 71.3258 68.8564 74.4288L74.7729 84.2331C77.9277 89.4729 81.0542 94.7288 84.1549 100C85.624 102.535 87.1308 105.166 88.4916 107.765C89.0048 108.748 89.0025 109.487 88.614 110.526C88.3739 111.163 86.6128 112.002 85.9183 112.247C82.5257 113.444 78.9613 114.518 75.5239 115.59C69.0472 117.565 62.601 119.629 56.1878 121.781C49.4874 123.675 42.8105 126.374 36.0088 127.671C35.206 127.824 34.2336 126.495 34.4337 125.804C35.8958 120.751 38.1771 115.669 40.1383 110.763C43.6745 101.797 47.2978 92.8635 51.0106 83.9648C52.8564 79.4969 54.6645 75.0128 56.6092 70.585C57.6804 68.1431 58.4385 67.6783 61.0354 67.0419Z" fill="white"/>
<path d="M27.6486 0.012901C30.5021 -0.106313 30.8623 0.580479 32.3385 3.089C35.4674 8.40532 38.5704 13.7349 41.6993 19.0507C45.8782 26.1468 50.0831 33.3234 53.4074 40.8367C53.7535 41.7908 54.5139 44.0484 54.1372 44.9989C53.4827 46.6016 51.0648 47.2802 49.4662 46.9458C43.87 45.7742 37.9959 43.652 32.5386 41.9759C23.0247 38.526 12.5809 36.007 3.05762 32.4629C2.25243 32.1625 1.47078 31.6898 1.01404 30.9533C0.630287 30.3337 0.529066 29.5879 0.736248 28.8936C0.919886 28.2617 1.63324 27.2387 2.07585 26.7625C3.95696 24.7311 6.97053 21.4733 8.7763 19.6295C11.5968 16.7501 25.266 1.34637 27.6486 0.012901Z" fill="white"/>
<path d="M74.6575 59.0613C77.1696 59.1985 85.1202 62.6008 87.9007 63.6815L105.262 70.4008C110.724 72.5291 116.463 74.6221 121.789 77.0118C125.796 78.8108 119.503 86.2068 118.09 88.2314L111.232 98.1994C110.521 99.2892 109.836 100.446 109.099 101.516C106.712 104.997 104.277 110.138 100.303 104.438C90.78 90.7751 80.5999 77.1878 71.8488 63.066C70.7658 61.3193 72.8376 59.5796 74.6575 59.0613Z" fill="white"/>
<path d="M88.5108 31.6764C89.3889 31.6596 90.4531 31.7223 91.0605 32.4193C96.5367 38.696 101.817 45.1684 107.138 51.5729C107.682 52.2285 108.532 53.5909 108.388 54.4245C106.335 55.6641 94.1165 53.4619 90.7333 53.0614C85.0476 52.0373 78.9381 51.7968 73.137 50.789C70.074 50.9176 66.1352 46.8025 69.5042 44.6179C74.9804 41.0686 82.8392 34.3317 88.5108 31.6764Z" fill="white"/>
<path d="M46.4363 4.8133C46.7777 4.77272 47.1214 4.73625 47.4675 4.73602C48.7553 4.73443 64.1056 11.9837 65.2357 13.2513C65.9184 14.0177 65.9961 15.4074 66.0244 16.3915C66.0997 18.8988 65.676 21.5352 65.4617 24.0419C65.0591 28.7004 64.6824 33.3609 64.334 38.0235C64.0797 38.4799 63.856 38.6403 63.4723 38.9911C62.9049 39.1391 62.5494 39.2321 62.0008 38.9424C60.0585 37.9182 47.477 10.4827 46.2715 7.2997C45.8689 6.23817 45.949 5.83129 46.4363 4.8133Z" fill="white"/>
</svg>
