<svg width="129" height="129" viewBox="0 0 129 129" fill="none" xmlns="http://www.w3.org/2000/svg">
<path d="M41.2969 0.0198619C42.3662 -0.007672 43.4355 -0.0285952 44.4957 0.116123C46.161 0.343003 47.6171 0.976497 49.0504 1.8034C54.4264 4.909 105.966 38.4676 106.578 39.3288C107.113 40.0822 107.161 41.2871 106.92 42.1483C106.758 42.7276 106.415 43.1836 106.014 43.6329C103.851 46.0647 82.9038 66.8319 80.7902 68.0522L80.5854 68.1095C78.7199 68.6249 72.245 68.4597 69.9312 68.4619L53.6484 68.4663L31.1659 68.4752C26.9411 68.4796 22.7139 68.5104 18.4891 68.4377C15.9706 68.3937 14.6374 66.6381 15.3813 64.2966C17.9226 56.3007 20.5617 48.3335 23.1394 40.3487L29.4186 20.9384C30.5357 17.4162 31.5731 13.7736 32.7926 10.2852C34.6923 4.85437 34.4693 0.952051 41.2969 0.0198619Z" fill="#0F0E0D"/>
<path d="M12.5214 81.7025L12.7375 81.6805C14.8784 81.4977 18.3525 81.5704 20.5866 81.5704L34.2121 81.599C43.8858 81.6122 53.6141 81.5329 63.2878 81.599C64.0272 81.6034 64.6847 81.5703 65.2239 82.0065C65.7108 82.6629 65.7062 82.7752 65.7017 83.5903C65.0328 85.2004 42.2045 105.6 39.1946 108.344C36.4122 111.043 25.4189 122.437 21.8129 122.155C16.4664 121.735 8.90858 120.922 3.34143 120.345C0.322379 120.03 -0.59223 116.146 0.361033 113.827C2.87046 105.747 5.5437 97.5995 8.07816 89.5155C9.10195 86.2908 9.36814 83.4559 12.5214 81.7025Z" fill="#0F0E0D"/>
<path d="M81.4635 88.7666C81.7319 88.7798 82.0004 88.7974 82.2688 88.8239C85.8566 89.2005 85.7156 91.7931 85.2947 94.6567C83.7385 105.19 82.3007 115.823 80.2167 126.263C79.8936 127.882 77.6026 128.689 76.0919 128.616C72.5451 128.448 68.8276 127.957 65.3126 127.543L47.2574 125.4C44.8731 125.098 42.1976 125.061 39.9726 124.219C39.0239 123.862 38.9306 122.521 39.4857 121.92C41.6721 119.554 44.7366 117.234 47.1937 115.179C54.2397 109.3 61.3607 103.505 68.5568 97.7955C71.3347 95.595 78.4922 89.3107 81.4635 88.7666Z" fill="#0F0E0D"/>
<path d="M123.976 60.3251C126.843 60.3097 127.475 62.0719 127.705 64.4508C127.923 66.7262 127.912 69.147 127.985 71.4334L128.453 85.0638C128.583 88.337 128.826 92.1103 128.915 95.4099C128.933 96.0333 128.453 96.4672 128.003 96.8131C125.812 96.9606 116.35 89.7512 113.918 88.0463C111.156 86.1651 100.351 79.4601 99.7348 76.6054C98.3015 69.9708 108.13 66.5015 113.005 64.5499C116.341 63.2151 120.304 61.2348 123.976 60.3251Z" fill="#0F0E0D"/>
<path d="M98.2608 90.7115C98.7363 90.6829 99.23 90.6609 99.7032 90.7181C101.166 90.8988 121.446 104.452 122.336 105.805C122.65 106.285 122.636 107.058 122.491 107.589C122.104 108.979 111.022 114.065 109.042 115.054C104.526 117.177 98.5975 121.268 93.6492 121.992C92.9963 122.087 92.3319 120.695 92.3934 120.047C92.7392 116.474 93.2988 112.875 93.8403 109.32C94.6593 103.939 95.3259 98.5136 96.3384 93.1654C96.6182 91.6917 97.0505 91.4296 98.2608 90.7115Z" fill="#0F0E0D"/>
</svg>
