<svg width="240" height="33" viewBox="0 0 240 33" fill="none" xmlns="http://www.w3.org/2000/svg">
<path d="M31.3042 11.6205C31.5139 11.8231 31.8533 12.0329 32.1692 12.1743C32.4167 12.2851 32.914 12.2875 33.4254 12.2026C34.3541 12.0471 36.4706 11.6393 37.4417 11.4225C37.7622 11.3518 37.972 11.2339 38.0144 11.0241C38.0427 10.8874 37.9767 10.7649 37.7716 10.6588C36.1359 9.8056 34.6063 9.02545 33.1261 8.29009C32.6217 8.04025 32.3695 8.20759 32.1315 8.73083C31.818 9.42378 31.5139 10.1356 31.2311 10.8309C31.1274 11.0854 31.085 11.4083 31.3018 11.6205H31.3042ZM7.03469 8.91468C11.7062 9.6854 17.0494 10.5622 21.3979 11.2858C22.2889 11.4343 23.4108 11.5144 23.7926 11.4837C24.8461 11.3965 25.4307 10.878 24.8296 10.178C23.5475 8.68841 21.5181 6.34325 20.3821 5.03043C20.2595 4.88901 20.3962 4.74052 20.5282 4.74288C20.6578 4.74524 21.1787 4.77824 21.3225 4.80888C21.4639 4.83952 21.5888 4.93379 21.8033 5.11999C23.7077 6.75807 25.4236 8.23116 27.5166 10.0295C27.9762 10.4255 28.6455 10.581 29.1664 10.4326C29.52 10.3312 29.7179 10.1144 30.0974 9.49213C30.5311 8.78504 31.2335 7.58536 31.5681 6.98198C31.6648 6.80992 31.7449 6.40924 31.3207 6.19712C27.2573 4.17014 22.5434 1.89333 19.0339 0.259969C17.9851 -0.227919 17.1884 -0.0440769 15.7743 0.93877C13.0732 2.81726 9.56841 5.32033 6.20976 7.73149C5.49089 8.24766 5.89865 8.72612 7.03469 8.91468ZM38.5848 15.8818C38.408 15.4505 38.1322 15.2879 37.4511 15.2007C36.1171 15.031 34.7712 14.866 33.3665 14.7033C32.9917 14.6609 32.7113 14.6892 32.5321 14.8448C32.419 14.9414 32.2517 15.1464 32.188 15.2949C32.115 15.4623 32.148 15.6579 32.3342 15.7946C33.5739 16.7091 35.0093 17.7556 36.1713 18.5923C36.3009 18.6866 36.2938 18.828 36.1713 18.9223C36.0652 19.0024 35.8649 19.0708 35.7894 19.0896C35.5985 19.1391 35.3793 19.1556 35.1601 19.0519C33.8709 18.4344 32.584 17.8239 31.3513 17.2465C30.8446 17.0084 30.2412 16.8741 29.8122 16.8812C29.2701 16.8906 28.7139 17.0886 28.4193 17.3525C28.094 17.6448 27.6132 18.359 27.2243 19.0378C25.3222 22.3446 23.604 25.3567 21.1009 29.7689C20.87 30.1767 21.405 30.5302 22.0956 30.2262C27.955 27.6241 34.3352 24.6968 39.0962 22.4365C39.9989 22.0075 40.7013 21.5267 40.4208 20.7371C39.7986 18.9883 39.1882 17.3502 38.5871 15.8865L38.5848 15.8818ZM42.396 14.1801C41.9741 13.4966 41.366 12.5279 41.0266 12.0023C40.8687 11.7595 40.7131 11.7524 40.4703 11.809C39.2117 12.106 37.3474 12.5656 35.7871 12.9616C35.6245 13.004 35.5302 13.1383 35.6127 13.301C35.7942 13.6521 36.0558 13.7582 36.5649 13.8195C38.0568 14.0033 40.3195 14.2697 42.2333 14.4747C42.3983 14.4936 42.4737 14.305 42.396 14.1777V14.1801ZM24.865 17.0367C24.8273 16.8104 24.5869 16.5583 24.2168 16.4993C23.9623 16.4593 23.5852 16.4852 23.1444 16.5771C19.074 17.4256 14.0443 18.4674 10.0115 19.2664C9.48828 19.3701 8.8354 19.4762 8.54314 19.4832C8.22967 19.4903 7.85255 19.1462 7.78185 18.9883C7.71585 18.8374 7.89498 18.7809 8.17781 18.7007C12.8564 17.3714 18.7275 15.698 21.8882 14.7929C22.4774 14.6232 22.6165 14.4841 22.6448 14.3027C22.6825 14.0552 22.5481 13.6262 22.0838 13.4589C21.7633 13.3434 21.1222 13.1666 20.5659 13.044C15.9675 12.0306 8.50071 10.3831 4.08851 9.4332C3.16223 9.23286 2.47636 9.69954 2.08039 10.9982C1.5053 12.8767 0.751074 15.4693 0.0722735 17.9347C-0.161064 18.7785 0.133554 19.6647 1.50294 20.7418C5.99528 24.282 11.3008 28.3736 16.6157 32.3993C16.9669 32.6656 17.2898 32.7858 17.575 32.8023C17.7942 32.8165 18.0511 32.7411 18.2019 32.602C18.3716 32.4464 18.5672 32.1424 18.7087 31.8195C20.6437 27.3601 22.6353 22.7476 24.3936 18.6347C24.7566 17.7839 24.9074 17.296 24.8626 17.0391L24.865 17.0367Z" fill="currentColor"/>
<path d="M136.631 15.2C136.631 14.8771 136.504 14.5683 136.275 14.3421L133.933 11.9993C133.704 11.7706 133.395 11.6434 133.075 11.6434H129.066C128.743 11.6434 128.434 11.7706 128.205 11.9993L126.362 13.8424V11.6434H122.12H120.948V12.0935L122.12 13.2649V25.2571L120.948 26.4285V26.8787H127.534V26.4285L126.362 25.2571V15.7327L127.911 14.1842C128.252 13.8424 128.717 13.6515 129.2 13.6515H130.836C131.248 13.6515 131.642 13.8141 131.934 14.1064C132.226 14.3986 132.389 14.7922 132.389 15.2047V25.2571L131.217 26.4285V26.8787H137.8V26.4285L136.629 25.2571V15.2H136.631ZM112.647 8.82917L116.364 9.94165L120.022 7.05204L120.267 5.92542L115.103 6.42744L112.649 8.82917H112.647ZM64.3415 22.3203L57.9023 6.11397H51.4419V6.56415L52.6133 7.73555V25.2571L51.4419 26.4285V26.8787H56.2618V26.4285L55.0904 25.2571V10.1915L61.6875 26.8763H64.7634L71.3557 10.3023V25.2547L70.1843 26.4261V26.8763H76.7696V26.4261L75.5982 25.2547V7.73319L76.7696 6.56179V6.11161H70.7052L64.3438 22.318L64.3415 22.3203ZM93.0609 15.2C93.0609 14.8771 92.9336 14.5683 92.705 14.3421L90.3622 11.9993C90.1335 11.7706 89.8248 11.6434 89.5042 11.6434H82.7681C82.4452 11.6434 82.1364 11.7706 81.9101 11.9993L79.1761 14.7333C78.9475 14.9619 78.8202 15.2707 78.8202 15.5913V16.3431H83.0627V16.0697C83.0627 15.5865 83.2536 15.1222 83.5954 14.7805L84.194 14.1818C84.5358 13.84 85.0001 13.6491 85.4833 13.6491H87.2651C87.6776 13.6491 88.0712 13.8118 88.3635 14.104C88.6557 14.3963 88.8184 14.7899 88.8184 15.2024V17.7667L81.8606 17.7738C81.5401 17.7738 81.2313 17.9011 81.0027 18.1297L78.905 20.2274C78.6764 20.456 78.5491 20.7648 78.5491 21.0853V23.5648C78.5491 23.8877 78.6764 24.1965 78.905 24.4227L81.0004 26.5181C81.229 26.7467 81.5377 26.874 81.8583 26.874H86.1126C86.4355 26.874 86.7442 26.7467 86.9705 26.5181L88.8136 24.6749V26.874H94.2275V26.4261L93.0561 25.2547V15.1976L93.0609 15.2ZM88.8207 22.787L87.2722 24.3355C86.9304 24.6773 86.4661 24.8682 85.9829 24.8682H84.3472C83.9348 24.8682 83.5412 24.7056 83.2489 24.4133C82.9566 24.121 82.794 23.7274 82.794 23.315V21.2951C82.794 20.8543 82.9802 20.4371 83.3078 20.1425L83.7816 19.7159C84.0667 19.459 84.4368 19.3152 84.821 19.3152H88.8207V22.787ZM118.511 11.6434H113.097V12.0935L114.269 13.2649V25.2571L113.097 26.4285L105.279 17.1115L110.153 12.2373V11.6457H106.191V13.2649L100.912 18.5445V6.11397H95.4979V6.56415L96.6693 7.73555V25.2571L95.4979 26.4285V26.8787H102.083V26.4285L100.912 25.2571V21.4766L102.585 19.8031L107.139 25.2571L105.967 26.4285V26.8787H113.095H119.68V26.4285L118.509 25.2571V11.6434H118.511ZM203.92 11.9993C203.691 11.7706 203.382 11.6434 203.062 11.6434H196.102C195.779 11.6434 195.47 11.7706 195.244 11.9993L192.51 14.7333C192.281 14.9619 192.154 15.2707 192.154 15.5913V22.9284C192.154 23.2513 192.281 23.5601 192.51 23.7864L195.244 26.5204C195.473 26.749 195.781 26.8763 196.102 26.8763H203.062C203.385 26.8763 203.694 26.749 203.92 26.5204L206.654 23.7864C206.883 23.5577 207.01 23.249 207.01 22.9284V21.2574H202.767V22.4476C202.767 22.9308 202.576 23.3951 202.235 23.7369L201.636 24.3355C201.294 24.6773 200.83 24.8682 200.347 24.8682H198.817C198.334 24.8682 197.87 24.6773 197.528 24.3355L196.929 23.7369C196.587 23.3951 196.396 22.9308 196.396 22.4476V16.0674C196.396 15.5842 196.587 15.1199 196.929 14.7781L197.528 14.1794C197.87 13.8377 198.334 13.6468 198.817 13.6468H200.347C200.83 13.6468 201.294 13.8377 201.636 14.1794L202.235 14.7781C202.576 15.1199 202.767 15.5842 202.767 16.0674V17.0856H207.01V15.5865C207.01 15.2636 206.883 14.9549 206.654 14.7286L203.92 11.9946V11.9993ZM238.694 19.3223L230.525 17.0031C230.009 16.8499 229.655 16.3761 229.655 15.8387V15.2024C229.655 14.7899 229.818 14.3963 230.11 14.104C230.402 13.8118 230.796 13.6491 231.209 13.6491H233.316C233.639 13.6491 233.947 13.7764 234.174 14.005L235.128 14.9596C235.357 15.1882 235.484 15.497 235.484 15.8175V16.7438H239.727V15.5889C239.727 15.266 239.599 14.9572 239.371 14.731L236.637 11.9969C236.408 11.7683 236.099 11.641 235.779 11.641H229.361C229.038 11.641 228.729 11.7683 228.503 11.9969L225.769 14.731C225.54 14.9596 225.413 15.2684 225.413 15.5889V17.4485C225.413 18.2546 225.943 18.9664 226.716 19.195L234.885 21.5143C235.402 21.6675 235.755 22.1412 235.755 22.6786V23.315C235.755 23.7274 235.592 24.121 235.3 24.4133C235.008 24.7056 234.614 24.8682 234.202 24.8682H231.555C231.232 24.8682 230.923 24.7409 230.697 24.5123L229.743 23.5577C229.514 23.3291 229.387 23.0204 229.387 22.6974V21.5991H225.144V22.9261C225.144 23.249 225.271 23.5577 225.5 23.784L228.234 26.5181C228.463 26.7467 228.771 26.874 229.092 26.874H236.052C236.375 26.874 236.684 26.7467 236.91 26.5181L239.644 23.784C239.873 23.5554 240 23.2466 240 22.9261V21.0664C240 20.2604 239.47 19.5486 238.697 19.3199L238.694 19.3223ZM222.865 12.235V11.6434H218.903V13.2626L213.623 18.5422V6.11397H208.209V6.56415L209.381 7.73555V25.2571L208.209 26.4285V26.8787H214.795V26.4285L213.623 25.2571V21.4766L215.297 19.8031L219.85 25.2571L218.679 26.4285V26.8787H225.806V26.4285L217.988 17.1115L222.863 12.2373L222.865 12.235ZM186.832 11.9993C186.603 11.7706 186.295 11.6434 185.974 11.6434H179.014C178.691 11.6434 178.382 11.7706 178.156 11.9993L175.422 14.7333C175.193 14.9619 175.066 15.2707 175.066 15.5913V22.9284C175.066 23.2513 175.193 23.5601 175.422 23.7864L178.156 26.5204C178.385 26.749 178.693 26.8763 179.014 26.8763H185.974C186.297 26.8763 186.606 26.749 186.832 26.5204L189.566 23.7864C189.795 23.5577 189.922 23.249 189.922 22.9284V15.5913C189.922 15.2684 189.795 14.9596 189.566 14.7333L186.832 11.9993ZM185.679 22.4476C185.679 22.9308 185.489 23.3951 185.147 23.7369L184.548 24.3355C184.206 24.6773 183.742 24.8682 183.259 24.8682H181.729C181.246 24.8682 180.782 24.6773 180.44 24.3355L179.841 23.7369C179.5 23.3951 179.309 22.9308 179.309 22.4476V16.0674C179.309 15.5842 179.5 15.1199 179.841 14.7781L180.44 14.1794C180.782 13.8377 181.246 13.6468 181.729 13.6468H183.259C183.742 13.6468 184.206 13.8377 184.548 14.1794L185.147 14.7781C185.489 15.1199 185.679 15.5842 185.679 16.0674V22.4476ZM169.876 16.9088L172.45 14.335C172.679 14.1064 172.806 13.7976 172.806 13.4771V10.0619C172.806 9.73896 172.679 9.4302 172.45 9.20393L169.716 6.46987C169.487 6.24125 169.178 6.11397 168.858 6.11397H156.458V6.56415L157.629 7.73555V25.2571L156.458 26.4285V26.8787H163.043V26.4285L161.872 25.2571V17.425H165.782L169.32 25.2571L168.148 26.4285V26.8787H174.939V26.4285L173.767 25.2571L169.876 16.9088ZM168.563 12.9963C168.563 13.4794 168.372 13.9437 168.031 14.2855L167.432 14.8842C167.09 15.2259 166.626 15.4168 166.143 15.4168H161.872V8.11738H166.143C166.626 8.11738 167.09 8.30829 167.432 8.65005L168.031 9.24871C168.372 9.59047 168.563 10.0548 168.563 10.538V12.9939V12.9963ZM153.832 15.2C153.832 14.8771 153.705 14.5683 153.476 14.3421L151.134 11.9993C150.905 11.7706 150.596 11.6434 150.276 11.6434H143.54C143.217 11.6434 142.908 11.7706 142.682 11.9993L139.948 14.7333C139.719 14.9619 139.592 15.2707 139.592 15.5913V16.3431H143.834V16.0697C143.834 15.5865 144.025 15.1222 144.367 14.7805L144.966 14.1818C145.307 13.84 145.772 13.6491 146.255 13.6491H148.037C148.449 13.6491 148.843 13.8118 149.135 14.104C149.427 14.3963 149.59 14.7899 149.59 15.2024V17.7667L142.632 17.7738C142.312 17.7738 142.003 17.9011 141.774 18.1297L139.677 20.2274C139.448 20.456 139.321 20.7648 139.321 21.0853V23.5648C139.321 23.8877 139.448 24.1965 139.677 24.4227L141.772 26.5181C142 26.7467 142.309 26.874 142.63 26.874H146.884C147.207 26.874 147.516 26.7467 147.742 26.5181L149.585 24.6749V26.874H154.999V26.4261L153.828 25.2547V15.1976L153.832 15.2ZM149.59 22.787L148.041 24.3355C147.7 24.6773 147.235 24.8682 146.752 24.8682H145.116C144.704 24.8682 144.31 24.7056 144.018 24.4133C143.726 24.121 143.563 23.7274 143.563 23.315V21.2951C143.563 20.8543 143.749 20.4371 144.077 20.1425L144.551 19.7159C144.836 19.459 145.206 19.3152 145.59 19.3152H149.59V22.787Z" fill="currentColor"/>
</svg>
