<svg width="80" height="80" viewBox="0 0 80 80" fill="none" xmlns="http://www.w3.org/2000/svg">
<g clip-path="url(#clip0_303_8713)">
<path d="M27.5218 55.9961C27.5218 55.9961 26.9924 57.5898 26.1936 58.3861C25.9606 58.6461 25.6737 58.8522 25.3529 58.99C25.0321 59.1279 24.6851 59.1941 24.3361 59.1842C23.0257 59.536 21.6937 59.802 20.3486 59.9805C20.3486 59.9805 22.2093 60.2467 24.3361 60.5123C25.1318 60.5123 25.1318 60.5123 25.6636 60.7786C26.9924 60.7786 27.5218 59.9805 27.5218 59.9805V55.9961ZM51.9655 55.9961C51.9655 55.9961 52.4974 57.5898 53.2936 58.3861C53.5273 58.646 53.8147 58.852 54.1358 58.9898C54.457 59.1276 54.8043 59.1939 55.1536 59.1842C56.463 59.5361 57.794 59.8021 59.138 59.9805C59.138 59.9805 57.2799 60.2467 54.888 60.5123C54.0918 60.5123 54.0918 60.5123 53.5593 60.7786C51.9655 60.7786 51.6993 59.9805 51.6993 59.9805L51.9655 55.9961Z" fill="#E9654B"/>
<path d="M68.7037 29.6922C68.7037 45.5391 55.8568 58.386 40.0099 58.386C24.1624 58.386 11.3162 45.5391 11.3162 29.6922C11.3162 13.8472 24.1624 1.00098 40.0099 1.00098C55.8568 1.00098 68.7037 13.8472 68.7037 29.6922Z" fill="#B6CFEA"/>
<path d="M67.6419 29.693C67.6419 44.9542 55.2712 57.3242 40.01 57.3242C24.7512 57.3242 12.3806 44.9542 12.3806 29.693C12.3806 14.4342 24.7512 2.06299 40.01 2.06299C55.2712 2.06299 67.6412 14.4336 67.6412 29.6924L67.6419 29.693Z" fill="#E6F5F8"/>
<path d="M62.5926 30.2247C62.5926 42.6972 52.4833 52.8072 40.0101 52.8072C27.5389 52.8072 17.427 42.6972 17.427 30.2241C17.427 17.7535 27.5395 7.6416 40.0101 7.6416C52.4833 7.6416 62.5926 17.7547 62.5926 30.2247Z" fill="#D0E8F0"/>
<path d="M26.7262 40.8521C26.7262 40.8521 28.5862 70.8739 28.5862 71.4064C28.5862 71.6702 28.8525 72.2021 27.5219 72.7346C26.1937 73.2646 21.9431 74.3283 21.9431 74.3283H28.32C31.2425 74.3283 31.2425 71.9364 31.2425 71.4064C31.2425 70.8739 32.0387 59.4508 32.0387 59.4508C32.0387 59.4508 32.3044 73.0008 32.3044 73.5302C32.3044 74.0627 32.0387 74.8583 30.1806 75.3908C28.8525 75.6571 24.8656 76.4533 24.8656 76.4533H30.9769C34.6975 76.4533 34.6975 74.0627 34.6975 74.0627L35.4931 62.1071C35.4931 62.1071 35.7594 74.0627 35.7594 75.3908C35.7594 76.4533 34.9631 77.2514 32.0387 77.7808C30.1806 78.3133 27.7881 78.8452 27.7881 78.8452H34.6975C38.1494 78.5796 38.6819 76.1864 38.6819 76.1864L44.5262 46.4308L26.7262 40.8521Z" fill="#EE794B"/>
<path d="M53.2938 40.8522C53.2938 40.8522 51.4357 70.874 51.4357 71.4065C51.4357 71.6703 51.1694 72.2022 52.4982 72.7347C53.8257 73.2647 58.0763 74.3284 58.0763 74.3284H51.6994C48.7769 74.3284 48.7769 71.9365 48.7769 71.4065C48.7769 70.874 47.9813 59.4509 47.9813 59.4509C47.9813 59.4509 47.7151 73.0009 47.7151 73.5303C47.7151 74.0628 47.9813 74.8584 49.8413 75.3909L55.1538 76.4534H49.0438C45.3251 76.4534 45.3251 74.0628 45.3251 74.0628L44.5269 62.1072C44.5269 62.1072 44.2607 74.0628 44.2607 75.3909C44.2607 76.4534 45.0594 77.2515 47.9819 77.7809C49.8419 78.3134 52.2319 78.8453 52.2319 78.8453H45.3251C41.8701 78.5797 41.3376 76.1865 41.3376 76.1865L35.4938 46.4315L53.2938 40.8522ZM53.5594 26.2403C53.5594 33.6797 47.4488 39.524 40.2757 39.524C33.1032 39.524 26.9919 33.4134 26.9919 26.2403C26.9919 19.0678 33.1032 12.9565 40.2757 12.9565C47.4488 12.9565 53.5594 18.8015 53.5594 26.2403Z" fill="#EE794B"/>
<mask id="mask0_303_8713" style="mask-type:luminance" maskUnits="userSpaceOnUse" x="26" y="25" width="28" height="33">
<path d="M26.25 25.625H53.75V57.5H26.25V25.625Z" fill="white"/>
</mask>
<g mask="url(#mask0_303_8713)">
<mask id="mask1_303_8713" style="mask-type:luminance" maskUnits="userSpaceOnUse" x="26" y="25" width="28" height="38">
<path d="M53.5594 25.7109L51.9657 62.1097H28.0544L26.7263 25.7109" fill="white"/>
</mask>
<g mask="url(#mask1_303_8713)">
<path d="M63.9209 33.4149C63.9209 46.4743 53.3352 57.0605 40.2759 57.0605C27.2171 57.0605 16.6309 46.4743 16.6309 33.4155C16.6309 20.3561 27.2171 9.77051 40.2759 9.77051C53.3352 9.77051 63.9209 20.3555 63.9209 33.4149Z" fill="#EE794B"/>
</g>
</g>
<mask id="mask2_303_8713" style="mask-type:luminance" maskUnits="userSpaceOnUse" x="0" y="0" width="80" height="80">
<path d="M0 0H80V80H0V0Z" fill="black" fill-opacity="0.22"/>
</mask>
<g mask="url(#mask2_303_8713)">
<mask id="mask3_303_8713" style="mask-type:luminance" maskUnits="userSpaceOnUse" x="0" y="0" width="80" height="80">
<path d="M0 0H80V80H0V0Z" fill="white"/>
</mask>
<g mask="url(#mask3_303_8713)">
<path d="M52.7638 40.8522C52.7638 40.8522 54.3575 26.7703 52.2313 21.4578C48.2469 12.1585 38.9475 12.9566 38.9475 12.9566C38.9475 12.9566 44.26 15.081 44.5263 23.0522C44.7925 28.631 44.5263 36.8678 44.5263 36.8678L52.7638 40.8522Z" fill="#E34E3B"/>
</g>
</g>
<mask id="mask4_303_8713" style="mask-type:luminance" maskUnits="userSpaceOnUse" x="0" y="0" width="80" height="80">
<path d="M0 0H80V80H0V0Z" fill="black" fill-opacity="0.502"/>
</mask>
<g mask="url(#mask4_303_8713)">
<mask id="mask5_303_8713" style="mask-type:luminance" maskUnits="userSpaceOnUse" x="0" y="0" width="80" height="80">
<path d="M0 0H80V80H0V0Z" fill="white"/>
</mask>
<g mask="url(#mask5_303_8713)">
<path d="M36.5549 19.0696C36.5548 19.3137 36.5066 19.5554 36.4131 19.7809C36.3195 20.0064 36.1825 20.2112 36.0098 20.3837C35.8371 20.5562 35.6322 20.693 35.4066 20.7863C35.181 20.8796 34.9393 20.9276 34.6952 20.9275C34.4511 20.9273 34.2094 20.8791 33.984 20.7856C33.7585 20.6921 33.5537 20.5551 33.3812 20.3824C33.2086 20.2097 33.0718 20.0047 32.9785 19.7792C32.8852 19.5536 32.8373 19.3119 32.8374 19.0678C32.8377 18.5748 33.0337 18.1021 33.3825 17.7537C33.7312 17.4053 34.2041 17.2097 34.6971 17.21C35.1901 17.2102 35.6627 17.4063 36.0111 17.755C36.3596 18.1038 36.5552 18.5767 36.5549 19.0696Z" fill="#FBDFC3"/>
</g>
</g>
<path d="M44.7924 46.1641C44.7924 50.681 42.6662 53.606 40.0099 53.606C37.3537 53.606 35.2268 50.151 35.2268 45.6348C35.2268 45.6348 37.3537 49.8848 40.2756 49.8848C43.1981 49.8848 44.7924 46.1641 44.7924 46.1641Z" fill="#010101"/>
<path d="M44.7925 46.1646C44.7925 49.0896 42.6663 50.6815 40.01 50.6815C37.3538 50.6815 35.4932 48.5571 35.4932 45.9009C35.4932 45.9009 37.6194 48.5571 40.5419 48.5571C43.4644 48.5571 44.7925 46.1646 44.7925 46.1646Z" fill="white"/>
<path d="M57.5437 33.6794C57.5437 38.2275 53.8575 41.9138 49.3093 41.9138C44.7606 41.9138 41.0718 38.2275 41.0718 33.6794C41.0718 29.1306 44.7606 25.4419 49.3093 25.4419C53.8575 25.4419 57.5437 29.1306 57.5437 33.6794ZM38.9475 33.6794C38.9475 38.2275 35.2587 41.9138 30.71 41.9138C26.1618 41.9138 22.4756 38.2275 22.4756 33.6794C22.4756 29.1306 26.1618 25.4419 30.7106 25.4419C35.2587 25.4419 38.9475 29.1306 38.9475 33.6794Z" fill="#E9654B"/>
<path d="M55.6862 33.6791C55.6862 37.1997 52.83 40.056 49.3093 40.056C45.7887 40.056 42.9318 37.1997 42.9318 33.6791C42.9318 30.156 45.7881 27.3022 49.3093 27.3022C52.8293 27.3022 55.6862 30.156 55.6862 33.6791ZM36.555 33.6791C36.555 37.1997 33.7012 40.056 30.1806 40.056C26.6575 40.056 23.8037 37.1997 23.8037 33.6791C23.8035 32.8417 23.9684 32.0124 24.2888 31.2386C24.6092 30.4649 25.0789 29.7618 25.6711 29.1696C26.2633 28.5774 26.9663 28.1077 27.7401 27.7873C28.5138 27.4669 29.3431 27.3021 30.1806 27.3022C33.7012 27.3022 36.555 30.156 36.555 33.6791Z" fill="white"/>
<path d="M32.0388 32.8817C32.0389 33.1259 31.991 33.3677 31.8976 33.5933C31.8043 33.819 31.6675 34.024 31.4949 34.1967C31.3223 34.3695 31.1174 34.5066 30.8919 34.6001C30.6663 34.6937 30.4246 34.7419 30.1804 34.742C29.9362 34.7421 29.6944 34.6942 29.4688 34.6008C29.2431 34.5075 29.0381 34.3706 28.8653 34.1981C28.6926 34.0255 28.5555 33.8206 28.462 33.5951C28.3684 33.3695 28.3202 33.1277 28.3201 32.8836C28.3197 32.3904 28.5153 31.9174 28.8638 31.5684C29.2122 31.2195 29.6851 31.0233 30.1782 31.0229C30.6713 31.0226 31.1444 31.2182 31.4933 31.5667C31.8423 31.9151 32.0385 32.3886 32.0388 32.8817ZM51.1694 32.8817C51.174 33.1288 51.1293 33.3743 51.0379 33.6039C50.9465 33.8335 50.8103 34.0426 50.6372 34.219C50.4641 34.3954 50.2576 34.5355 50.0297 34.6311C49.8018 34.7268 49.5572 34.7761 49.3101 34.7761C49.0629 34.7761 48.8183 34.7269 48.5904 34.6314C48.3625 34.5358 48.1559 34.3957 47.9828 34.2194C47.8096 34.0431 47.6733 33.8341 47.5818 33.6045C47.4904 33.3749 47.4456 33.1294 47.4501 32.8823C47.4588 32.395 47.6585 31.9306 48.0062 31.589C48.3539 31.2474 48.8217 31.056 49.3091 31.0558C49.7965 31.0556 50.2645 31.2468 50.6124 31.5881C50.9603 31.9295 51.1603 32.3944 51.1694 32.8817Z" fill="#010101"/>
<path d="M10.7864 36.8671C10.6091 36.8781 10.4315 36.8512 10.2654 36.7884C10.0993 36.7255 9.94848 36.6281 9.8229 36.5025C9.69731 36.3769 9.59986 36.226 9.53699 36.0599C9.47413 35.8938 9.44729 35.7163 9.45826 35.539V24.9121C9.44717 24.7348 9.47386 24.5571 9.53656 24.3909C9.59927 24.2246 9.69656 24.0736 9.82201 23.9477C9.94784 23.8223 10.0989 23.725 10.2651 23.6623C10.4314 23.5996 10.609 23.5729 10.7864 23.584C10.9636 23.573 11.1412 23.5999 11.3073 23.6627C11.4734 23.7256 11.6243 23.823 11.7499 23.9486C11.8755 24.0742 11.9729 24.2251 12.0358 24.3912C12.0986 24.5573 12.1255 24.7348 12.1145 24.9121V35.5396C12.1364 35.8959 12.002 36.2477 11.7483 36.5021C11.6228 36.6277 11.4721 36.7252 11.3062 36.7882C11.1403 36.8512 10.9629 36.8783 10.7858 36.8677L10.7864 36.8671ZM68.7039 36.8671C68.5267 36.8778 68.3492 36.8507 68.1832 36.7875C68.0173 36.7244 67.8667 36.6267 67.7414 36.5009C67.6159 36.3755 67.5185 36.2249 67.4555 36.0591C67.3924 35.8933 67.3653 35.7161 67.3758 35.539V24.9121C67.3651 24.7346 67.3923 24.5569 67.4554 24.3906C67.5185 24.2244 67.6162 24.0734 67.742 23.9477C67.8674 23.8224 68.018 23.7251 68.1838 23.6624C68.3496 23.5997 68.5269 23.5729 68.7039 23.584C68.8808 23.5729 69.0581 23.5997 69.224 23.6624C69.3898 23.7251 69.5404 23.8224 69.6658 23.9477C69.922 24.2021 70.0533 24.554 70.032 24.9121V35.5396C70.0431 35.7169 70.0161 35.8945 69.953 36.0605C69.8898 36.2265 69.7919 36.377 69.6658 36.5021C69.5404 36.6278 69.3898 36.7254 69.2238 36.7885C69.0579 36.8515 68.8804 36.8785 68.7033 36.8677L68.7039 36.8671Z" fill="#B6CFEA"/>
<path d="M32.3049 8.43994C32.3049 8.79218 32.165 9.13 31.9159 9.37907C31.6668 9.62814 31.329 9.76807 30.9768 9.76807C30.6245 9.76807 30.2867 9.62814 30.0377 9.37907C29.7886 9.13 29.6487 8.79218 29.6487 8.43994C29.6487 8.0877 29.7886 7.74989 30.0377 7.50082C30.2867 7.25174 30.6245 7.11182 30.9768 7.11182C31.329 7.11182 31.6668 7.25174 31.9159 7.50082C32.165 7.74989 32.3049 8.0877 32.3049 8.43994ZM21.4137 44.3062C21.2691 44.3244 21.1224 44.3101 20.9841 44.2641C20.8459 44.2181 20.7197 44.1417 20.6149 44.0406C17.4268 40.0562 15.8324 35.0074 15.8324 29.9587C15.8182 25.7613 16.9186 21.6353 19.0212 18.0024C21.1526 14.5446 24.0637 11.6336 27.5218 9.50244C27.7438 9.40289 27.9913 9.37498 28.2298 9.42259C28.4684 9.47019 28.6863 9.59095 28.853 9.76807C28.9516 9.98981 28.9789 10.2367 28.9311 10.4746C28.8833 10.7125 28.7628 10.9297 28.5862 11.0962C25.2903 12.9583 22.5463 15.6598 20.6329 18.9261C18.7195 22.1923 17.7049 25.907 17.6924 29.6924C17.685 34.4179 19.277 39.0068 22.2093 42.7124C22.4755 42.9787 22.4755 43.7749 21.943 44.0406C21.6774 44.3068 21.6774 44.3062 21.4137 44.3062Z" fill="white"/>
<mask id="mask6_303_8713" style="mask-type:luminance" maskUnits="userSpaceOnUse" x="0" y="0" width="80" height="80">
<path d="M0 0H80V80H0V0Z" fill="black" fill-opacity="0.251"/>
</mask>
<g mask="url(#mask6_303_8713)">
<mask id="mask7_303_8713" style="mask-type:luminance" maskUnits="userSpaceOnUse" x="0" y="0" width="80" height="80">
<path d="M0 0H80V80H0V0Z" fill="white"/>
</mask>
<g mask="url(#mask7_303_8713)">
<path d="M51.9656 56.794V54.6709C48.2468 56.7946 44.2599 58.9209 39.4799 58.9209C34.1649 58.9209 30.7106 56.5309 27.2581 54.6709L27.5218 56.7946C27.5218 56.7946 31.5093 61.0478 39.7437 61.0478C47.4487 60.7815 51.9656 56.794 51.9656 56.794Z" fill="#E9654B"/>
</g>
</g>
</g>
<defs>
<clipPath id="clip0_303_8713">
<rect width="80" height="80" fill="white"/>
</clipPath>
</defs>
</svg>
