<svg width="180" height="78" viewBox="0 0 180 78" fill="none" xmlns="http://www.w3.org/2000/svg">
<g clip-path="url(#clip0_303_8779)">
<path d="M96.4844 46.876C145.664 37.2862 182.433 23.1836 178.69 15.3375C174.895 7.49134 132.023 8.87594 82.8434 18.4657C33.6639 28.0554 -3.10533 42.158 0.638262 50.0041C4.38185 57.8503 47.3049 56.4657 96.4844 46.876Z" stroke="url(#paint0_linear_303_8779)" stroke-width="0.751282"/>
<path d="M96.4844 46.876C145.664 37.2862 182.433 23.1836 178.69 15.3375C174.895 7.49134 132.023 8.87594 82.8434 18.4657C33.6639 28.0554 -3.10533 42.158 0.638262 50.0041C4.38185 57.8503 47.3049 56.4657 96.4844 46.876Z" stroke="url(#paint1_linear_303_8779)" stroke-width="0.751282"/>
<path d="M92.8946 60.8245C80.2792 60.8245 69.3049 56.3117 63.5613 49.5938C67.869 61.5937 79.4074 70.2091 92.8946 70.2091C106.382 70.2091 117.869 61.5937 122.228 49.5938C116.484 56.3117 105.51 60.8245 92.8946 60.8245Z" fill="#E46E2E"/>
<path d="M92.6895 17.0819C105.305 17.0819 116.279 21.5947 122.023 28.3127C117.715 16.3127 106.177 7.69727 92.6895 7.69727C79.2024 7.69727 67.7152 16.3127 63.3562 28.3127C69.0998 21.5947 80.0742 17.0819 92.6895 17.0819Z" fill="#E46E2E"/>
<path d="M70.7922 77.0289C68.0743 77.1315 65.8178 75.0289 65.664 72.3623C65.5614 69.6443 67.664 67.3879 70.3307 67.2341C73.0486 67.1315 75.305 69.2341 75.4589 71.9007C75.5614 74.6187 73.4589 76.9264 70.7922 77.0289Z" fill="#767474"/>
<path d="M66.9971 13.1841C65.3048 13.2354 63.8689 11.9533 63.8176 10.261C63.7664 8.56873 65.0484 7.13285 66.7407 7.08156C68.433 7.03028 69.8689 8.31232 69.9202 10.0046C69.9715 11.6969 68.6894 13.0816 66.9971 13.1841Z" fill="#767474"/>
<path d="M115.664 9.54215C113.048 9.64471 110.843 7.59343 110.689 4.97805C110.587 2.36267 112.638 0.106249 115.254 0.00368472C117.869 -0.0988794 120.074 1.95242 120.228 4.5678C120.331 7.18318 118.279 9.43958 115.664 9.54215Z" fill="#767474"/>
<path d="M35.9705 42.8071C35.9705 45.6276 35.7654 46.5507 35.15 47.2173C34.6372 47.7814 33.7654 48.0379 32.791 48.1404L32.9961 49.8327C34.1243 49.8327 35.7141 49.4225 36.6885 48.4994C37.7654 47.4225 38.1243 45.9353 38.1243 43.6789V32.9609H35.9705V42.8071Z" fill="#313940"/>
<path d="M52.073 41.525C52.073 42.7558 52.073 43.8327 52.1756 44.7558H50.2781L50.1756 42.8071H50.1243C49.5602 43.7815 48.3294 45.0122 46.1756 45.0122C44.3294 45.0122 42.073 43.9866 42.073 39.8327V32.9609H44.2268V39.4738C44.2268 41.7302 44.8935 43.2173 46.8935 43.2173C48.3294 43.2173 49.355 42.243 49.714 41.2686C49.8166 40.9609 49.9191 40.5507 49.9191 40.1917V32.9609H52.073V41.525Z" fill="#313940"/>
<path d="M56.1756 36.8081C56.1756 35.321 56.1243 34.0902 56.073 32.962H58.0217L58.1243 34.962H58.1756C59.0474 33.5261 60.432 32.6543 62.3807 32.6543C65.2525 32.6543 67.4063 35.0646 67.4063 38.6543C67.4063 42.9107 64.791 44.962 62.0217 44.962C60.432 44.962 59.0986 44.2953 58.3807 43.1158H58.3294V49.5261H56.1756V36.8081ZM58.2781 39.9364C58.2781 40.244 58.3294 40.5517 58.3807 40.8081C58.7909 42.2953 60.073 43.321 61.6115 43.321C63.8679 43.321 65.2012 41.4748 65.2012 38.7569C65.2012 36.3979 63.9704 34.3979 61.6627 34.3979C60.1756 34.3979 58.8422 35.4235 58.3807 37.0646C58.3294 37.321 58.2269 37.6287 58.2269 37.9364V39.9364H58.2781Z" fill="#313940"/>
<path d="M71.2525 32.9609L73.8679 39.9353C74.1243 40.7045 74.432 41.6276 74.6372 42.3455H74.6884C74.8936 41.6276 75.15 40.7558 75.4577 39.884L77.8166 32.9609H80.0731L76.8423 41.3712C75.3038 45.4225 74.2269 47.4738 72.791 48.7558C71.7141 49.6789 70.6884 50.0379 70.1243 50.1404L69.5602 48.3456C70.1243 48.1917 70.791 47.8327 71.4577 47.3199C72.0218 46.8584 72.791 46.0379 73.2525 44.9096C73.3551 44.7045 73.4064 44.4994 73.4064 44.3968C73.4064 44.2943 73.3551 44.0891 73.2525 43.8327L68.8423 32.9609H71.2525Z" fill="#313940"/>
<path d="M85.7141 29.5762V32.9608H88.7909V34.6018H85.7141V40.9608C85.7141 42.3967 86.1242 43.2685 87.355 43.2685C87.9191 43.2685 88.3294 43.2172 88.5858 43.1146L88.6883 44.7044C88.2781 44.8582 87.6114 45.0121 86.7909 45.0121C85.7653 45.0121 84.996 44.7044 84.4832 44.089C83.8678 43.4736 83.6628 42.3967 83.6628 41.0121V34.6018H81.8167V32.9608H83.6628V30.1403L85.7141 29.5762Z" fill="#313940"/>
<path d="M92.791 39.2692C92.8423 42.1923 94.6885 43.3717 96.8423 43.3717C98.3808 43.3717 99.3039 43.1153 100.124 42.7564L100.483 44.2948C99.7141 44.6538 98.4321 45.0128 96.5346 45.0128C92.8936 45.0128 90.6885 42.6025 90.6885 39.064C90.6885 35.5256 92.791 32.7051 96.2782 32.7051C100.176 32.7051 101.201 36.0897 101.201 38.2435C101.201 38.7051 101.15 39.0128 101.15 39.2179H92.791V39.2692ZM99.0987 37.7307C99.0987 36.3461 98.5346 34.2435 96.1244 34.2435C93.9192 34.2435 92.9962 36.2435 92.791 37.7307H99.0987Z" fill="#313940"/>
<path d="M104.381 36.6538C104.381 35.2692 104.381 34.0897 104.278 32.9615H106.176L106.227 35.2692H106.33C106.894 33.6794 108.176 32.7051 109.612 32.7051C109.868 32.7051 110.022 32.7051 110.227 32.7564V34.7564C110.022 34.7051 109.765 34.7051 109.509 34.7051C107.971 34.7051 106.894 35.8333 106.637 37.4743C106.586 37.782 106.535 38.0897 106.535 38.4487V44.7564H104.381V36.6538Z" fill="#313940"/>
<path d="M114.125 44.7214H116.228V37.6958C116.228 37.2855 116.228 36.9779 116.382 36.6702C116.741 35.542 117.869 34.5676 119.202 34.5676C121.202 34.5676 121.869 36.1573 121.869 38.0035V44.6702H123.972V37.7471C123.972 33.7471 121.459 32.7727 119.92 32.7727C119.151 32.7727 118.382 33.0291 117.767 33.3881C117.1 33.7471 116.587 34.2599 116.279 34.8753H116.228V27.6445H114.125V44.7214ZM137.151 33.1317H135.049V40.2599C135.049 40.6189 134.997 41.0291 134.843 41.3368C134.484 42.2599 133.459 43.2343 132.074 43.2343C130.177 43.2343 129.459 41.7471 129.459 39.542V33.1317H127.356V39.9009C127.356 43.9522 129.561 44.9779 131.356 44.9779C133.408 44.9779 134.638 43.7471 135.202 42.824H135.254L135.356 44.7214H137.202C137.151 43.7984 137.1 42.7727 137.1 41.542V33.1317H137.151ZM142.382 44.7214L142.484 42.824H142.536C143.408 44.3625 144.741 45.0291 146.433 45.0291C149.049 45.0291 151.613 42.9779 151.613 38.824C151.613 35.2856 149.613 32.9266 146.741 32.9266C144.895 32.9266 143.51 33.7471 142.792 35.0804H142.741V27.7984H140.638V41.8497C140.638 42.8753 140.587 44.0548 140.536 44.824H142.382V44.7214ZM142.741 38.0035C142.741 37.6445 142.792 37.3881 142.843 37.1317C143.254 35.542 144.638 34.5163 146.074 34.5163C148.331 34.5163 149.51 36.5163 149.51 38.824C149.51 41.4907 148.177 43.2856 145.972 43.2856C144.433 43.2856 143.202 42.2599 142.792 40.824C142.741 40.5676 142.69 40.3112 142.69 40.0548V38.0035H142.741Z" fill="#999999"/>
</g>
<defs>
<linearGradient id="paint0_linear_303_8779" x1="178.783" y1="33.5913" x2="4.62036" y2="4.92096" gradientUnits="userSpaceOnUse">
<stop stop-color="#979797"/>
<stop offset="0.2293" stop-color="#F1F1F1"/>
<stop offset="0.5129" stop-color="white"/>
<stop offset="1" stop-color="#979797"/>
</linearGradient>
<linearGradient id="paint1_linear_303_8779" x1="178.783" y1="33.5913" x2="4.62036" y2="4.92096" gradientUnits="userSpaceOnUse">
<stop stop-color="#979797"/>
<stop offset="0.1977" stop-color="#F1F1F1"/>
<stop offset="0.567" stop-color="white"/>
<stop offset="1" stop-color="#979797"/>
</linearGradient>
<clipPath id="clip0_303_8779">
<rect width="180" height="78" fill="white"/>
</clipPath>
</defs>
</svg>
