<svg width="80" height="80" viewBox="0 0 80 80" fill="none" xmlns="http://www.w3.org/2000/svg">
<path d="M70.7898 46.323C70.4177 45.196 69.4429 44.411 68.1823 44.2226C67.5879 44.1339 66.9071 44.1717 66.1016 44.3378C64.6974 44.6275 63.6557 44.7378 62.8955 44.7591C65.7651 39.9143 68.0984 34.3894 69.4417 29.1887C71.6138 20.7793 70.4531 16.9482 69.0967 15.2154C65.5071 10.6287 60.2701 8.16471 53.952 8.08932C50.5816 8.04811 47.6228 8.71356 46.0793 9.19211C44.6422 8.93853 43.097 8.79696 41.4756 8.77077C38.4364 8.72229 35.751 9.38483 33.4565 10.7465C32.1862 10.317 30.1474 9.71138 27.793 9.32496C22.2555 8.41586 17.7925 9.12423 14.528 11.4304C10.575 14.2227 8.74254 19.074 9.08144 25.8498C9.18908 28.0011 10.3925 34.5465 12.2873 40.754C13.3762 44.322 14.5374 47.285 15.7387 49.5613C17.4422 52.7892 19.265 54.69 21.3113 55.3727C22.4582 55.7548 24.5421 56.0224 26.7338 54.197C27.0116 54.5334 27.3823 54.8677 27.8742 55.1783C28.4989 55.5722 29.2628 55.8942 30.0257 56.085C32.775 56.7722 35.3503 56.6003 37.5474 55.637C37.561 56.0277 37.5714 56.4011 37.5801 56.7235C37.5947 57.2464 37.6092 57.7591 37.6284 58.2387C37.7585 61.4808 37.9791 64.0018 38.6327 65.7657C38.6686 65.8627 38.7168 66.0105 38.7677 66.1674C39.0938 67.1657 39.639 68.837 41.0262 70.1458C42.4625 71.5017 44.2 71.9174 45.7913 71.9174C46.5893 71.9174 47.3508 71.8127 48.0187 71.6697C50.3993 71.1594 53.103 70.3822 55.0589 67.5972C56.9081 64.9645 57.807 60.9991 57.9697 54.7511C57.9908 54.5744 58.0102 54.4057 58.0288 54.245L58.0676 53.9148L58.5033 53.9531L58.6155 53.9606C61.0402 54.0711 64.0051 53.557 65.8259 52.7111C67.2647 52.0435 71.8754 49.6093 70.7898 46.323Z" fill="black"/>
<path d="M66.6439 46.9635C59.4342 48.4508 58.9384 46.0098 58.9384 46.0098C66.5506 34.7145 69.7329 20.3768 66.9869 16.8677C59.4951 7.29562 46.5266 11.8226 46.3101 11.94L46.2405 11.9526C44.816 11.6568 43.2221 11.4808 41.4303 11.4515C38.1683 11.3982 35.6936 12.3068 33.8158 13.7308C33.8158 13.7308 10.6812 4.2001 11.7574 25.7172C11.9862 30.2946 18.3183 60.3531 25.8708 51.274C28.6313 47.954 31.2987 45.147 31.2987 45.147C32.6233 46.027 34.2092 46.476 35.8718 46.3148L36.001 46.2052C35.9608 46.6173 35.9792 47.0205 36.0526 47.4978C34.1069 49.6716 34.6788 50.0532 30.7894 50.8539C26.8536 51.6651 29.1656 53.109 30.6752 53.4866C32.5052 53.9441 36.7389 54.5923 39.5995 50.5877L39.4856 51.0447C40.2478 51.6554 40.7831 55.0163 40.6934 58.0634C40.6037 61.1102 40.5438 63.202 41.1443 64.836C41.7452 66.4699 42.3438 70.1463 47.457 69.0508C51.7292 68.1351 53.9433 65.7625 54.2514 61.8047C54.4698 58.9911 54.9646 59.4071 54.9957 56.8915L55.3925 55.7007C55.85 51.8866 55.4652 50.6561 58.0972 51.2285L58.7372 51.2847C60.6742 51.3727 63.21 50.9729 64.6982 50.2813C67.9026 48.7943 69.8032 46.3111 66.6434 46.9635H66.6439Z" fill="#336791"/>
<path d="M35.17 27.7639C34.5203 27.6734 33.932 27.7571 33.6343 27.9825C33.467 28.1093 33.4151 28.2562 33.4011 28.3573C33.3637 28.6252 33.5514 28.9214 33.6668 29.0742C33.9931 29.5067 34.4697 29.8039 34.9414 29.8693C35.0098 29.879 35.0779 29.8834 35.1456 29.8834C35.9322 29.8834 36.6476 29.2708 36.7106 28.8187C36.7894 28.2524 35.9674 27.8747 35.17 27.7639ZM56.6934 27.7818C56.6314 27.3379 55.8416 27.2114 55.092 27.3156C54.3434 27.4199 53.6176 27.7578 53.6782 28.2027C53.7266 28.5486 54.3514 29.1391 55.0908 29.1391C55.1533 29.1391 55.2163 29.135 55.2799 29.126C55.7734 29.0577 56.1356 28.7442 56.3077 28.5636C56.5696 28.2882 56.7213 27.9813 56.6934 27.7818Z" fill="white"/>
<path d="M69.043 46.7939C68.7681 45.9626 67.8832 45.6953 66.4132 45.9988C62.0483 46.8996 60.4852 46.2756 59.972 45.8977C63.3647 40.7292 66.1557 34.4814 67.6614 28.6523C68.3746 25.8911 68.7686 23.3268 68.8008 21.2366C68.8364 18.9425 68.4457 17.2567 67.6398 16.2269C64.3909 12.0754 59.6224 9.84847 53.8503 9.78737C49.882 9.74277 46.5293 10.7583 45.8794 11.0439C44.5106 10.7035 43.0185 10.4945 41.394 10.4679C38.4151 10.4196 35.8401 11.1328 33.7082 12.5866C32.7821 12.2419 30.3889 11.4203 27.4621 10.9488C22.4023 10.1343 18.3814 10.7515 15.5121 12.7842C12.0883 15.2099 10.5077 19.5459 10.8139 25.6715C10.9169 27.7323 12.0912 34.0722 13.9443 40.1437C16.3836 48.135 19.0352 52.6589 21.8251 53.5896C22.1516 53.6984 22.5281 53.7745 22.9434 53.7745C23.9611 53.7745 25.2088 53.3159 26.507 51.7551C28.0904 49.8556 29.7283 48.0023 31.4187 46.1973C32.5155 46.7859 33.7203 47.1146 34.9526 47.1476C34.955 47.1799 34.9581 47.2121 34.9611 47.2441C34.7489 47.497 34.5412 47.7537 34.338 48.0138C33.4842 49.0977 33.3065 49.3234 30.5581 49.8892C29.7763 50.0506 27.7 50.4785 27.6694 51.934C27.6364 53.5243 30.124 54.1922 30.4074 54.263C31.395 54.5103 32.3465 54.6322 33.2539 54.6322C35.4607 54.6322 37.4027 53.9069 38.9547 52.5035C38.907 58.1728 39.1434 63.7593 39.8241 65.4613C40.3817 66.8548 41.7436 70.2601 46.0457 70.2599C46.6769 70.2599 47.3717 70.1864 48.1361 70.0225C52.626 69.0601 54.5758 67.0756 55.33 62.7006C55.7337 60.3624 56.4263 54.7791 56.7521 51.7842C57.4396 51.9988 58.3247 52.097 59.2815 52.0967C61.2772 52.0967 63.58 51.6727 65.0241 51.0024C66.6464 50.249 69.5739 48.4002 69.043 46.7939ZM58.3506 26.5563C58.3358 27.4405 58.2141 28.2431 58.0852 29.0809C57.9463 29.982 57.8027 30.9137 57.7666 32.0446C57.731 33.1452 57.8684 34.2894 58.0013 35.3961C58.2699 37.6313 58.5455 39.9323 57.4786 42.2029C57.3014 41.8889 57.1435 41.5643 57.0059 41.231C56.8733 40.9096 56.5853 40.3932 56.1865 39.6785C54.6352 36.8965 51.0025 30.3816 52.8621 27.7231C53.4161 26.9319 54.8219 26.1183 58.3506 26.5563ZM54.0733 11.5777C59.2452 11.6919 63.3363 13.6266 66.2328 17.328C68.4544 20.167 66.0081 33.0851 58.9261 44.2296C58.8549 44.139 58.7833 44.0487 58.7114 43.9588L58.6217 43.8468C60.4517 40.8245 60.0939 37.8342 59.7754 35.183C59.6444 34.095 59.5208 33.0674 59.5523 32.102C59.5848 31.079 59.7201 30.2014 59.851 29.353C60.0117 28.3074 60.1754 27.2254 60.1303 25.95C60.164 25.8162 60.1775 25.6582 60.1598 25.4705C60.0447 24.2475 58.6483 20.5871 55.8023 17.2742C54.2454 15.462 51.9751 13.4342 48.8752 12.0664C50.2086 11.79 52.0318 11.5323 54.0733 11.5777ZM25.1332 50.6128C23.7029 52.3326 22.7152 52.0029 22.3904 51.8948C20.274 51.1888 17.8183 46.7156 15.6532 39.6223C13.7797 33.4846 12.6849 27.3127 12.5981 25.582C12.3247 20.1086 13.6515 16.294 16.5419 14.2441C21.2459 10.9083 28.9797 12.905 32.0874 13.9176C32.0427 13.9617 31.9962 14.0029 31.9521 14.0477C26.8524 19.1978 26.9734 27.9968 26.986 28.5348C26.9855 28.7423 27.003 29.0361 27.0267 29.4402C27.1145 30.9202 27.2779 33.6746 26.8415 36.7939C26.4362 39.6926 27.3298 42.5297 29.2927 44.5779C29.4941 44.7877 29.7059 44.9874 29.9271 45.1762C29.0534 46.112 27.1545 48.1813 25.1332 50.6128ZM30.5826 43.3418C29.0006 41.6909 28.282 39.3946 28.611 37.0412C29.0716 33.7462 28.9017 30.8763 28.8103 29.3345C28.7974 29.1188 28.786 28.9297 28.7795 28.7806C29.5244 28.12 32.9768 26.2703 35.4389 26.8344C36.5623 27.0916 37.2469 27.8567 37.5315 29.1726C39.0044 35.9854 37.7264 38.8249 36.6995 41.1069C36.4878 41.5769 36.2878 42.0213 36.1172 42.4809L35.9848 42.8363C35.6498 43.7348 35.338 44.5702 35.1448 45.3634C33.4629 45.3585 31.8267 44.64 30.5826 43.3416V43.3418ZM30.8408 52.5297C30.3497 52.407 29.908 52.1939 29.6488 52.0172C29.8653 51.9154 30.2505 51.7767 30.9186 51.639C34.1518 50.9736 34.6512 50.5037 35.7417 49.1193C35.9916 48.8017 36.275 48.4419 36.6675 48.0036L36.668 48.0031C37.2524 47.3486 37.5198 47.4596 38.0047 47.6608C38.3977 47.8233 38.7804 48.3159 38.9356 48.8579C39.0091 49.1139 39.0915 49.5997 38.8217 49.9779C36.5438 53.1673 33.2246 53.1263 30.8408 52.5297ZM47.7618 68.2756C43.8064 69.1231 42.4059 67.1049 41.483 64.7978C40.8874 63.3083 40.5945 56.5917 40.8023 49.1743C40.8049 49.0756 40.7909 48.9803 40.7637 48.8906C40.7394 48.7135 40.7025 48.5384 40.6532 48.3665C40.3443 47.2873 39.5916 46.3845 38.6886 46.0102C38.3298 45.8616 37.6714 45.5888 36.8801 45.7913C37.0488 45.096 37.3414 44.3108 37.6587 43.4606L37.7918 43.103C37.9417 42.6999 38.1298 42.2822 38.3286 41.84C39.4032 39.4526 40.875 36.1825 39.2777 28.7951C38.6794 26.0281 36.6813 24.6768 33.6524 24.9908C31.8367 25.1786 30.1754 25.9113 29.3467 26.3314C29.1686 26.4216 29.0057 26.5088 28.8534 26.5937C29.0847 23.8058 29.9584 18.5956 33.2267 15.2991C35.2847 13.224 38.0253 12.199 41.3644 12.2543C47.9438 12.3619 52.163 15.7384 54.5441 18.5522C56.596 20.9767 57.707 23.4191 58.1504 24.7365C54.8158 24.3973 52.548 25.0555 51.3984 26.6991C48.8973 30.2744 52.7666 37.2136 54.6263 40.5486C54.9674 41.1597 55.2617 41.688 55.3543 41.9125C55.9598 43.3801 56.7438 44.36 57.3162 45.0751C57.4917 45.2943 57.6619 45.5069 57.7914 45.6926C56.7814 45.9837 54.9674 46.6565 55.1327 50.0191C54.9994 51.7064 54.0512 59.606 53.5695 62.3971C52.9337 66.0843 51.5768 67.4577 47.7618 68.2759V68.2756ZM64.2718 49.382C63.2391 49.8613 61.5109 50.2208 59.8692 50.2982C58.0558 50.383 57.1327 50.095 56.9155 49.9178C56.8137 47.8223 57.5935 47.6034 58.419 47.3716C58.5487 47.3353 58.6752 47.2996 58.7974 47.257C58.8733 47.3188 58.9564 47.3801 59.0476 47.4402C60.5051 48.4022 63.1046 48.5059 66.7746 47.7483L66.8149 47.7403C66.3198 48.2031 65.4728 48.8242 64.2718 49.382Z" fill="white"/>
</svg>
